<?xml version="1.0" encoding="utf-8" standalone="no"?>
<!DOCTYPE svg PUBLIC "-//W3C//DTD SVG 1.1//EN"
  "http://www.w3.org/Graphics/SVG/1.1/DTD/svg11.dtd">
<svg xmlns:xlink="http://www.w3.org/1999/xlink" width="460.8pt" height="345.6pt" viewBox="0 0 460.8 345.6" xmlns="http://www.w3.org/2000/svg" version="1.1">
 <metadata>
  <rdf:RDF xmlns:dc="http://purl.org/dc/elements/1.1/" xmlns:cc="http://creativecommons.org/ns#" xmlns:rdf="http://www.w3.org/1999/02/22-rdf-syntax-ns#">
   <cc:Work>
    <dc:type rdf:resource="http://purl.org/dc/dcmitype/StillImage"/>
    <dc:date>2025-02-25T08:23:51.300596</dc:date>
    <dc:format>image/svg+xml</dc:format>
    <dc:creator>
     <cc:Agent>
      <dc:title>Matplotlib v3.10.0, https://matplotlib.org/</dc:title>
     </cc:Agent>
    </dc:creator>
   </cc:Work>
  </rdf:RDF>
 </metadata>
 <defs>
  <style type="text/css">*{stroke-linejoin: round; stroke-linecap: butt}</style>
 </defs>
 <g id="figure_1">
  <g id="patch_1">
   <path d="M 0 345.6 
L 460.8 345.6 
L 460.8 0 
L 0 0 
L 0 345.6 
z
" style="fill: none"/>
  </g>
  <g id="axes_1">
   <g id="line2d_1">
    <path d="M 73.832727 216.804279 
L 74.157707 219.787488 
L 74.482686 226.486826 
L 74.807666 229.253789 
L 75.132645 234.629345 
L 75.457625 234.413348 
L 75.782604 235.81901 
L 76.107584 240.159597 
L 76.432563 237.437637 
L 76.757543 238.253683 
L 77.082523 234.401571 
L 77.407502 242.45082 
L 77.732482 231.183821 
L 78.057461 229.923188 
L 78.382441 230.573553 
L 78.70742 233.459141 
L 79.0324 237.641295 
L 79.357379 243.734192 
L 79.682359 253.273688 
L 80.007338 249.413898 
L 80.332318 250.817034 
L 80.657297 253.827139 
L 80.982277 244.654398 
L 81.307256 244.138057 
L 81.632236 239.576604 
L 81.957215 238.402829 
L 82.282195 232.873713 
L 82.607174 231.114141 
L 83.582113 216.891097 
L 83.907093 213.002048 
L 84.232072 206.715121 
L 84.557052 203.81801 
L 84.882031 204.094869 
L 85.207011 207.542257 
L 85.53199 205.234941 
L 85.85697 210.472689 
L 86.181949 208.539296 
L 86.506929 201.534644 
L 86.831908 202.222512 
L 87.481867 208.349767 
L 87.806847 205.964248 
L 88.131826 206.344926 
L 88.456806 207.64592 
L 88.781785 204.842532 
L 89.106765 204.914276 
L 89.431744 199.57655 
L 89.756724 202.881836 
L 90.081704 198.941251 
L 90.406683 197.805661 
L 90.731663 199.50318 
L 91.056642 198.315648 
L 91.381622 196.543633 
L 91.706601 197.435386 
L 92.35656 201.5965 
L 92.68154 201.902142 
L 93.006519 204.568901 
L 93.656478 213.665993 
L 93.981458 216.301548 
L 94.306437 220.830543 
L 94.631417 219.491902 
L 94.956396 214.785383 
L 95.281376 216.61988 
L 95.606355 215.390205 
L 95.931335 217.118095 
L 96.256314 220.436995 
L 96.581294 218.994946 
L 96.906274 223.357957 
L 97.231253 223.764201 
L 97.556233 227.044265 
L 97.881212 222.88469 
L 98.206192 235.109633 
L 98.531171 236.822396 
L 98.856151 241.588442 
L 99.18113 243.581092 
L 99.50611 251.228803 
L 99.831089 251.045222 
L 100.156069 248.582693 
L 100.481048 248.91753 
L 100.806028 247.606172 
L 101.455987 242.651302 
L 101.780966 245.39618 
L 102.430925 237.240404 
L 102.755905 237.110666 
L 103.080885 236.114035 
L 103.405864 239.825162 
L 103.730844 242.047839 
L 104.055823 241.562205 
L 104.380803 235.494752 
L 104.705782 239.011692 
L 105.030762 237.891602 
L 105.355741 239.800913 
L 105.680721 235.564337 
L 106.33068 232.5402 
L 106.655659 239.651768 
L 106.980639 237.459317 
L 107.305618 246.705886 
L 107.630598 247.712335 
L 107.955577 241.327159 
L 108.280557 239.658537 
L 108.605536 237.366008 
L 108.930516 236.313829 
L 109.255495 233.975725 
L 109.580475 229.789151 
L 109.905455 221.803196 
L 110.230434 218.556822 
L 110.555414 218.19797 
L 110.880393 214.313401 
L 111.205373 213.509082 
L 111.530352 217.114623 
L 111.855332 216.749795 
L 112.180311 215.149705 
L 112.505291 222.327737 
L 112.83027 222.65837 
L 113.15525 226.654673 
L 113.480229 220.513737 
L 113.805209 222.658624 
L 114.130188 225.773082 
L 114.455168 230.367803 
L 115.105127 234.649927 
L 115.430106 238.349004 
L 115.755086 233.693497 
L 116.080066 232.672266 
L 116.405045 234.374972 
L 116.730025 233.410661 
L 117.055004 233.990602 
L 117.379984 226.116349 
L 117.704963 231.024328 
L 118.029943 232.238507 
L 118.354922 230.385234 
L 118.679902 233.414899 
L 119.004881 229.731138 
L 119.329861 230.700647 
L 119.65484 234.84144 
L 119.97982 235.06743 
L 120.629779 245.838057 
L 120.954758 247.00723 
L 121.279738 244.758721 
L 121.604717 251.369849 
L 122.254676 254.078527 
L 122.579656 251.777541 
L 122.904636 251.111256 
L 123.229615 245.263873 
L 123.879574 248.863674 
L 124.204554 248.058618 
L 124.529533 253.742652 
L 124.854513 243.718338 
L 125.179492 244.747904 
L 125.504472 234.975811 
L 125.829451 234.395978 
L 126.154431 227.344698 
L 126.47941 229.289516 
L 127.129369 227.721864 
L 127.454349 229.140803 
L 127.779328 232.619397 
L 128.104308 225.712633 
L 128.429287 224.592144 
L 128.754267 225.350198 
L 129.404226 214.632601 
L 129.729206 214.851823 
L 130.054185 217.923677 
L 130.379165 225.926164 
L 130.704144 221.058503 
L 131.029124 225.484497 
L 131.354103 217.596284 
L 131.679083 224.287939 
L 132.004062 223.580996 
L 132.329042 223.797494 
L 132.654021 221.582891 
L 132.979001 224.858066 
L 133.62896 223.133928 
L 133.953939 227.71572 
L 134.278919 230.691899 
L 134.603898 231.855124 
L 134.928878 231.025747 
L 135.253857 230.627078 
L 135.578837 226.990414 
L 135.903817 229.427418 
L 136.228796 227.506783 
L 136.553776 226.556827 
L 136.878755 224.973227 
L 137.203735 216.682302 
L 137.528714 217.330192 
L 137.853694 216.952679 
L 138.503653 210.242206 
L 138.828632 209.632314 
L 139.153612 209.406528 
L 139.478591 210.82254 
L 139.803571 210.099031 
L 140.12855 214.256961 
L 140.45353 208.764147 
L 140.778509 211.395821 
L 141.103489 210.948494 
L 141.428468 214.352904 
L 141.753448 221.35869 
L 142.078428 216.131429 
L 142.403407 217.005657 
L 142.728387 216.861641 
L 143.053366 214.193908 
L 143.378346 215.528552 
L 143.703325 215.575604 
L 144.678264 209.756885 
L 145.003243 197.538353 
L 145.328223 200.21782 
L 145.653202 210.302665 
L 145.978182 205.635805 
L 146.303161 208.432795 
L 146.95312 217.889589 
L 147.2781 220.98227 
L 147.603079 222.165508 
L 147.928059 213.188027 
L 148.253038 210.322669 
L 148.578018 213.293564 
L 148.902998 215.218004 
L 149.227977 218.988811 
L 149.552957 225.420632 
L 150.202916 230.234358 
L 150.527895 230.809512 
L 150.852875 232.7785 
L 151.177854 225.541129 
L 151.827813 216.136348 
L 152.477772 221.860654 
L 153.452711 202.554468 
L 153.77769 199.692344 
L 154.10267 201.812069 
L 154.427649 205.829626 
L 154.752629 205.061008 
L 155.402588 200.917978 
L 155.727568 202.860413 
L 156.052547 199.852577 
L 156.377527 206.697224 
L 156.702506 208.548148 
L 157.027486 205.440532 
L 157.352465 200.843741 
L 157.677445 194.462701 
L 158.002424 192.601933 
L 158.652383 181.191794 
L 158.977363 187.56859 
L 159.302342 186.218375 
L 159.627322 186.634718 
L 159.952301 194.780645 
L 160.277281 192.510141 
L 160.92724 205.800234 
L 161.252219 205.278342 
L 161.902179 203.012007 
L 162.552138 197.025854 
L 162.877117 194.249787 
L 163.202097 196.393619 
L 163.527076 199.383967 
L 163.852056 193.434133 
L 164.177035 193.040183 
L 164.502015 199.030733 
L 164.826994 201.057784 
L 165.151974 209.195544 
L 165.476953 209.13935 
L 165.801933 204.53122 
L 166.126912 202.76025 
L 166.451892 211.244895 
L 167.101851 206.488271 
L 167.42683 206.440755 
L 167.75181 209.764318 
L 168.07679 218.865282 
L 168.401769 219.490553 
L 168.726749 226.358954 
L 169.051728 229.119759 
L 169.376708 225.613165 
L 169.701687 225.542308 
L 170.026667 228.204972 
L 170.351646 226.184853 
L 170.676626 223.418969 
L 171.001605 231.42663 
L 171.326585 236.128873 
L 171.651564 235.449395 
L 171.976544 237.584667 
L 172.626503 228.491693 
L 172.951482 225.663641 
L 173.276462 225.464245 
L 173.601441 223.496003 
L 173.926421 222.256464 
L 174.2514 222.542025 
L 174.57638 223.745308 
L 174.90136 226.948114 
L 175.226339 231.395762 
L 175.551319 225.106545 
L 175.876298 224.359246 
L 176.201278 221.163421 
L 176.526257 215.924617 
L 176.851237 222.370071 
L 177.176216 226.505838 
L 177.501196 223.245783 
L 177.826175 225.633603 
L 178.151155 226.117014 
L 178.476134 217.325512 
L 178.801114 215.640063 
L 179.126093 217.675516 
L 179.451073 224.857417 
L 179.776052 228.842568 
L 180.101032 230.599436 
L 180.426011 228.008544 
L 181.075971 243.690376 
L 181.40095 240.454805 
L 181.72593 242.942488 
L 182.050909 243.626318 
L 182.375889 248.031656 
L 182.700868 247.825565 
L 183.025848 250.280884 
L 183.350827 245.864717 
L 183.675807 251.89322 
L 184.000786 253.031354 
L 184.325766 256.80321 
L 184.650745 252.61772 
L 184.975725 255.113513 
L 185.300704 253.565455 
L 185.950663 244.848347 
L 186.275643 244.704347 
L 186.600622 240.243035 
L 186.925602 245.225203 
L 187.250581 241.137336 
L 187.575561 240.055581 
L 187.900541 244.243623 
L 188.22552 245.819527 
L 188.5505 244.976895 
L 188.875479 234.650426 
L 189.200459 234.724145 
L 189.525438 242.754085 
L 189.850418 239.712368 
L 190.500377 243.46271 
L 191.475315 252.172089 
L 191.800295 250.086941 
L 192.125274 252.970194 
L 192.450254 248.520725 
L 192.775233 251.198044 
L 193.100213 251.194992 
L 193.425192 249.629077 
L 194.075152 251.376185 
L 194.725111 241.585276 
L 195.05009 240.436436 
L 195.37507 231.720554 
L 195.700049 227.600636 
L 196.999967 245.719395 
L 197.324947 241.217133 
L 197.649926 244.816154 
L 198.299885 261.443937 
L 198.624865 260.035266 
L 199.274824 275.867849 
L 199.599803 268.978755 
L 199.924783 275.494704 
L 200.249762 271.775937 
L 200.574742 278.469762 
L 201.224701 295.219473 
L 201.87466 290.302408 
L 202.19964 292.210503 
L 202.524619 295.488 
L 202.849599 291.951674 
L 203.174578 286.848621 
L 203.499558 283.624561 
L 203.824537 285.792813 
L 204.149517 282.424223 
L 204.474496 280.931167 
L 205.124455 274.746116 
L 205.449435 270.671049 
L 205.774414 276.078242 
L 206.099394 269.417479 
L 206.424373 271.863305 
L 206.749353 272.302474 
L 207.074333 277.452789 
L 207.399312 272.322615 
L 207.724292 275.436719 
L 208.049271 271.167881 
L 208.374251 270.728799 
L 208.69923 263.337061 
L 209.02421 267.035955 
L 209.349189 265.130733 
L 209.674169 269.36501 
L 210.324128 249.373921 
L 210.649107 245.236585 
L 210.974087 242.922466 
L 211.299066 247.553849 
L 211.949025 244.195668 
L 212.274005 248.935842 
L 212.598984 236.905589 
L 212.923964 243.277953 
L 213.248943 242.565472 
L 213.573923 242.937052 
L 213.898903 246.13146 
L 214.223882 241.772402 
L 214.548862 243.650105 
L 214.873841 244.501854 
L 215.5238 236.442433 
L 215.84878 236.016042 
L 216.173759 241.211267 
L 216.498739 240.688375 
L 217.148698 237.706681 
L 217.473677 241.382686 
L 217.798657 247.174054 
L 218.123636 246.062842 
L 218.773595 250.149646 
L 219.098575 257.072851 
L 219.423554 258.718635 
L 220.073514 249.252685 
L 220.398493 243.34313 
L 220.723473 242.842126 
L 221.048452 243.923837 
L 221.373432 240.799164 
L 221.698411 243.110847 
L 222.023391 249.234048 
L 222.34837 243.710216 
L 222.67335 246.812114 
L 222.998329 247.387517 
L 223.323309 250.330494 
L 223.648288 244.810098 
L 223.973268 248.238274 
L 224.298247 242.852512 
L 224.623227 244.091918 
L 224.948206 240.398255 
L 225.273186 242.040615 
L 225.598165 242.588856 
L 225.923145 242.762593 
L 226.248124 243.649197 
L 226.573104 235.870194 
L 226.898084 238.386278 
L 227.223063 239.477009 
L 227.548043 237.937054 
L 227.873022 241.349666 
L 228.198002 237.122792 
L 228.522981 235.117348 
L 228.847961 229.588892 
L 229.17294 229.439612 
L 229.49792 232.014011 
L 229.822899 227.336378 
L 230.147879 228.701428 
L 230.472858 227.096318 
L 230.797838 227.816724 
L 231.122817 223.4297 
L 231.447797 216.413298 
L 232.097756 214.083454 
L 232.422735 214.830489 
L 232.747715 214.358301 
L 233.072695 217.270935 
L 233.397674 217.401909 
L 233.722654 213.284254 
L 234.047633 210.851005 
L 234.372613 214.535249 
L 234.697592 216.410037 
L 235.022572 216.296099 
L 235.347551 216.825741 
L 235.672531 215.646637 
L 235.99751 211.843663 
L 236.32249 209.820086 
L 236.647469 205.482989 
L 236.972449 202.769888 
L 237.297428 203.268488 
L 237.622408 204.747015 
L 238.272367 198.658753 
L 238.597346 192.007365 
L 238.922326 192.039529 
L 239.247305 186.861903 
L 239.572285 183.629739 
L 239.897265 177.149442 
L 240.222244 176.780579 
L 240.547224 179.609074 
L 240.872203 179.938003 
L 241.522162 170.355722 
L 241.847142 168.978144 
L 242.172121 166.291585 
L 242.497101 167.512399 
L 242.82208 163.287419 
L 243.14706 166.24357 
L 243.472039 154.782181 
L 243.797019 155.367314 
L 244.121998 160.566202 
L 244.446978 158.469669 
L 244.771957 162.011098 
L 245.096937 163.124292 
L 245.421916 160.944179 
L 245.746896 160.086867 
L 246.396855 164.260268 
L 246.721835 161.558552 
L 247.371794 153.16946 
L 247.696773 156.752172 
L 248.021753 157.316521 
L 248.346732 158.390851 
L 248.671712 162.927698 
L 248.996691 154.369035 
L 249.321671 155.031982 
L 249.64665 158.722809 
L 249.97163 158.689949 
L 250.296609 156.448578 
L 250.621589 162.22027 
L 250.946568 158.948089 
L 251.921507 146.431955 
L 252.246486 138.940828 
L 252.571466 141.982281 
L 252.896446 147.023272 
L 253.221425 140.47223 
L 253.546405 141.883747 
L 253.871384 133.966982 
L 254.196364 135.517641 
L 254.521343 128.792789 
L 254.846323 134.060646 
L 255.496282 118.147363 
L 255.821261 117.234332 
L 256.146241 117.019456 
L 256.47122 115.600779 
L 256.7962 115.658189 
L 257.121179 110.593288 
L 257.446159 109.432339 
L 258.096118 99.957524 
L 258.421097 100.467311 
L 258.746077 93.75402 
L 259.071057 93.300506 
L 259.396036 94.668651 
L 259.721016 89.977806 
L 260.045995 89.880516 
L 260.370975 93.653805 
L 260.695954 95.101668 
L 261.020934 93.199763 
L 261.345913 93.88295 
L 261.670893 94.981614 
L 262.320852 95.959581 
L 262.645831 101.370391 
L 262.970811 91.283665 
L 263.29579 93.272797 
L 263.62077 91.890368 
L 263.945749 93.879898 
L 264.270729 97.161946 
L 264.595708 92.842376 
L 264.920688 95.991459 
L 265.245667 95.774651 
L 265.570647 91.992683 
L 265.895627 92.34153 
L 266.220606 89.67004 
L 266.545586 84.785609 
L 266.870565 86.210332 
L 267.195545 93.918772 
L 267.520524 87.811226 
L 267.845504 88.84055 
L 268.495463 98.354722 
L 268.820442 95.536673 
L 269.145422 106.521664 
L 269.470401 102.602824 
L 269.795381 104.48351 
L 270.12036 107.709763 
L 270.44534 102.806068 
L 270.770319 103.458534 
L 271.095299 102.26678 
L 271.420278 102.321273 
L 272.395217 112.874267 
L 272.720197 120.03855 
L 273.045176 122.057445 
L 273.695135 115.295526 
L 274.020115 116.649868 
L 274.345094 119.089948 
L 274.670074 119.113112 
L 275.320033 105.423054 
L 275.645012 109.325911 
L 275.969992 111.033322 
L 276.294971 117.261786 
L 276.619951 118.246454 
L 276.94493 114.528237 
L 277.26991 108.359571 
L 277.594889 108.749381 
L 277.919869 113.665912 
L 278.244848 104.926324 
L 278.569828 104.521108 
L 278.894808 106.441455 
L 279.219787 103.299742 
L 279.544767 103.737978 
L 279.869746 102.984089 
L 280.194726 98.886195 
L 280.519705 99.930856 
L 280.844685 95.844198 
L 281.169664 96.575852 
L 281.494644 101.453521 
L 281.819623 99.250921 
L 282.144603 97.948194 
L 282.469582 104.538155 
L 282.794562 100.811914 
L 283.119541 103.470111 
L 283.444521 101.256901 
L 283.7695 101.494038 
L 284.09448 105.501256 
L 284.419459 103.279328 
L 284.744439 103.696157 
L 285.069419 106.275929 
L 285.394398 101.433745 
L 285.719378 104.170812 
L 286.044357 103.938169 
L 286.694316 113.496847 
L 287.019296 113.225638 
L 287.344275 112.278403 
L 287.669255 116.016796 
L 288.319214 107.275719 
L 288.644193 115.66209 
L 288.969173 111.559369 
L 289.619132 114.249331 
L 289.944111 113.529763 
L 290.269091 110.190493 
L 290.91905 112.189793 
L 291.244029 117.036265 
L 291.569009 116.969227 
L 291.893989 118.836977 
L 292.218968 118.104065 
L 292.543948 120.670561 
L 292.868927 119.520776 
L 293.193907 123.0198 
L 293.518886 129.491448 
L 293.843866 125.075802 
L 294.168845 125.659973 
L 294.493825 127.353225 
L 294.818804 128.096327 
L 295.143784 125.524527 
L 295.468763 118.622687 
L 295.793743 115.371637 
L 296.443702 119.567996 
L 296.768681 114.968786 
L 297.093661 118.230223 
L 297.41864 124.103178 
L 297.74362 125.756603 
L 298.393579 135.039885 
L 298.718559 135.469689 
L 299.043538 134.579437 
L 299.368518 129.601188 
L 299.693497 136.129047 
L 300.018477 134.258529 
L 300.343456 130.304454 
L 300.668436 130.014858 
L 300.993415 133.729577 
L 301.318395 130.020566 
L 301.643374 131.022464 
L 301.968354 124.18488 
L 302.293333 120.867021 
L 302.618313 120.234951 
L 303.268272 133.974495 
L 303.593251 131.41703 
L 303.918231 133.026075 
L 304.24321 143.431571 
L 304.56819 139.60487 
L 304.89317 140.153117 
L 305.218149 145.951212 
L 305.543129 145.120496 
L 305.868108 143.790114 
L 306.193088 148.676608 
L 306.518067 150.633493 
L 306.843047 145.782077 
L 307.168026 138.053579 
L 307.493006 134.710742 
L 307.817985 136.384453 
L 308.142965 136.016227 
L 308.467944 131.684194 
L 308.792924 131.742317 
L 309.117903 131.171227 
L 309.767862 137.8966 
L 310.092842 126.553586 
L 310.417821 129.487466 
L 310.742801 127.166871 
L 311.067781 126.160285 
L 311.71774 134.093813 
L 312.042719 140.15635 
L 312.367699 141.261401 
L 312.692678 141.769677 
L 313.342637 128.923898 
L 313.667617 128.739113 
L 313.992596 131.301101 
L 314.317576 128.781402 
L 314.642555 133.146472 
L 314.967535 131.06025 
L 315.292514 134.865301 
L 315.617494 129.966657 
L 315.942473 133.79114 
L 316.267453 135.843301 
L 316.592432 134.52374 
L 316.917412 141.326005 
L 317.242391 140.257694 
L 317.567371 143.054374 
L 317.892351 142.330338 
L 318.21733 144.244375 
L 318.54231 140.174585 
L 318.867289 139.235154 
L 319.192269 137.657742 
L 319.517248 133.960132 
L 320.167207 134.3731 
L 320.817166 129.436575 
L 321.142146 135.239911 
L 321.467125 137.112266 
L 321.792105 141.344868 
L 322.117084 138.568407 
L 322.442064 148.628472 
L 323.092023 146.48682 
L 323.417002 146.278179 
L 323.741982 146.976889 
L 324.066962 148.596697 
L 324.391941 157.87776 
L 324.716921 156.371564 
L 325.0419 151.971814 
L 325.36688 152.34545 
L 325.691859 150.853292 
L 326.016839 147.954653 
L 326.341818 151.4706 
L 326.666798 143.124155 
L 326.991777 147.936969 
L 327.316757 144.459165 
L 327.641736 147.435487 
L 327.966716 144.899629 
L 328.291695 149.303597 
L 328.616675 150.846035 
L 328.941654 149.343272 
L 329.266634 152.282458 
L 329.591613 147.194338 
L 329.916593 148.71788 
L 330.241572 149.495451 
L 330.566552 146.523098 
L 330.891532 144.883972 
L 331.216511 137.402683 
L 331.86647 128.88475 
L 332.19145 127.489884 
L 332.516429 135.003735 
L 333.166388 130.423685 
L 333.491368 130.560451 
L 333.816347 137.023018 
L 334.141327 138.694634 
L 334.466306 136.889458 
L 334.791286 139.014584 
L 335.116265 130.082593 
L 335.441245 137.625787 
L 335.766224 128.965665 
L 336.091204 136.138889 
L 336.416183 136.083712 
L 336.741163 139.619506 
L 337.066143 141.669533 
L 337.391122 144.446832 
L 338.041081 146.577981 
L 338.366061 146.231669 
L 338.69104 148.333224 
L 339.01602 148.765885 
L 339.340999 146.134456 
L 339.990958 150.860847 
L 340.965897 161.942601 
L 341.290876 165.399063 
L 341.615856 162.042403 
L 341.940835 163.435134 
L 342.590794 156.339235 
L 342.915774 157.851393 
L 343.240753 160.297662 
L 343.565733 159.722986 
L 343.890713 153.460579 
L 344.215692 154.914371 
L 344.540672 151.884796 
L 344.865651 151.629122 
L 345.190631 147.725913 
L 345.51561 142.033374 
L 346.165569 153.550633 
L 346.490549 153.320914 
L 346.815528 147.962535 
L 347.140508 145.446229 
L 347.465487 145.047413 
L 347.790467 150.277254 
L 348.115446 153.420876 
L 348.440426 162.156356 
L 348.765405 164.975091 
L 349.090385 166.448154 
L 349.415364 162.901395 
L 349.740344 161.208076 
L 350.065324 155.196017 
L 350.390303 154.702061 
L 350.715283 150.692929 
L 351.040262 152.133371 
L 351.365242 144.967956 
L 351.690221 143.84684 
L 352.015201 143.309066 
L 352.34018 146.447419 
L 352.66516 142.670865 
L 352.990139 141.423461 
L 353.315119 137.055126 
L 353.640098 136.548863 
L 353.965078 137.998628 
L 354.290057 142.238625 
L 355.264996 123.557457 
L 355.589975 120.813896 
L 355.914955 114.155268 
L 356.239934 114.06281 
L 356.564914 111.000677 
L 356.889894 110.248124 
L 357.214873 105.609658 
L 357.539853 105.700638 
L 357.864832 100.007599 
L 358.189812 100.18053 
L 358.514791 94.826301 
L 358.839771 92.622859 
L 359.814709 88.672342 
L 360.139689 85.498057 
L 360.464668 83.676505 
L 360.789648 83.579705 
L 361.114627 85.753423 
L 361.439607 87.119157 
L 361.764586 83.087175 
L 362.089566 85.063339 
L 362.414545 90.470169 
L 362.739525 89.689874 
L 363.064505 78.35508 
L 363.389484 76.043659 
L 363.714464 75.409751 
L 364.039443 73.805844 
L 364.364423 74.398148 
L 364.689402 62.61636 
L 365.339361 70.673503 
L 365.664341 69.38141 
L 365.98932 71.427404 
L 366.3143 76.142204 
L 366.964259 63.508592 
L 367.289238 61.919666 
L 367.614218 63.580826 
L 368.264177 56.003392 
L 368.589156 58.061573 
L 368.914136 62.062686 
L 369.239115 53.568 
L 369.889075 59.572993 
L 370.214054 57.269641 
L 370.539034 56.882786 
L 370.864013 59.5463 
L 371.188993 61.097123 
L 371.513972 63.360096 
L 371.838952 62.004266 
L 372.163931 63.621809 
L 372.488911 60.197733 
L 372.81389 63.134168 
L 373.13887 67.593683 
L 373.463849 63.734752 
L 373.788829 69.029116 
L 374.113808 67.37886 
L 374.438788 62.943391 
L 374.763767 62.931004 
L 375.088747 59.510406 
L 375.413726 65.055465 
L 375.738706 67.727195 
L 376.063686 75.15959 
L 376.388665 77.73776 
L 376.713645 77.56714 
L 377.038624 73.601245 
L 377.363604 86.421905 
L 377.688583 82.79855 
L 378.013563 84.217155 
L 378.338542 82.758798 
L 378.988501 87.298163 
L 379.313481 93.476818 
L 379.63846 91.158132 
L 379.96344 96.294219 
L 380.288419 110.236428 
L 380.938378 119.467509 
L 381.588337 130.633703 
L 381.913317 133.117097 
L 382.238296 126.668374 
L 382.563276 127.025067 
L 382.888256 123.103006 
L 383.213235 116.660537 
L 383.538215 124.215711 
L 383.863194 118.130163 
L 384.188174 116.873502 
L 384.513153 116.760885 
L 384.838133 118.824596 
L 385.163112 115.478001 
L 385.488092 116.779238 
L 385.813071 118.686591 
L 386.46303 126.327996 
L 386.78801 121.336985 
L 387.437969 123.796915 
L 387.762948 119.884554 
L 388.087928 123.75505 
L 388.412907 124.224192 
L 388.737887 129.345524 
L 389.062867 129.894528 
L 389.387846 127.530294 
L 390.037805 116.29384 
L 390.362785 114.232985 
L 390.687764 115.276843 
L 391.012744 115.256867 
L 391.337723 116.365429 
L 391.662703 120.024983 
L 392.962621 105.82031 
L 393.2876 106.376328 
L 393.61258 104.144722 
L 393.937559 103.908703 
L 394.262539 103.052329 
L 394.587518 111.832421 
L 394.912498 114.384235 
L 395.562457 110.257364 
L 395.887437 110.136462 
L 396.212416 112.02317 
L 396.862375 122.405529 
L 397.187355 110.335594 
L 397.512334 112.54185 
L 397.837314 123.665266 
L 398.162293 121.699966 
L 398.487273 120.859526 
L 398.487273 120.859526 
" clip-path="url(#p42e82c49b7)" style="fill: none; stroke: #1f77b4; stroke-width: 1.5; stroke-linecap: square"/>
   </g>
  </g>
 </g>
 <defs>
  <clipPath id="p42e82c49b7">
   <rect x="57.6" y="41.472" width="357.12" height="266.112"/>
  </clipPath>
 </defs>
</svg>
