<?xml version="1.0" encoding="utf-8" standalone="no"?>
<!DOCTYPE svg PUBLIC "-//W3C//DTD SVG 1.1//EN"
  "http://www.w3.org/Graphics/SVG/1.1/DTD/svg11.dtd">
<svg xmlns:xlink="http://www.w3.org/1999/xlink" width="123.523758pt" height="123.523758pt" viewBox="0 0 123.523758 123.523758" xmlns="http://www.w3.org/2000/svg" version="1.1">
 <metadata>
  <rdf:RDF xmlns:dc="http://purl.org/dc/elements/1.1/" xmlns:cc="http://creativecommons.org/ns#" xmlns:rdf="http://www.w3.org/1999/02/22-rdf-syntax-ns#">
   <cc:Work>
    <dc:type rdf:resource="http://purl.org/dc/dcmitype/StillImage"/>
    <dc:date>2025-02-25T18:45:59.577547</dc:date>
    <dc:format>image/svg+xml</dc:format>
    <dc:creator>
     <cc:Agent>
      <dc:title>Matplotlib v3.9.2, https://matplotlib.org/</dc:title>
     </cc:Agent>
    </dc:creator>
   </cc:Work>
  </rdf:RDF>
 </metadata>
 <defs>
  <style type="text/css">*{stroke-linejoin: round; stroke-linecap: butt}</style>
 </defs>
 <g id="figure_1">
  <g id="patch_1">
   <path d="M 0 123.523758 
L 123.523758 123.523758 
L 123.523758 0 
L 0 0 
L 0 123.523758 
z
" style="fill: none"/>
  </g>
  <g id="axes_1">
   <g id="line2d_1">
    <path d="M 55.416697 62.379498 
L 56.223697 59.93386 
L 57.009505 61.403259 
L 56.930556 61.042227 
L 57.156805 62.139121 
L 59.763803 62.044803 
L 58.484268 63.312456 
L 57.504567 63.419372 
L 58.642828 63.465828 
L 57.499531 64.109855 
L 56.308687 61.759083 
L 57.458193 59.569353 
L 56.693397 60.184886 
L 59.327768 59.92105 
L 57.267642 59.279894 
L 57.715268 58.619117 
L 59.27509 60.412143 
L 60.231687 59.058312 
L 56.731695 58.729165 
L 59.019621 58.493048 
L 59.557886 59.156349 
L 60.742358 58.57306 
L 59.403135 58.257042 
L 60.579428 56.787689 
L 60.15716 57.620036 
L 58.787505 59.366797 
L 58.207451 60.574947 
L 56.786798 58.896188 
L 59.933945 58.841779 
L 60.031244 60.661975 
L 60.444998 59.637957 
L 61.655349 59.395954 
L 59.979911 58.582057 
L 60.839944 58.756401 
L 60.900427 56.960664 
L 64.424129 56.32277 
L 63.768985 57.176534 
L 64.683206 57.836542 
L 64.876261 58.476669 
L 64.225195 59.066845 
L 64.353393 58.756691 
L 63.323222 60.547922 
L 64.597448 58.81732 
L 64.421595 60.891671 
L 64.902695 60.711147 
L 66.206598 60.590294 
L 67.735226 62.338548 
L 67.76968 62.233296 
L 68.193015 62.064679 
L 69.846504 62.777295 
L 68.922379 63.757886 
L 69.360833 61.640407 
L 71.164368 63.573708 
L 71.443339 64.957246 
L 72.47771 64.555111 
L 74.286913 63.565829 
L 74.095297 63.839072 
L 74.69822 64.920383 
L 72.171145 64.514998 
L 74.141273 63.871163 
L 74.480533 65.528243 
L 72.348503 65.924631 
L 70.968736 65.691634 
L 71.756955 65.622984 
L 72.491686 67.158514 
L 72.865801 66.224049 
L 71.988274 66.862225 
L 71.636175 66.643019 
L 70.92164 66.857047 
L 71.173425 66.217697 
L 69.328193 67.57273 
L 69.420175 68.250981 
L 68.932384 69.021345 
L 70.845007 69.426669 
L 70.616963 71.186309 
L 68.95896 70.956135 
L 67.420134 72.426866 
L 69.601692 71.904082 
L 72.331102 73.324415 
L 74.663435 73.129614 
L 73.548715 72.52766 
L 72.540944 72.308582 
L 71.912273 71.903839 
L 71.224651 70.603281 
L 71.325803 70.737489 
L 71.827381 70.734206 
L 69.119856 71.337722 
L 68.387129 72.595469 
L 67.305036 73.421135 
L 67.265706 73.612498 
L 65.651638 73.966871 
L 67.869614 74.553992 
L 68.254573 72.550942 
L 67.610128 71.569031 
L 66.171438 71.864326 
L 66.07451 73.89436 
L 65.380041 73.514067 
L 62.90001 74.084434 
L 61.817949 73.342805 
L 62.315678 74.877801 
L 62.175445 76.097359 
L 62.532308 77.705336 
L 60.674993 76.30274 
L 59.506286 77.327864 
L 59.967233 76.903985 
L 58.932567 75.776267 
L 59.389009 75.003259 
L 59.19055 75.743208 
L 59.396557 76.128871 
L 58.909594 74.940856 
L 60.394085 76.671271 
L 61.447825 79.321597 
L 60.837879 81.284269 
L 61.489476 82.960583 
L 62.428421 82.138897 
L 62.812353 80.780897 
L 61.973936 79.342974 
L 61.116375 79.332919 
L 61.415051 80.56658 
L 61.757651 79.908702 
L 63.442069 80.261705 
L 63.212804 80.555349 
L 63.724875 80.769896 
L 63.806157 79.968661 
L 65.343493 79.035694 
L 62.619961 79.729737 
L 62.358231 78.843147 
L 62.875412 79.676288 
L 63.341516 78.915245 
L 64.012953 79.223014 
L 63.319657 77.916789 
L 63.186978 79.19647 
L 63.306157 79.164606 
L 61.410537 80.312393 
L 61.976453 82.065013 
L 62.997164 80.589156 
L 62.753929 79.670608 
L 61.877172 77.048529 
L 59.41867 76.730417 
L 59.333902 76.09751 
L 58.68251 76.507468 
L 58.198212 77.473139 
L 57.446988 77.212744 
L 59.173608 76.2909 
L 56.663321 76.349511 
L 55.298895 77.429828 
L 55.313095 77.159744 
L 58.296874 77.314151 
L 58.164298 78.252179 
L 57.449579 79.286854 
L 57.986651 81.585423 
L 58.912146 82.107373 
L 59.095693 81.917929 
L 59.170038 81.221605 
L 59.4897 81.908909 
L 59.100141 81.719758 
L 59.866488 83.091922 
L 58.061877 84.004899 
L 58.640199 84.387844 
L 58.185423 84.181358 
L 58.355783 85.756047 
L 59.248886 87.093313 
L 58.133085 86.793545 
L 59.288961 86.825267 
L 59.76043 86.382131 
L 59.737894 88.670552 
L 59.39968 91.812327 
L 59.839194 93.319834 
L 59.159315 93.17935 
L 60.87468 93.62381 
L 60.507756 92.405558 
L 59.802242 92.29096 
L 60.294994 92.327966 
L 60.668855 90.829635 
L 60.7389 88.978762 
L 60.90345 90.929889 
L 62.99032 91.217094 
L 61.002409 91.785521 
L 61.21425 91.677523 
L 59.161844 91.997554 
L 60.493597 89.380462 
L 60.481731 88.742039 
L 61.327353 90.020131 
L 61.902195 91.587875 
L 62.3398 90.241592 
L 61.767206 89.467538 
L 61.340882 88.642213 
L 61.396481 89.692071 
L 63.472519 87.86734 
L 64.367824 88.136166 
L 66.013137 88.342327 
L 66.880311 89.335235 
L 66.857119 90.455378 
L 68.239704 86.914883 
L 66.344552 85.964502 
L 66.067631 83.79462 
L 65.712208 83.826352 
L 66.262766 83.7843 
L 65.872122 82.937561 
L 66.713782 82.162809 
L 66.984843 80.683295 
L 67.416862 80.336931 
L 68.532511 82.336896 
L 67.805184 82.354478 
L 68.018649 82.806528 
L 66.32147 82.299694 
L 63.877008 82.425924 
L 64.096542 81.290155 
L 63.193972 82.858678 
L 62.326948 83.160285 
L 60.714044 84.335887 
L 60.399678 83.631693 
L 59.151979 82.646752 
L 61.64921 81.824381 
L 62.431306 82.494275 
L 62.389027 83.37745 
L 61.013657 80.983593 
L 61.367503 80.000397 
L 59.943071 78.623964 
L 60.217377 77.560043 
L 61.125702 77.143273 
L 62.870705 75.811611 
L 61.817529 76.083651 
L 62.734726 76.108508 
L 62.444695 75.897508 
L 63.257458 74.464155 
L 62.519989 74.43499 
L 62.739102 75.027531 
L 61.25132 75.199836 
L 61.258983 73.77072 
L 59.754428 74.34749 
L 60.360877 74.567509 
L 60.512731 74.759303 
L 61.919665 75.451679 
L 62.619133 75.269252 
L 63.404295 75.269097 
L 65.947866 74.123377 
L 64.761707 73.850718 
L 65.086326 73.005215 
L 64.902625 73.965762 
L 64.956991 73.444259 
L 64.504259 72.829243 
L 66.504493 72.661893 
L 68.423795 71.116582 
L 67.853409 70.885197 
L 69.052022 70.709557 
L 68.754824 70.291014 
L 69.454182 68.718368 
L 70.271038 68.179378 
L 70.152171 67.807948 
L 67.234941 68.666909 
L 65.48746 68.216627 
L 65.875259 67.072388 
L 65.473402 68.303386 
L 63.364575 68.460893 
L 63.248152 69.317109 
L 63.445823 69.644781 
L 63.768365 69.214762 
L 64.06817 69.016583 
L 63.786876 67.008282 
L 64.51035 67.220896 
L 63.961106 68.15081 
L 62.45502 70.078222 
L 64.46333 70.562498 
L 62.634864 71.803686 
L 63.557239 71.393698 
L 63.7066 71.596626 
L 64.472076 72.422057 
L 64.640265 73.52968 
L 64.480854 76.281615 
L 65.511947 76.730281 
L 65.301674 77.972537 
L 67.688049 76.850483 
L 67.420888 79.378319 
L 65.801982 80.443176 
L 65.798231 79.659755 
L 64.024134 78.605115 
L 61.200795 79.122835 
L 62.670429 79.567353 
L 62.583539 80.064019 
L 63.215358 79.715934 
L 62.47978 80.627738 
L 62.118912 81.575577 
L 63.568502 81.774691 
L 63.610983 81.142409 
L 64.662971 81.443038 
L 65.34374 80.508817 
L 65.248287 81.479589 
L 68.570054 81.769503 
L 68.334808 80.547964 
L 67.286704 80.056286 
L 67.503054 80.664798 
L 66.616011 81.276434 
L 68.064456 82.038108 
L 66.52142 84.042309 
L 67.211708 83.992192 
L 68.573178 83.142503 
L 69.905135 82.50689 
L 71.924106 83.853139 
L 73.136448 83.503395 
L 74.078651 83.411101 
L 74.881751 82.651963 
L 73.790868 83.329367 
L 73.873343 84.348831 
L 74.401209 86.213433 
L 75.993107 84.797725 
L 76.726497 83.68302 
L 76.230098 86.06702 
L 77.39019 82.864758 
L 75.057492 82.496338 
L 74.615195 81.395827 
L 73.621132 82.137814 
L 72.844783 81.297436 
L 72.73589 80.385827 
L 73.201342 78.648126 
L 73.336054 78.792741 
L 75.49953 78.153581 
L 75.571352 78.514913 
L 75.639452 77.658997 
L 75.1181 77.877553 
L 76.973999 76.931287 
L 77.838983 78.464436 
L 77.950984 78.25466 
L 79.567946 78.840928 
L 79.680397 77.871034 
L 77.652204 77.1717 
L 76.198608 79.240484 
L 79.72556 80.625162 
L 81.402065 80.83979 
L 82.556048 80.682399 
L 80.455939 81.3591 
L 77.89682 80.200987 
L 77.544993 78.843586 
L 76.538843 79.847464 
L 76.233514 81.156385 
L 75.092968 81.536256 
L 75.249081 80.946323 
L 74.901394 81.221255 
L 74.411334 80.98 
L 74.61049 80.038128 
L 76.094527 80.266619 
L 76.700731 79.436895 
L 76.993729 79.965754 
L 76.459914 80.305932 
L 76.518509 81.133569 
L 76.81671 81.145099 
L 76.397288 79.20193 
L 78.076834 78.787646 
L 77.084363 77.718257 
L 78.147857 76.960984 
L 79.797017 76.800982 
L 78.274958 75.285563 
L 79.772079 74.554285 
L 78.442202 76.524765 
L 79.143053 76.982361 
L 80.252132 76.020221 
L 79.537307 74.368211 
L 78.765116 73.19953 
L 78.579981 73.8544 
L 78.623052 74.470023 
L 79.342349 75.427619 
L 78.797781 75.472489 
L 78.238321 74.301141 
L 77.988931 72.59491 
L 79.703411 71.643075 
L 81.102603 71.934501 
L 82.633474 70.708413 
L 84.203475 70.322511 
L 83.897677 70.251387 
L 84.603675 70.637151 
L 85.756259 71.523385 
L 85.770889 71.128886 
L 85.285214 71.276938 
L 84.457854 73.234615 
L 84.413254 74.609618 
L 85.230682 74.323841 
L 83.92819 74.996598 
L 83.492521 75.487096 
L 82.233416 75.655716 
L 82.508409 73.713105 
L 82.714443 74.558314 
L 82.263284 74.374221 
L 82.898819 72.177191 
L 82.387067 72.595543 
L 82.425129 74.551793 
L 82.440369 75.287549 
L 83.683657 76.281442 
L 84.161117 75.40406 
L 83.792222 75.895686 
L 85.435105 75.750834 
L 86.134682 74.653787 
L 84.642179 74.618818 
L 84.926303 75.925283 
L 85.467444 77.628978 
L 85.392418 78.150044 
L 85.586276 76.887312 
L 86.993268 76.638055 
L 89.284054 78.724995 
L 89.367307 79.134932 
L 89.706701 79.635181 
L 88.583356 79.851416 
L 86.53957 78.464606 
L 86.335753 77.828217 
L 87.349762 77.679307 
L 86.453829 78.018152 
L 86.601015 78.177843 
L 87.312611 77.678228 
L 88.123191 77.62136 
L 86.783344 74.912347 
L 87.333354 74.232212 
L 88.989568 75.689215 
L 90.05347 76.240993 
L 90.716384 74.602056 
L 91.367692 75.002448 
L 90.64466 73.852764 
L 89.536557 74.452994 
L 88.694442 75.1482 
L 89.758661 76.819711 
L 89.988708 76.82942 
L 90.403545 77.066654 
L 92.972094 79.024566 
L 93.927206 79.151597 
L 94.643146 79.81594 
L 93.674126 78.913366 
L 92.803373 79.943946 
L 91.279906 79.750927 
L 92.588705 80.052759 
L 92.482433 78.735171 
L 92.470372 80.001913 
L 93.186214 83.143359 
L 94.007993 83.135995 
L 94.736746 82.944241 
L 94.926336 82.128854 
L 92.320209 80.710914 
L 92.534596 79.785832 
L 94.026042 77.506084 
L 93.475872 77.606216 
L 95.015502 77.306165 
L 93.608772 78.490053 
L 93.023714 77.814393 
L 93.674466 76.79489 
L 94.114571 75.636124 
L 92.232648 75.808618 
L 91.063548 76.528429 
L 90.390191 75.091407 
L 88.865746 75.419393 
L 89.232088 76.498266 
L 89.233063 76.346285 
L 90.412342 75.916152 
L 92.755834 77.162593 
L 91.957489 76.715915 
L 91.612729 75.996422 
L 91.561168 74.849701 
L 91.691575 76.524002 
L 92.875985 75.769608 
L 94.45322 76.776936 
L 96.050407 79.525723 
L 97.425367 80.720342 
L 98.663694 80.520366 
L 99.418594 80.601268 
L 98.484496 79.761596 
L 98.498502 79.758073 
L 97.234316 79.276706 
L 98.718291 80.12833 
L 96.93038 80.964119 
L 96.948527 78.706278 
L 97.821645 79.114596 
L 97.068554 80.911166 
L 95.865565 81.132017 
L 95.686872 80.746984 
L 94.979324 78.183327 
L 95.933836 79.095742 
L 97.156098 80.448219 
L 97.710086 80.110195 
L 97.949096 76.14747 
L 98.446954 75.327108 
L 98.35789 76.519729 
L 99.626051 75.781531 
L 99.625873 73.567687 
L 99.574669 73.676912 
L 101.313589 74.562128 
L 101.540462 75.045364 
L 101.40067 76.739386 
L 101.19839 77.534024 
L 101.581724 78.063458 
L 101.637013 77.037733 
L 101.755877 78.248322 
L 103.164548 77.849792 
L 102.668478 75.670395 
L 103.846781 74.971154 
L 102.563315 74.929625 
L 100.302598 73.906375 
L 102.173262 72.543134 
L 100.956275 72.171623 
L 101.649779 73.548139 
L 102.799645 73.578703 
L 101.603625 73.371812 
L 101.424749 73.810201 
L 101.107101 73.281487 
L 102.672768 72.673789 
L 103.400866 74.224768 
L 104.889199 71.781528 
L 104.999017 72.950654 
L 103.919032 73.029275 
L 104.157414 74.35722 
L 104.976891 74.834854 
L 105.662564 73.90321 
L 104.283056 73.970929 
L 103.485887 73.626577 
L 102.476459 72.882902 
L 103.87075 73.472861 
L 104.100142 73.064766 
L 103.975859 71.799765 
L 106.311952 72.796796 
L 104.708094 73.805286 
L 104.226578 72.434667 
L 104.94324 71.658551 
L 106.819977 71.770471 
L 104.158111 70.284128 
L 105.517323 70.042784 
L 104.891479 69.371569 
L 102.642509 69.678092 
L 102.860205 68.830225 
L 103.912199 67.015761 
L 103.884845 67.989518 
L 105.04814 65.893949 
L 104.95587 65.882836 
L 103.582562 67.091941 
L 102.32165 68.650266 
L 103.547441 69.043483 
L 100.396015 70.819049 
L 100.471948 68.453168 
L 99.102657 69.716446 
L 99.546806 68.983839 
L 98.180743 68.363887 
L 98.523809 66.91585 
L 98.23878 66.507653 
L 99.049241 64.669547 
L 97.939295 66.090279 
L 100.346684 65.045057 
L 101.301333 67.019944 
L 100.196907 68.678287 
L 98.871898 70.430946 
L 101.150167 71.670534 
L 101.267957 71.318706 
L 102.259659 71.127089 
L 100.489678 69.859648 
L 98.924274 72.307688 
L 99.065922 71.088977 
L 101.445295 71.027981 
L 101.042902 67.176811 
L 98.910961 67.522129 
L 98.546882 66.139793 
L 96.963807 65.482657 
L 96.786821 66.449561 
L 97.76921 66.378608 
L 98.675263 66.94267 
L 98.473582 66.533075 
L 99.448305 65.578356 
L 101.515113 64.993917 
L 100.200097 65.589612 
L 98.916987 64.449268 
L 98.015376 66.082903 
L 96.047235 68.724539 
L 97.606324 66.402279 
L 96.123431 66.960251 
L 97.897638 67.566257 
L 98.958797 67.765759 
L 98.525078 68.248573 
L 96.704339 68.973563 
L 98.002419 69.345231 
L 98.026936 68.938912 
L 96.886494 69.10861 
L 98.359725 69.762811 
L 97.345795 69.040332 
L 96.6985 70.608163 
L 98.227785 71.905692 
L 98.016791 71.713226 
L 99.008956 71.927825 
L 97.943584 73.742722 
L 98.98598 74.352022 
L 97.942263 75.571196 
L 99.126435 74.674805 
L 98.048816 73.076241 
L 99.821179 72.821323 
L 100.071104 71.606432 
L 98.919395 72.240756 
L 100.09061 73.153468 
L 99.668562 72.003266 
L 100.812665 71.954367 
L 100.331472 71.072165 
L 101.232131 72.597674 
L 100.555648 73.189858 
L 99.044315 74.024514 
L 98.780282 74.626015 
L 97.433721 74.235508 
L 98.314938 73.338192 
L 100.316289 75.761828 
L 97.793137 74.921243 
L 96.212542 76.073193 
L 96.921356 75.064516 
L 97.181914 75.259304 
L 97.738038 76.889698 
L 96.842543 77.970381 
L 96.911244 77.89453 
L 97.425639 78.186483 
L 97.764309 78.522273 
L 98.976026 76.497807 
L 98.979772 74.580111 
L 99.113317 76.327241 
L 99.793363 76.224002 
L 99.607803 77.712859 
L 99.863435 77.761665 
L 101.023188 78.825562 
L 101.270879 80.727033 
L 101.800401 80.161681 
L 99.758135 80.910764 
L 99.307748 81.400188 
L 98.332286 79.816879 
L 96.47646 83.11966 
L 95.482813 83.691454 
L 95.097894 84.260293 
L 95.143751 84.932013 
L 95.85302 84.029849 
L 97.383969 83.54702 
L 97.663766 80.701834 
L 98.302558 80.57168 
L 97.478766 78.250164 
L 96.977405 77.753268 
L 95.764801 77.293599 
L 94.732626 77.512773 
L 95.140053 74.133589 
L 93.469192 73.154665 
L 92.455151 76.668653 
L 91.005696 77.170656 
L 91.17834 75.167902 
L 91.95399 74.695885 
L 92.926118 74.644623 
L 93.806125 73.831001 
L 93.116397 75.225827 
L 93.323068 73.988301 
L 92.412857 73.64406 
L 93.716959 75.876676 
L 94.414744 75.249573 
L 93.986058 74.568623 
L 93.64636 73.31151 
L 92.399692 73.664751 
L 91.569254 73.273457 
L 91.619141 73.277543 
L 91.569675 71.841228 
L 90.862513 72.26788 
L 91.295904 71.28694 
L 92.065502 71.676186 
L 92.028627 72.842298 
L 92.523228 73.364524 
L 92.585295 73.150271 
L 93.139032 74.26128 
L 92.90006 73.291189 
L 91.667109 74.023631 
L 93.698227 73.138979 
L 93.581291 72.575995 
L 92.239477 72.956008 
L 92.824845 73.448776 
L 92.265128 70.550003 
L 90.927177 71.709554 
L 91.661346 71.99937 
L 92.713727 74.220868 
L 93.076608 74.080476 
L 93.623313 72.474641 
L 92.943462 72.394121 
L 92.004348 71.296179 
L 93.195421 69.298359 
L 93.478454 69.65944 
L 92.298576 69.676057 
L 91.594081 68.338419 
L 89.835634 68.719974 
L 90.731858 69.380817 
L 92.289984 69.777387 
L 93.810151 69.489585 
L 93.009538 68.71756 
L 94.271147 68.225562 
L 92.526528 67.413683 
L 94.190997 68.210982 
L 94.433579 67.480577 
L 92.890148 66.732276 
L 94.673405 67.119114 
L 94.529956 67.703448 
L 95.119557 67.694936 
L 94.671676 67.014631 
L 96.031929 65.152227 
L 96.088943 64.673955 
L 96.769065 63.598519 
L 97.949929 66.472847 
L 99.211571 65.760432 
L 100.365442 67.507077 
L 100.323819 68.239957 
L 100.982767 67.79784 
L 102.557556 65.65489 
L 101.354193 65.895122 
L 101.156202 67.064649 
L 100.673229 67.597432 
L 101.301664 68.137371 
L 101.551746 67.805486 
L 101.161426 69.440201 
L 101.635977 68.88047 
L 101.455747 69.038175 
L 99.870268 68.66613 
L 101.230288 68.075394 
L 101.683422 65.878728 
L 101.747214 67.944562 
L 100.527882 69.512677 
L 101.626528 69.083885 
L 101.459034 68.548817 
L 101.058615 70.230646 
L 102.776912 67.223992 
L 104.705563 66.704422 
L 103.582715 67.23767 
L 102.649028 66.888087 
L 103.355404 66.256933 
L 102.780904 68.215991 
L 100.842367 67.893466 
L 99.233565 67.032541 
L 99.363484 66.512162 
L 98.354544 65.948228 
L 97.658517 63.215442 
L 99.249775 61.722837 
L 100.525105 61.820668 
L 101.438398 60.496275 
L 100.996658 60.846609 
L 102.53126 60.737798 
L 102.333583 59.010149 
L 103.321701 60.374088 
L 102.446324 63.265857 
L 104.062608 62.972263 
L 103.369448 63.405257 
L 100.079997 64.485956 
L 98.092099 64.137386 
L 99.425924 64.983625 
L 99.982031 62.528949 
L 99.026461 60.842697 
L 96.197355 59.011476 
L 96.388411 58.69754 
L 95.434412 56.91893 
L 95.028064 56.455968 
L 96.296828 55.240552 
L 96.531541 55.387619 
L 95.822447 57.46135 
L 95.328925 56.442501 
L 96.690571 56.296203 
L 96.036809 56.464306 
L 96.106287 55.092858 
L 94.047123 54.564756 
L 94.080478 54.205653 
L 93.401256 55.031355 
L 92.386846 53.225118 
L 91.883892 54.480345 
L 92.595785 53.958981 
L 95.022726 55.881395 
L 95.63078 54.573636 
L 94.894141 53.037686 
L 94.281997 53.529325 
L 94.645078 53.876781 
L 94.574658 54.053833 
L 94.353556 53.380941 
L 92.553299 53.529497 
L 95.213879 54.588744 
L 95.972576 53.800496 
L 94.224929 54.186544 
L 92.375868 53.401674 
L 90.513419 52.350054 
L 90.662892 51.920386 
L 92.257271 52.373174 
L 89.742024 50.979072 
L 88.948329 49.80657 
L 87.192148 49.838187 
L 87.556486 48.704339 
L 86.886964 51.130922 
L 86.217856 49.835756 
L 87.446417 49.880125 
L 85.931894 50.64506 
L 86.435403 51.47928 
L 85.165583 49.065524 
L 85.506899 47.812182 
L 84.988421 48.566391 
L 85.252318 51.475443 
L 84.603403 51.568669 
L 84.682466 50.765844 
L 86.405928 51.197568 
L 87.121048 50.672663 
L 86.772009 51.194424 
L 86.462699 52.262341 
L 87.300686 52.549673 
L 86.538687 52.497468 
L 86.473904 51.8188 
L 87.45627 50.285265 
L 88.255825 50.513382 
L 86.438571 49.926226 
L 87.859848 48.972938 
L 88.353109 46.51957 
L 87.773942 47.979312 
L 87.220377 47.688387 
L 88.347981 47.302561 
L 88.579277 46.946409 
L 89.085081 45.914822 
L 88.770849 46.190775 
L 90.617578 47.049262 
L 90.85513 44.647339 
L 91.141923 42.974616 
L 88.818054 41.587792 
L 88.717938 42.016809 
L 88.836695 40.454924 
L 89.070877 40.610954 
L 89.053518 41.157314 
L 92.040663 42.248643 
L 89.959883 41.803324 
L 92.301077 42.589128 
L 92.496354 42.814107 
L 91.76282 41.67967 
L 92.435973 42.573254 
L 92.214281 43.485377 
L 91.075664 43.688428 
L 90.31487 43.515969 
L 90.538543 42.029255 
L 90.840977 42.141056 
L 91.78461 42.666057 
L 92.136518 42.090443 
L 92.910121 42.615654 
L 92.75312 42.864594 
L 93.040982 42.255767 
L 92.917633 41.178946 
L 93.641982 40.960719 
L 93.041793 42.750252 
L 94.779588 43.363182 
L 94.313059 43.015128 
L 94.261473 41.095283 
L 94.013573 39.81734 
L 94.051969 41.365489 
L 93.471154 41.039465 
L 93.234743 41.256671 
L 91.836357 41.989974 
L 92.178799 43.683368 
L 92.561402 44.031717 
L 93.530287 43.544964 
L 95.687488 43.807821 
L 96.638561 44.371058 
L 97.475671 45.147744 
L 98.191653 47.225303 
L 98.353643 46.937356 
L 100.903576 46.632731 
L 101.576437 45.939811 
L 101.450935 42.822425 
L 101.266458 42.334341 
L 100.341278 42.942306 
L 99.790398 40.962711 
L 100.436419 41.80501 
L 98.168525 40.914306 
L 97.412996 42.493314 
L 94.73506 43.250548 
L 95.430488 41.598008 
L 94.140528 40.731703 
L 94.373266 40.817657 
L 93.963983 40.945142 
L 93.680483 41.85115 
L 92.571263 42.339868 
L 94.10812 41.517578 
L 94.69624 42.04514 
L 94.380523 42.552833 
L 94.061838 43.660367 
L 95.083421 43.207237 
L 93.762392 44.026073 
L 93.816836 44.237462 
L 94.431201 43.492478 
L 94.745588 42.02829 
L 94.744789 43.821081 
L 93.832948 43.990486 
L 94.538122 44.078892 
L 95.22786 40.099014 
L 94.518782 39.676598 
L 96.53989 40.914437 
L 94.625114 40.505094 
L 95.418461 39.282142 
L 96.398883 38.803953 
L 96.335428 38.911306 
L 96.92635 37.487243 
L 98.05711 38.311243 
L 97.810094 38.97479 
L 97.512342 38.361763 
L 97.711203 37.465006 
L 98.09666 36.811125 
L 97.798662 35.738757 
L 98.631181 35.020279 
L 98.600149 34.535281 
L 99.775942 32.636265 
L 102.262437 33.390407 
L 102.072693 33.015273 
L 98.920104 34.357794 
L 97.347616 34.041547 
L 96.59422 35.577115 
L 97.935311 34.456908 
L 97.092426 32.71527 
L 97.372172 33.897009 
L 95.242345 33.003299 
L 94.596397 31.208927 
L 95.852553 31.439788 
L 94.349887 33.384829 
L 94.782531 31.548217 
L 95.425264 32.731066 
L 95.35148 31.527418 
L 95.928265 31.206096 
L 95.464237 31.644809 
L 94.581414 30.726069 
L 94.118397 31.592469 
L 94.624851 33.269218 
L 94.568665 35.156617 
L 92.722029 34.161689 
L 93.562227 33.000473 
L 92.824539 33.888689 
L 93.134272 34.852798 
L 92.949956 36.263354 
L 89.60121 36.345008 
L 90.063049 35.044467 
L 89.026281 33.772025 
L 89.825852 33.093342 
L 89.025511 30.669446 
L 90.249539 30.970239 
L 90.551349 31.858083 
L 90.205884 33.568571 
L 90.156372 33.38468 
L 90.984507 33.963 
L 92.02599 35.403477 
L 92.722467 34.793328 
L 92.301914 37.454423 
L 91.316624 39.09934 
L 90.798118 37.910467 
L 90.668121 36.538873 
L 89.958342 38.091797 
L 88.905712 39.007596 
L 87.59709 39.352788 
L 85.429187 38.204299 
L 83.042208 42.110517 
L 84.442487 38.359699 
L 84.568308 36.485112 
L 84.856252 35.505501 
L 83.832749 34.648815 
L 84.946747 35.029665 
L 86.077834 33.581997 
L 85.121219 34.707459 
L 85.13033 33.588355 
L 84.072974 33.926087 
L 85.280281 34.325688 
L 85.90236 34.920823 
L 85.364189 34.489657 
L 84.921283 33.677909 
L 86.085595 33.215924 
L 86.2146 33.361792 
L 86.798766 33.465541 
L 87.697599 32.728074 
L 86.789695 33.491097 
L 85.91368 31.140691 
L 86.569426 32.555233 
L 87.472561 31.929784 
L 89.724718 33.377779 
L 89.30181 34.262755 
L 87.450535 36.968807 
L 87.166814 36.349567 
L 85.831865 36.130896 
L 83.757674 37.479193 
L 83.757674 37.479193 
" clip-path="url(#p7d81d1e9e7)" style="fill: none; stroke: #1f77b4; stroke-width: 0.8; stroke-linecap: square"/>
   </g>
   <g id="line2d_2">
    <path d="M 19.791875 98.00432 
L 91.04152 98.00432 
" clip-path="url(#p7d81d1e9e7)" style="fill: none; stroke: #000000; stroke-width: 1.5; stroke-linecap: square"/>
   </g>
   <g id="line2d_3">
    <path d="M 19.791875 26.754675 
L 91.04152 26.754675 
" clip-path="url(#p7d81d1e9e7)" style="fill: none; stroke: #000000; stroke-width: 1.5; stroke-linecap: square"/>
   </g>
   <g id="line2d_4">
    <path d="M 19.791875 98.00432 
L 19.791875 26.754675 
" clip-path="url(#p7d81d1e9e7)" style="fill: none; stroke: #000000; stroke-width: 1.5; stroke-linecap: square"/>
   </g>
   <g id="line2d_5">
    <path d="M 91.04152 98.00432 
L 91.04152 26.754675 
" clip-path="url(#p7d81d1e9e7)" style="fill: none; stroke: #000000; stroke-width: 1.5; stroke-linecap: square"/>
   </g>
  </g>
 </g>
 <defs>
  <clipPath id="p7d81d1e9e7">
   <rect x="15.44047" y="23.192193" width="95.730912" height="78.37461"/>
  </clipPath>
 </defs>
</svg>
