<?xml version="1.0" encoding="utf-8" standalone="no"?>
<!DOCTYPE svg PUBLIC "-//W3C//DTD SVG 1.1//EN"
  "http://www.w3.org/Graphics/SVG/1.1/DTD/svg11.dtd">
<svg xmlns:xlink="http://www.w3.org/1999/xlink" width="123.523758pt" height="53.31015pt" viewBox="0 0 123.523758 53.31015" xmlns="http://www.w3.org/2000/svg" version="1.1">
 <metadata>
  <rdf:RDF xmlns:dc="http://purl.org/dc/elements/1.1/" xmlns:cc="http://creativecommons.org/ns#" xmlns:rdf="http://www.w3.org/1999/02/22-rdf-syntax-ns#">
   <cc:Work>
    <dc:type rdf:resource="http://purl.org/dc/dcmitype/StillImage"/>
    <dc:date>2025-02-25T19:03:52.762811</dc:date>
    <dc:format>image/svg+xml</dc:format>
    <dc:creator>
     <cc:Agent>
      <dc:title>Matplotlib v3.9.2, https://matplotlib.org/</dc:title>
     </cc:Agent>
    </dc:creator>
   </cc:Work>
  </rdf:RDF>
 </metadata>
 <defs>
  <style type="text/css">*{stroke-linejoin: round; stroke-linecap: butt}</style>
 </defs>
 <g id="figure_1">
  <g id="patch_1">
   <path d="M 0 53.31015 
L 123.523758 53.31015 
L 123.523758 0 
L 0 0 
L 0 53.31015 
z
" style="fill: none"/>
  </g>
  <g id="axes_1">
   <g id="line2d_1">
    <path d="M 19.791875 24.256118 
L 20.670947 24.471513 
L 21.55002 24.686908 
L 22.429088 24.902301 
L 23.30816 25.117696 
L 24.187233 25.333091 
L 25.066305 25.548486 
L 25.945378 25.76388 
L 26.824451 25.979275 
L 27.703518 26.194669 
L 28.582591 26.410063 
L 29.461663 26.625458 
L 30.340736 26.840853 
L 31.219809 27.056248 
L 32.098881 27.271642 
L 32.977949 27.487036 
L 33.857021 27.702431 
L 34.736094 27.917825 
L 35.615167 28.13322 
L 36.494239 28.348615 
L 37.373312 28.56401 
L 38.252379 28.779403 
L 39.131452 28.994798 
L 40.010525 29.210193 
L 40.889597 29.425587 
L 41.768669 29.640982 
L 42.647741 29.856377 
L 43.526811 30.07177 
L 44.405883 30.287165 
L 45.284955 30.50256 
L 46.164028 30.717955 
L 47.043099 30.93335 
L 47.922169 31.148743 
L 48.801242 31.364138 
L 49.680313 31.579533 
L 50.559386 31.794927 
L 51.438458 32.010322 
L 52.31753 32.225717 
L 53.1966 32.44111 
L 54.075672 32.656505 
L 54.954744 32.8719 
L 55.833816 33.087295 
L 56.712889 33.302689 
L 57.59196 33.518084 
L 58.47103 33.733478 
L 59.350103 33.948872 
L 60.229174 34.164267 
L 61.108247 34.379662 
L 61.98732 34.595057 
L 62.866391 34.810451 
L 63.745461 35.025845 
L 64.624532 35.24124 
L 65.503605 35.456635 
L 66.382678 35.672029 
L 67.261749 35.887424 
L 68.140822 36.102819 
L 69.019892 36.318212 
L 69.898963 36.533607 
L 70.778036 36.749002 
L 71.657108 36.964397 
L 72.536179 37.179791 
L 73.415252 37.395186 
L 74.294322 37.61058 
L 75.173393 37.825974 
L 76.052466 38.041369 
L 76.931539 38.256764 
L 77.81061 38.472159 
L 78.68968 38.687552 
L 79.568753 38.902947 
L 80.447824 39.118342 
L 81.326897 39.333736 
L 82.205969 39.549131 
L 83.085041 39.764526 
L 83.964111 39.979919 
L 84.843183 40.195314 
L 85.722255 40.410709 
L 86.601327 40.626104 
L 87.4804 40.841499 
L 88.359473 41.056893 
L 89.23854 41.272287 
L 90.117613 41.487682 
L 90.996685 41.703076 
L 91.875758 41.918471 
L 92.754831 42.133866 
L 93.633903 42.349261 
L 94.512971 42.564654 
L 95.392043 42.780049 
L 96.271116 42.995444 
L 97.150189 43.210838 
L 98.029261 43.426233 
L 98.908334 43.641628 
L 99.787401 43.857021 
L 100.666474 44.072416 
L 101.545546 44.287811 
L 102.424619 44.503206 
L 103.303692 44.7186 
L 104.182764 44.933995 
L 105.061832 45.149389 
L 105.940904 45.364783 
L 106.819977 45.580178 
" clip-path="url(#p04ddd789e5)" style="fill: none; stroke: #1f77b4; stroke-width: 1.5; stroke-linecap: square"/>
   </g>
   <g id="line2d_2">
    <path d="M 19.791875 45.580178 
L 20.670947 45.364783 
L 21.55002 45.149389 
L 22.429088 44.933995 
L 23.30816 44.7186 
L 24.187233 44.503206 
L 25.066305 44.287811 
L 25.945378 44.072416 
L 26.824451 43.857021 
L 27.703518 43.641628 
L 28.582591 43.426233 
L 29.461663 43.210838 
L 30.340736 42.995444 
L 31.219809 42.780049 
L 32.098881 42.564654 
L 32.977949 42.349261 
L 33.857021 42.133866 
L 34.736094 41.918471 
L 35.615167 41.703076 
L 36.494239 41.487682 
L 37.373312 41.272287 
L 38.252379 41.056893 
L 39.131452 40.841499 
L 40.010525 40.626104 
L 40.889597 40.410709 
L 41.768669 40.195314 
L 42.647741 39.979919 
L 43.526811 39.764526 
L 44.405883 39.549131 
L 45.284955 39.333736 
L 46.164028 39.118342 
L 47.043099 38.902947 
L 47.922169 38.687553 
L 48.801242 38.472159 
L 49.680313 38.256764 
L 50.559386 38.041369 
L 51.438458 37.825974 
L 52.31753 37.61058 
L 53.1966 37.395186 
L 54.075672 37.179791 
L 54.954744 36.964397 
L 55.833816 36.749002 
L 56.712889 36.533607 
L 57.59196 36.318212 
L 58.47103 36.102819 
L 59.350103 35.887424 
L 60.229174 35.672029 
L 61.108247 35.456635 
L 61.98732 35.24124 
L 62.866391 35.025845 
L 63.745461 34.810451 
L 64.624532 34.595057 
L 65.503605 34.379662 
L 66.382678 34.164267 
L 67.261749 33.948872 
L 68.140822 33.733478 
L 69.019892 33.518084 
L 69.898963 33.302689 
L 70.778036 33.087295 
L 71.657108 32.8719 
L 72.536179 32.656505 
L 73.415252 32.44111 
L 74.294322 32.225717 
L 75.173393 32.010322 
L 76.052466 31.794927 
L 76.931539 31.579533 
L 77.81061 31.364138 
L 78.68968 31.148744 
L 79.568753 30.93335 
L 80.447824 30.717955 
L 81.326897 30.50256 
L 82.205969 30.287165 
L 83.085041 30.07177 
L 83.964111 29.856377 
L 84.843183 29.640982 
L 85.722255 29.425587 
L 86.601327 29.210193 
L 87.4804 28.994798 
L 88.359473 28.779403 
L 89.23854 28.56401 
L 90.117613 28.348615 
L 90.996685 28.13322 
L 91.875758 27.917825 
L 92.754831 27.702431 
L 93.633903 27.487036 
L 94.512971 27.271642 
L 95.392043 27.056248 
L 96.271116 26.840853 
L 97.150189 26.625458 
L 98.029261 26.410063 
L 98.908334 26.194669 
L 99.787401 25.979275 
L 100.666474 25.76388 
L 101.545546 25.548486 
L 102.424619 25.333091 
L 103.303692 25.117696 
L 104.182764 24.902301 
L 105.061832 24.686908 
L 105.940904 24.471513 
L 106.819977 24.256118 
" clip-path="url(#p04ddd789e5)" style="fill: none; stroke: #ff7f0e; stroke-width: 1.5; stroke-linecap: square"/>
   </g>
   <g id="line2d_3">
    <path d="M 19.791875 45.580178 
L 19.791875 8.263073 
" clip-path="url(#p04ddd789e5)" style="fill: none; stroke: #000000; stroke-width: 1.5; stroke-linecap: square"/>
   </g>
   <g id="line2d_4">
    <path d="M 106.819977 45.580178 
L 106.819977 8.263073 
" clip-path="url(#p04ddd789e5)" style="fill: none; stroke: #000000; stroke-width: 1.5; stroke-linecap: square"/>
   </g>
   <g id="line2d_5">
    <path d="M 106.819977 45.580178 
L 19.791875 45.580178 
" clip-path="url(#p04ddd789e5)" style="fill: none; stroke: #000000; stroke-width: 1.5; stroke-linecap: square"/>
   </g>
  </g>
 </g>
 <defs>
  <clipPath id="p04ddd789e5">
   <rect x="15.44047" y="6.397218" width="95.730912" height="41.048815"/>
  </clipPath>
 </defs>
</svg>
