<?xml version="1.0" encoding="utf-8" standalone="no"?>
<!DOCTYPE svg PUBLIC "-//W3C//DTD SVG 1.1//EN"
  "http://www.w3.org/Graphics/SVG/1.1/DTD/svg11.dtd">
<svg xmlns:xlink="http://www.w3.org/1999/xlink" width="123.523758pt" height="53.31015pt" viewBox="0 0 123.523758 53.31015" xmlns="http://www.w3.org/2000/svg" version="1.1">
 <metadata>
  <rdf:RDF xmlns:dc="http://purl.org/dc/elements/1.1/" xmlns:cc="http://creativecommons.org/ns#" xmlns:rdf="http://www.w3.org/1999/02/22-rdf-syntax-ns#">
   <cc:Work>
    <dc:type rdf:resource="http://purl.org/dc/dcmitype/StillImage"/>
    <dc:date>2025-02-25T19:03:33.777827</dc:date>
    <dc:format>image/svg+xml</dc:format>
    <dc:creator>
     <cc:Agent>
      <dc:title>Matplotlib v3.9.2, https://matplotlib.org/</dc:title>
     </cc:Agent>
    </dc:creator>
   </cc:Work>
  </rdf:RDF>
 </metadata>
 <defs>
  <style type="text/css">*{stroke-linejoin: round; stroke-linecap: butt}</style>
 </defs>
 <g id="figure_1">
  <g id="patch_1">
   <path d="M 0 53.31015 
L 123.523758 53.31015 
L 123.523758 0 
L 0 0 
L 0 53.31015 
z
" style="fill: none"/>
  </g>
  <g id="axes_1">
   <g id="line2d_1">
    <path d="M 20.670947 11.259352 
L 21.55002 18.540352 
L 22.429088 22.752922 
L 23.30816 25.708557 
L 24.187233 27.974899 
L 25.066305 29.804783 
L 25.945378 31.333078 
L 26.824451 32.640269 
L 27.703518 33.778255 
L 28.582591 34.782484 
L 29.461663 35.67821 
L 30.340736 36.484075 
L 31.219809 37.214231 
L 32.098881 37.87967 
L 32.977949 38.489091 
L 33.857021 39.049514 
L 34.736094 39.566657 
L 35.615167 40.045258 
L 36.494239 40.489276 
L 37.373312 40.902051 
L 38.252379 41.286427 
L 39.131452 41.64485 
L 40.010525 41.979421 
L 40.889597 42.291972 
L 41.768669 42.584102 
L 42.647741 42.85721 
L 43.526811 43.112532 
L 44.405883 43.351164 
L 45.284955 43.574072 
L 46.164028 43.782118 
L 47.043099 43.976072 
L 47.922169 44.156617 
L 48.801242 44.324372 
L 49.680313 44.479883 
L 50.559386 44.623643 
L 51.438458 44.756092 
L 52.31753 44.877625 
L 53.1966 44.988592 
L 54.075672 45.089307 
L 54.954744 45.180049 
L 55.833816 45.261061 
L 56.712889 45.332558 
L 57.59196 45.394728 
L 58.47103 45.447729 
L 59.350103 45.491696 
L 60.229174 45.52674 
L 61.108247 45.552947 
L 61.98732 45.570383 
L 62.866391 45.57909 
L 63.745461 45.57909 
L 64.624532 45.570383 
L 65.503605 45.552947 
L 66.382678 45.52674 
L 67.261749 45.491696 
L 68.140822 45.447729 
L 69.019892 45.394728 
L 69.898963 45.332558 
L 70.778036 45.261061 
L 71.657108 45.180049 
L 72.536179 45.089307 
L 73.415252 44.988592 
L 74.294322 44.877625 
L 75.173393 44.756092 
L 76.052466 44.623643 
L 76.931539 44.479883 
L 77.81061 44.324372 
L 78.68968 44.156619 
L 79.568753 43.976072 
L 80.447824 43.782118 
L 81.326897 43.574072 
L 82.205969 43.351164 
L 83.085041 43.112532 
L 83.964111 42.85721 
L 84.843183 42.584102 
L 85.722255 42.291972 
L 86.601327 41.979421 
L 87.4804 41.64485 
L 88.359473 41.286427 
L 89.23854 40.902051 
L 90.117613 40.489276 
L 90.996685 40.045258 
L 91.875758 39.566657 
L 92.754831 39.049514 
L 93.633903 38.489091 
L 94.512971 37.87967 
L 95.392043 37.214231 
L 96.271116 36.484075 
L 97.150189 35.67821 
L 98.029261 34.782484 
L 98.908334 33.778255 
L 99.787401 32.640269 
L 100.666474 31.333078 
L 101.545546 29.804783 
L 102.424619 27.974899 
L 103.303692 25.708557 
L 104.182764 22.752922 
L 105.061832 18.540352 
L 105.940904 11.259352 
" clip-path="url(#p43b0f9c43c)" style="fill: none; stroke: #1f77b4; stroke-width: 1.5; stroke-linecap: square"/>
   </g>
   <g id="line2d_2">
    <path d="M 19.791875 45.580178 
L 19.791875 8.263073 
" clip-path="url(#p43b0f9c43c)" style="fill: none; stroke: #000000; stroke-width: 1.5; stroke-linecap: square"/>
   </g>
   <g id="line2d_3">
    <path d="M 106.819977 45.580178 
L 106.819977 8.263073 
" clip-path="url(#p43b0f9c43c)" style="fill: none; stroke: #000000; stroke-width: 1.5; stroke-linecap: square"/>
   </g>
   <g id="line2d_4">
    <path d="M 106.819977 45.580178 
L 19.791875 45.580178 
" clip-path="url(#p43b0f9c43c)" style="fill: none; stroke: #000000; stroke-width: 1.5; stroke-linecap: square"/>
   </g>
  </g>
 </g>
 <defs>
  <clipPath id="p43b0f9c43c">
   <rect x="15.44047" y="6.397218" width="95.730912" height="41.048815"/>
  </clipPath>
 </defs>
</svg>
