<?xml version="1.0" encoding="utf-8" standalone="no"?>
<!DOCTYPE svg PUBLIC "-//W3C//DTD SVG 1.1//EN"
  "http://www.w3.org/Graphics/SVG/1.1/DTD/svg11.dtd">
<svg xmlns:xlink="http://www.w3.org/1999/xlink" width="123.523758pt" height="53.31015pt" viewBox="0 0 123.523758 53.31015" xmlns="http://www.w3.org/2000/svg" version="1.1">
 <metadata>
  <rdf:RDF xmlns:dc="http://purl.org/dc/elements/1.1/" xmlns:cc="http://creativecommons.org/ns#" xmlns:rdf="http://www.w3.org/1999/02/22-rdf-syntax-ns#">
   <cc:Work>
    <dc:type rdf:resource="http://purl.org/dc/dcmitype/StillImage"/>
    <dc:date>2025-02-25T19:11:21.884611</dc:date>
    <dc:format>image/svg+xml</dc:format>
    <dc:creator>
     <cc:Agent>
      <dc:title>Matplotlib v3.9.2, https://matplotlib.org/</dc:title>
     </cc:Agent>
    </dc:creator>
   </cc:Work>
  </rdf:RDF>
 </metadata>
 <defs>
  <style type="text/css">*{stroke-linejoin: round; stroke-linecap: butt}</style>
 </defs>
 <g id="figure_1">
  <g id="patch_1">
   <path d="M 0 53.31015 
L 123.523758 53.31015 
L 123.523758 0 
L 0 0 
L 0 53.31015 
z
" style="fill: none"/>
  </g>
  <g id="axes_1">
   <g id="line2d_1">
    <path d="M 19.791875 45.580178 
L 20.670947 45.558423 
L 21.55002 45.493187 
L 22.429088 45.384556 
L 23.30816 45.232682 
L 24.187233 45.037787 
L 25.066305 44.800172 
L 25.945378 44.52022 
L 26.824451 44.198407 
L 27.703518 43.835309 
L 28.582591 43.431601 
L 29.461663 42.98808 
L 30.340736 42.505659 
L 31.219809 41.985382 
L 32.098881 41.428429 
L 32.977949 40.836126 
L 33.857021 40.209942 
L 34.736094 39.551513 
L 35.615167 38.862633 
L 36.494239 38.145267 
L 37.373312 37.401553 
L 38.252379 36.633811 
L 39.131452 35.844527 
L 40.010525 35.036376 
L 40.889597 34.21221 
L 41.768669 33.37506 
L 42.647741 32.528121 
L 43.526811 31.674759 
L 44.405883 30.81848 
L 45.284955 29.962947 
L 46.164028 29.111944 
L 47.043099 28.269361 
L 47.922169 27.439187 
L 48.801242 26.625459 
L 49.680313 25.832273 
L 50.559386 25.063724 
L 51.438458 24.323898 
L 52.31753 23.616825 
L 53.1966 22.946455 
L 54.075672 22.316604 
L 54.954744 21.730952 
L 55.833816 21.192972 
L 56.712889 20.705921 
L 57.59196 20.27279 
L 58.47103 19.896278 
L 59.350103 19.578749 
L 60.229174 19.322236 
L 61.108247 19.128384 
L 61.98732 18.998442 
L 62.866391 18.93326 
L 63.745461 18.93326 
L 64.624532 18.998442 
L 65.503605 19.128384 
L 66.382678 19.322236 
L 67.261749 19.578749 
L 68.140822 19.896278 
L 69.019892 20.27279 
L 69.898963 20.705921 
L 70.778036 21.192972 
L 71.657108 21.730952 
L 72.536179 22.316604 
L 73.415252 22.946455 
L 74.294322 23.616825 
L 75.173393 24.323898 
L 76.052466 25.063724 
L 76.931539 25.832273 
L 77.81061 26.625459 
L 78.68968 27.439181 
L 79.568753 28.269361 
L 80.447824 29.111944 
L 81.326897 29.962947 
L 82.205969 30.81848 
L 83.085041 31.674759 
L 83.964111 32.528121 
L 84.843183 33.37506 
L 85.722255 34.21221 
L 86.601327 35.036376 
L 87.4804 35.844527 
L 88.359473 36.633811 
L 89.23854 37.401553 
L 90.117613 38.145267 
L 90.996685 38.862633 
L 91.875758 39.551513 
L 92.754831 40.209942 
L 93.633903 40.836126 
L 94.512971 41.428429 
L 95.392043 41.985382 
L 96.271116 42.505659 
L 97.150189 42.98808 
L 98.029261 43.431601 
L 98.908334 43.835309 
L 99.787401 44.198407 
L 100.666474 44.52022 
L 101.545546 44.800172 
L 102.424619 45.037787 
L 103.303692 45.232682 
L 104.182764 45.384556 
L 105.061832 45.493187 
L 105.940904 45.558423 
L 106.819977 45.580178 
" clip-path="url(#p3d2fe698a7)" style="fill: none; stroke: #1f77b4; stroke-width: 1.5; stroke-linecap: square"/>
   </g>
   <g id="line2d_2">
    <path d="M 19.791875 45.580178 
L 19.791875 8.263073 
" clip-path="url(#p3d2fe698a7)" style="fill: none; stroke: #000000; stroke-width: 1.5; stroke-linecap: square"/>
   </g>
   <g id="line2d_3">
    <path d="M 106.819977 45.580178 
L 106.819977 8.263073 
" clip-path="url(#p3d2fe698a7)" style="fill: none; stroke: #000000; stroke-width: 1.5; stroke-linecap: square"/>
   </g>
   <g id="line2d_4">
    <path d="M 106.819977 45.580178 
L 19.791875 45.580178 
" clip-path="url(#p3d2fe698a7)" style="fill: none; stroke: #000000; stroke-width: 1.5; stroke-linecap: square"/>
   </g>
  </g>
 </g>
 <defs>
  <clipPath id="p3d2fe698a7">
   <rect x="15.44047" y="6.397218" width="95.730912" height="41.048815"/>
  </clipPath>
 </defs>
</svg>
