<?xml version="1.0" encoding="utf-8" standalone="no"?>
<!DOCTYPE svg PUBLIC "-//W3C//DTD SVG 1.1//EN"
  "http://www.w3.org/Graphics/SVG/1.1/DTD/svg11.dtd">
<svg xmlns:xlink="http://www.w3.org/1999/xlink" width="290.375758pt" height="162.899479pt" viewBox="0 0 290.375758 162.899479" xmlns="http://www.w3.org/2000/svg" version="1.1">
 <metadata>
  <rdf:RDF xmlns:dc="http://purl.org/dc/elements/1.1/" xmlns:cc="http://creativecommons.org/ns#" xmlns:rdf="http://www.w3.org/1999/02/22-rdf-syntax-ns#">
   <cc:Work>
    <dc:type rdf:resource="http://purl.org/dc/dcmitype/StillImage"/>
    <dc:date>2025-02-26T20:38:26.637583</dc:date>
    <dc:format>image/svg+xml</dc:format>
    <dc:creator>
     <cc:Agent>
      <dc:title>Matplotlib v3.9.2, https://matplotlib.org/</dc:title>
     </cc:Agent>
    </dc:creator>
   </cc:Work>
  </rdf:RDF>
 </metadata>
 <defs>
  <style type="text/css">*{stroke-linejoin: round; stroke-linecap: butt}</style>
 </defs>
 <g id="figure_1">
  <g id="patch_1">
   <path d="M 0 162.899479 
L 290.375758 162.899479 
L 290.375758 0 
L 0 0 
L 0 162.899479 
z
" style="fill: none"/>
  </g>
  <g id="axes_1">
   <g id="line2d_1">
    <path d="M 82.944543 81.44974 
L 84.473596 76.815892 
L 85.962498 79.600021 
L 85.812911 78.915959 
L 86.241594 80.994288 
L 91.181175 80.815581 
L 88.756791 83.217453 
L 86.900513 83.42003 
L 89.05722 83.508053 
L 86.89097 84.728317 
L 84.634632 80.274215 
L 86.812645 76.125247 
L 85.363557 77.291522 
L 90.355004 76.791621 
L 86.4516 75.576798 
L 87.299736 74.324797 
L 90.255193 77.722115 
L 92.067695 75.156958 
L 85.436122 74.53331 
L 89.771145 74.085928 
L 90.791018 75.342712 
L 93.035283 74.237531 
L 90.497805 73.638759 
L 92.726573 70.854718 
L 91.926485 72.4318 
L 89.54925 75.694785 
L 89.331346 75.741456 
L 88.232295 78.030586 
L 85.540527 74.849775 
L 91.503551 74.746684 
L 91.687908 78.195481 
L 92.471863 76.255234 
L 94.765164 75.7967 
L 91.590644 74.254579 
L 93.220183 74.584914 
L 93.334783 71.182461 
L 100.011281 69.973817 
L 98.769954 71.591478 
L 100.502163 72.842021 
L 100.867954 74.054896 
L 99.634352 75.173126 
L 99.877255 74.585464 
L 97.925348 77.97938 
L 100.339674 74.700341 
L 100.006479 78.630696 
L 100.918038 78.28865 
L 103.388595 78.059665 
L 106.284948 81.372151 
L 106.350228 81.172725 
L 107.152337 80.85324 
L 110.285269 82.203463 
L 108.534292 84.061426 
L 109.365049 80.049355 
L 112.782279 83.712457 
L 113.310856 86.333901 
L 115.27072 85.57196 
L 118.698688 83.697529 
L 118.335625 84.215253 
L 119.478009 86.264055 
L 114.689858 85.495956 
L 118.422738 84.276057 
L 119.065548 87.415792 
L 115.025906 88.166844 
L 112.411606 87.725375 
L 113.905077 87.595302 
L 115.297201 90.50473 
L 116.00605 88.734164 
L 114.343366 89.94334 
L 113.67623 89.528003 
L 112.322372 89.93353 
L 112.799438 88.722129 
L 109.303205 91.289563 
L 109.477487 92.574673 
L 108.55325 94.034312 
L 112.177173 94.802295 
L 111.745089 98.136354 
L 108.603604 97.700234 
L 105.687931 100.486886 
L 109.821414 99.496348 
L 114.992935 102.187509 
L 119.412099 101.818411 
L 117.299996 100.677864 
L 115.390532 100.262768 
L 114.199364 99.495887 
L 112.896499 97.031669 
L 113.088156 97.285957 
L 114.038516 97.279736 
L 108.908461 98.423241 
L 107.520133 100.806346 
L 105.46985 102.370768 
L 105.395328 102.73335 
L 102.33709 103.404794 
L 106.539577 104.517236 
L 107.268975 100.721978 
L 106.04792 98.861513 
L 103.321975 99.42102 
L 103.138324 103.267406 
L 101.822486 102.54685 
L 97.123471 103.627546 
L 95.073249 102.222352 
L 96.016315 105.130769 
L 95.75061 107.441515 
L 96.426772 110.488213 
L 92.907645 107.830659 
L 90.693249 109.773001 
L 91.566623 108.969862 
L 89.6062 106.83313 
L 90.47104 105.36848 
L 90.09501 106.770491 
L 90.48534 107.501223 
L 89.562673 105.250243 
L 92.375396 108.528929 
L 94.084956 112.477407 
L 94.371959 113.550606 
L 93.216271 117.26936 
L 94.450877 120.445537 
L 96.229933 118.888657 
L 96.957385 116.3156 
L 95.368804 113.59111 
L 93.743948 113.572058 
L 94.309861 115.909525 
L 94.958999 114.663018 
L 97.07597 114.994073 
L 98.150532 115.331867 
L 97.716135 115.888245 
L 98.686377 116.294755 
L 98.840384 114.776624 
L 101.753237 113.008895 
L 96.592851 114.323926 
L 96.096941 112.644068 
L 97.076865 114.222654 
L 97.960011 112.780675 
L 99.23221 113.363818 
L 97.918594 110.888861 
L 97.667202 113.313523 
L 97.893015 113.253149 
L 94.301308 115.427907 
L 95.373572 118.748666 
L 97.307554 115.9523 
L 96.846687 114.211891 
L 95.185461 109.243734 
L 90.527239 108.640996 
L 90.366626 107.441801 
L 89.132407 108.218565 
L 88.214789 110.048259 
L 86.791415 109.55488 
L 90.062911 107.808225 
L 85.306571 107.919278 
L 82.721339 109.966196 
L 82.748244 109.454458 
L 88.218848 109.940813 
L 88.401728 109.747019 
L 88.150532 111.524337 
L 86.796324 113.484779 
L 87.813936 117.839968 
L 89.567508 118.828927 
L 89.915282 118.46998 
L 90.056147 117.150628 
L 90.661822 118.452889 
L 89.923709 118.094498 
L 91.375737 120.69439 
L 87.956469 122.424244 
L 89.05224 123.149826 
L 88.190558 122.758588 
L 88.513345 125.742215 
L 90.205542 128.275984 
L 88.09139 127.708003 
L 90.281474 127.768107 
L 91.174784 126.928481 
L 91.132086 131.264443 
L 90.491259 137.217288 
L 91.324023 140.073622 
L 90.035828 139.80744 
L 93.286 140.649577 
L 92.590774 138.341306 
L 91.254008 138.124172 
L 92.187645 138.19429 
L 92.896013 135.355342 
L 93.028732 131.848421 
L 93.34051 135.545298 
L 97.294585 136.089477 
L 93.528012 137.166498 
L 93.929395 136.961869 
L 90.040621 137.568245 
L 92.563945 132.609536 
L 92.541463 131.399891 
L 94.143696 133.821543 
L 95.232872 136.79201 
L 96.06202 134.241153 
L 94.977104 132.774524 
L 94.16933 131.210748 
L 94.274675 133.199956 
L 98.208227 129.742565 
L 99.904597 130.251919 
L 103.022036 130.642541 
L 104.665106 132.523844 
L 104.621163 134.646223 
L 107.240802 127.937906 
L 103.649983 126.137182 
L 103.125288 122.025821 
L 102.451854 122.085945 
L 103.495019 122.006268 
L 102.754851 120.401917 
L 104.349576 118.933963 
L 104.863167 116.130669 
L 105.681731 115.474401 
L 107.795595 119.263814 
L 106.4175 119.297127 
L 106.82196 120.153643 
L 103.606248 119.193325 
L 98.974628 119.432499 
L 99.390589 117.280512 
L 97.680454 120.252455 
L 96.037669 120.82392 
L 92.981636 123.05138 
L 92.385995 121.717117 
L 90.021929 119.85091 
L 94.753532 118.29273 
L 96.235399 119.562005 
L 96.155292 121.235391 
L 93.549325 116.699656 
L 94.219769 114.836756 
L 91.520843 112.228773 
L 92.040581 110.212921 
L 93.76162 109.42325 
L 95.738988 107.793258 
L 97.067947 106.900098 
L 95.072452 107.415543 
L 96.810301 107.46264 
L 96.260768 107.06285 
L 97.800742 104.347019 
L 96.403431 104.291759 
L 96.818592 105.41447 
L 93.999634 105.740943 
L 94.014153 103.03314 
L 91.163414 104.125969 
L 92.312477 104.542847 
L 92.6002 104.906247 
L 95.265974 106.21812 
L 96.591283 105.872469 
L 98.07896 105.872175 
L 102.898366 103.701333 
L 100.650903 103.184716 
L 101.265971 101.582708 
L 100.917905 103.402694 
L 101.020916 102.414582 
L 100.163106 101.249285 
L 103.953028 100.932201 
L 107.589606 98.00424 
L 106.508873 97.565825 
L 108.779933 97.233034 
L 108.21682 96.440002 
L 109.541922 93.460248 
L 111.089651 92.439002 
L 110.864429 91.735239 
L 105.337037 93.362747 
L 102.026016 92.509581 
L 102.760793 90.341544 
L 101.99938 92.673966 
L 98.003703 92.972401 
L 97.783111 94.594706 
L 98.157646 95.215559 
L 98.768778 94.400786 
L 99.336831 94.025287 
L 98.803851 90.22008 
L 100.174647 90.622929 
L 99.133973 92.384873 
L 96.280331 96.036818 
L 100.085557 96.954394 
L 96.62109 99.306122 
L 98.36875 98.529302 
L 98.65175 98.913798 
L 100.102127 100.477775 
L 100.420802 102.576431 
L 100.118759 107.790633 
L 102.072413 108.640738 
L 101.674 110.994489 
L 106.195559 108.868489 
L 106.067475 110.522025 
L 105.689359 113.65808 
L 102.621953 115.675706 
L 102.614846 114.191328 
L 99.253395 112.19306 
L 93.903901 113.174005 
L 96.688476 114.01625 
L 96.523842 114.957302 
L 97.720975 114.297773 
L 96.327245 116.025404 
L 95.643495 117.821312 
L 98.390091 118.198581 
L 98.470581 117.000571 
L 100.463823 117.570186 
L 101.753703 115.800079 
L 101.572846 117.639439 
L 107.866729 118.188752 
L 107.420999 115.874252 
L 105.435115 114.942651 
L 105.845043 116.095622 
L 104.164325 117.254514 
L 106.908753 118.697687 
L 103.985102 122.495127 
L 105.293018 122.400169 
L 107.872649 120.790229 
L 110.39636 119.585907 
L 114.221783 122.136699 
L 116.518856 121.474025 
L 118.304087 121.299153 
L 119.825751 119.860783 
L 117.758813 121.144288 
L 117.915082 123.075906 
L 118.91525 126.608842 
L 121.931481 123.926444 
L 123.321064 121.814368 
L 122.380518 126.331427 
L 124.578591 120.263974 
L 120.158735 119.565915 
L 119.320698 117.480732 
L 117.437206 118.886605 
L 115.966228 117.294308 
L 115.759903 115.567045 
L 116.641814 112.274554 
L 116.897058 112.548563 
L 120.996281 111.33752 
L 121.132365 112.02215 
L 121.261397 110.400413 
L 120.273572 110.814519 
L 123.790016 109.021592 
L 125.428935 111.92651 
L 125.641148 111.529039 
L 128.704871 112.639864 
L 128.917937 110.802167 
L 125.075038 109.477112 
L 122.320852 113.396918 
L 129.003508 116.020523 
L 132.180048 116.427186 
L 134.366546 116.128971 
L 130.387386 117.411145 
L 125.538522 115.216821 
L 124.871902 112.644901 
L 122.965509 114.546988 
L 122.386991 117.027052 
L 120.225952 117.746808 
L 120.521745 116.629039 
L 119.86297 117.149964 
L 118.934433 116.692849 
L 119.311782 114.908246 
L 122.123646 115.341177 
L 123.272246 113.769067 
L 123.827401 114.771116 
L 122.815959 115.415665 
L 122.926982 116.983822 
L 123.491994 117.005668 
L 122.6973 113.323869 
L 125.879601 112.538909 
L 123.999127 110.512695 
L 126.014173 109.07786 
L 129.1389 108.774698 
L 126.254995 105.903374 
L 129.091651 104.517792 
L 126.571878 108.251339 
L 127.899809 109.118364 
L 130.001226 107.295359 
L 128.646819 104.16523 
L 127.183718 101.950884 
L 126.832934 103.191692 
L 126.914543 104.358137 
L 128.277423 106.172532 
L 127.245608 106.257549 
L 126.185577 104.03815 
L 125.713049 100.805286 
L 128.961541 99.001806 
L 131.612646 99.553984 
L 134.513248 97.230866 
L 137.487991 96.499681 
L 136.908583 96.36492 
L 138.246266 97.095842 
L 140.430113 98.775025 
L 140.457834 98.027553 
L 139.537604 98.308072 
L 137.969974 102.017361 
L 137.885469 104.622633 
L 139.434282 104.081161 
L 136.966398 105.355859 
L 136.140918 106.285225 
L 133.755242 106.604717 
L 134.276283 102.923974 
L 134.666664 104.525426 
L 133.811834 104.176618 
L 135.016007 100.013817 
L 134.046372 100.806485 
L 134.266479 103.797122 
L 134.11849 104.51307 
L 134.147365 105.907135 
L 136.503071 107.790305 
L 137.407734 106.127894 
L 136.708774 107.059396 
L 139.821609 106.784941 
L 141.147125 104.706321 
L 138.319221 104.640066 
L 138.857562 107.115475 
L 139.882884 110.343535 
L 139.740729 111.330819 
L 140.10804 108.938271 
L 142.773922 108.465994 
L 147.114366 112.420201 
L 147.272108 113.196926 
L 147.915172 114.144767 
L 145.786726 114.554475 
L 141.914284 111.926832 
L 141.528104 110.721039 
L 143.449386 110.438895 
L 141.751827 111.080917 
L 142.030706 111.38349 
L 143.378994 110.43685 
L 144.914833 110.3291 
L 142.376171 105.196227 
L 143.418298 103.907548 
L 146.556391 106.668189 
L 148.572209 107.713663 
L 149.828259 104.608306 
L 151.062317 105.366943 
L 149.69236 103.188592 
L 147.592793 104.325872 
L 145.997205 105.643106 
L 148.013622 108.810183 
L 148.449502 108.82858 
L 149.23551 109.278077 
L 152.958828 112.00095 
L 154.102242 112.987811 
L 155.91193 113.2285 
L 157.26845 114.487258 
L 155.432409 112.777114 
L 153.782559 114.729797 
L 150.895986 114.364075 
L 153.375819 114.935969 
L 153.174461 112.439481 
L 153.151609 114.839629 
L 154.507944 120.791851 
L 156.065001 120.777898 
L 157.445797 120.414574 
L 157.805021 118.869627 
L 152.867089 116.183 
L 153.273298 114.430212 
L 156.099199 110.110683 
L 155.05677 110.300405 
L 157.973968 109.731887 
L 155.30858 111.975048 
L 154.200048 110.694848 
L 155.433053 108.763155 
L 156.266938 106.567594 
L 152.701184 106.894427 
L 150.486044 108.258281 
L 149.210208 105.535497 
L 146.32178 106.156946 
L 147.015904 108.20113 
L 147.017751 107.913165 
L 149.252179 107.098175 
L 153.692485 109.459856 
L 152.179829 108.613518 
L 151.526598 107.250266 
L 151.428904 105.077527 
L 151.675991 108.249893 
L 153.920139 106.820513 
L 156.90859 108.729136 
L 159.934843 113.937372 
L 162.540034 116.200864 
L 164.886342 115.821961 
L 166.316681 115.975249 
L 164.546808 114.38429 
L 164.573345 114.377615 
L 162.178042 113.465549 
L 164.989789 115.079156 
L 161.602163 116.662759 
L 161.636546 112.384738 
L 163.290879 113.158394 
L 161.863967 116.562426 
L 159.584615 116.980881 
L 159.246038 116.251344 
L 157.905419 111.393882 
L 159.713972 113.12267 
L 162.02984 115.685262 
L 163.079502 115.044795 
L 163.532365 107.536463 
L 164.475676 105.98209 
L 164.306923 108.241796 
L 166.709758 106.843104 
L 166.70942 102.648446 
L 166.612402 102.855399 
L 169.907202 104.532652 
L 170.337068 105.448258 
L 170.072198 108.65799 
L 169.68893 110.163621 
L 170.415249 111.166761 
L 170.520007 109.22328 
L 170.745224 111.517029 
L 173.414288 110.76192 
L 172.474365 106.63253 
L 174.706942 105.30765 
L 172.275107 105.228964 
L 167.991637 103.29017 
L 171.536059 100.707184 
L 169.230186 100.003267 
L 170.544195 102.611408 
L 172.722893 102.669317 
L 170.456745 102.277313 
L 170.117822 103.107947 
L 169.515961 102.106172 
L 172.482492 100.954742 
L 173.86205 103.893442 
L 176.682052 99.264139 
L 176.890129 101.479328 
L 174.843839 101.628294 
L 175.295511 104.144405 
L 176.848207 105.049396 
L 178.147378 103.284174 
L 175.533569 103.412485 
L 174.023142 102.760026 
L 172.110538 101.350956 
L 174.752357 102.468776 
L 175.186994 101.695542 
L 174.951511 99.298693 
L 179.3778 101.187807 
L 176.338905 103.098633 
L 175.426558 100.501668 
L 176.784445 99.03113 
L 180.340374 99.24319 
L 175.29683 96.426957 
L 177.872185 95.969672 
L 176.686374 94.697894 
L 172.42516 95.278676 
L 172.837637 93.672187 
L 174.830892 90.234252 
L 174.779064 92.079268 
L 176.983204 88.10871 
L 176.808376 88.087653 
L 174.206315 90.378593 
L 171.817216 93.331213 
L 174.13977 94.076257 
L 168.168638 97.440491 
L 168.312511 92.957764 
L 165.718063 95.351346 
L 166.559608 93.963247 
L 163.971275 92.788599 
L 164.621295 90.044946 
L 164.08124 89.27152 
L 165.616853 85.788788 
L 163.513793 88.480703 
L 168.075169 86.50028 
L 169.88398 90.242178 
L 167.791382 93.384306 
L 165.280835 96.705139 
L 169.597561 99.053835 
L 169.820742 98.387213 
L 171.699759 98.024147 
L 168.346106 95.622676 
L 165.380073 100.261074 
L 165.64846 97.951936 
L 170.156752 97.836364 
L 169.39432 90.539399 
L 165.354847 91.193687 
L 164.665012 88.57452 
L 161.665498 87.329418 
L 161.330156 89.16145 
L 163.191527 89.027013 
L 164.908261 90.095763 
L 164.526128 89.319687 
L 166.372975 87.510743 
L 170.289038 86.403383 
L 167.797425 87.532071 
L 165.366265 85.371416 
L 163.657948 88.466727 
L 161.993775 90.825774 
L 159.928833 93.471941 
L 162.8829 89.071863 
L 160.073205 90.129074 
L 163.434864 91.277298 
L 165.445484 91.655302 
L 164.623701 92.570109 
L 161.173875 93.943777 
L 163.633398 94.64799 
L 163.679851 93.878122 
L 161.519009 94.199656 
L 164.310399 95.439196 
L 162.389265 94.070286 
L 161.162811 97.040917 
L 164.060407 99.499397 
L 163.660628 99.134724 
L 165.540523 99.541334 
L 163.521921 102.980091 
L 165.49699 104.134556 
L 163.519418 106.444574 
L 165.763116 104.746146 
L 163.721307 101.717284 
L 167.079475 101.23428 
L 167.553017 98.932378 
L 165.370828 100.134256 
L 167.589975 101.863609 
L 166.790304 99.684274 
L 168.958082 99.591624 
L 168.046346 97.920081 
L 169.752861 100.810522 
L 168.471102 101.932558 
L 165.607519 103.514013 
L 165.107245 104.653701 
L 162.555862 103.913792 
L 164.225539 102.213612 
L 167.382148 106.186029 
L 168.017579 106.805772 
L 163.236862 105.213082 
L 160.242046 107.395726 
L 161.585064 105.484546 
L 162.078755 105.85362 
L 163.132465 108.942791 
L 161.435735 110.990403 
L 161.565905 110.846687 
L 162.540549 111.399861 
L 163.182241 112.036095 
L 165.478129 108.200259 
L 165.485226 104.566725 
L 165.73826 107.877082 
L 167.02677 107.681471 
L 166.675181 110.502468 
L 167.159538 110.594941 
L 169.356968 112.610749 
L 169.826278 116.213541 
L 170.829584 115.142348 
L 166.960023 116.561665 
L 166.106657 117.488995 
L 164.25841 114.489036 
L 160.742102 120.746947 
L 158.859399 121.830349 
L 158.13008 122.90815 
L 158.216967 124.180885 
L 159.560845 122.471518 
L 162.461596 121.556684 
L 162.991738 116.165797 
L 164.202083 115.919189 
L 162.641212 111.520519 
L 161.691263 110.579031 
L 159.393693 109.708079 
L 157.437992 110.123356 
L 158.209958 103.720681 
L 155.044113 101.865876 
L 153.12277 108.523968 
L 150.376429 109.475134 
L 150.703544 105.680437 
L 152.173199 104.786087 
L 154.01513 104.688959 
L 155.682514 103.147357 
L 154.375657 105.790188 
L 154.767245 103.445399 
L 153.042634 102.793152 
L 155.513567 107.023378 
L 156.835688 105.835181 
L 156.02344 104.544959 
L 155.379801 102.163057 
L 153.017689 102.832357 
L 151.444225 102.090956 
L 151.538749 102.098698 
L 151.445022 99.377254 
L 150.105134 100.18565 
L 150.926298 98.327024 
L 152.384486 99.064543 
L 152.314618 101.274023 
L 153.251757 102.263505 
L 153.369358 101.85755 
L 154.418546 103.962623 
L 153.965756 102.124554 
L 151.629635 103.512341 
L 155.478074 101.836156 
L 155.256511 100.769447 
L 152.714123 101.489472 
L 153.823242 102.423139 
L 152.762725 96.930719 
L 150.227656 99.127767 
L 151.618716 99.676893 
L 153.612703 103.886053 
L 154.300269 103.620047 
L 155.336132 100.577408 
L 154.047992 100.424843 
L 152.268615 98.34453 
L 154.525389 94.55918 
L 155.061662 95.243334 
L 152.8261 95.27482 
L 151.491266 92.740344 
L 148.159467 93.463292 
L 149.857577 94.715416 
L 152.809821 95.466813 
L 155.690142 94.921504 
L 154.173189 93.458717 
L 156.563608 92.52651 
L 153.58137 90.961721 
L 153.258009 90.98821 
L 156.411745 92.498885 
L 156.871374 91.114956 
L 153.946975 89.69712 
L 157.325782 90.430079 
L 157.053984 91.537239 
L 158.171125 91.52111 
L 157.322507 90.232111 
L 159.899833 86.70334 
L 160.007858 85.797139 
L 161.296513 83.759467 
L 163.533942 89.205571 
L 165.924426 87.85573 
L 168.110711 91.165168 
L 168.031846 92.553784 
L 169.28038 91.716087 
L 172.264196 87.655755 
L 169.984136 88.110933 
L 169.608996 90.326881 
L 168.693888 91.336366 
L 169.884608 92.359411 
L 170.358448 91.730574 
L 169.618893 94.827934 
L 170.518044 93.767389 
L 170.176554 94.0662 
L 167.172485 93.361271 
L 169.749368 92.24198 
L 170.607941 88.079871 
L 170.728809 91.994087 
L 168.418493 94.965258 
L 170.50014 94.152809 
L 170.182782 93.138994 
L 169.424093 96.325621 
L 172.679819 90.628796 
L 176.33411 89.644346 
L 174.206605 90.654712 
L 172.437512 89.992343 
L 173.775911 88.796469 
L 172.687383 92.508375 
L 169.01436 91.897274 
L 165.966099 90.266046 
L 166.212261 89.280063 
L 164.300582 88.211554 
L 162.981793 83.033636 
L 165.996813 80.205538 
L 168.413231 80.390903 
L 170.143684 77.881522 
L 169.306701 78.545314 
L 172.214372 78.339145 
L 171.839827 75.065701 
L 173.712053 77.650011 
L 172.05344 83.12916 
L 173.809875 82.734543 
L 175.115879 82.572875 
L 173.802521 83.393287 
L 167.569867 85.440929 
L 163.803318 84.78048 
L 166.33057 86.383882 
L 167.384248 81.732911 
L 165.573691 78.537902 
L 160.213272 75.068215 
L 160.575272 74.473389 
L 158.767692 71.103386 
L 157.99777 70.226194 
L 160.401747 67.923295 
L 160.846467 68.201949 
L 159.502918 72.131131 
L 158.567823 70.200676 
L 161.147788 69.92348 
L 159.909078 70.241992 
L 160.04072 67.643455 
L 156.139142 66.642838 
L 156.20234 65.962433 
L 154.915391 67.526922 
L 152.993348 64.104574 
L 152.040382 66.482902 
L 153.389233 65.495053 
L 157.987655 69.137527 
L 159.139759 66.659665 
L 157.74402 63.749439 
L 156.584167 64.680966 
L 157.272111 65.339305 
L 157.138682 65.674772 
L 156.719752 64.399818 
L 153.308735 64.681292 
L 158.34984 66.688289 
L 159.787373 65.194765 
L 156.476037 65.926226 
L 152.972548 64.439101 
L 149.443692 62.446556 
L 149.726904 61.632445 
L 152.747839 62.490362 
L 147.9821 59.848901 
L 146.478255 57.627315 
L 143.150749 57.687222 
L 143.841074 55.538875 
L 142.572504 60.136617 
L 141.304718 57.682615 
L 143.632523 57.766682 
L 140.762896 59.216036 
L 141.716913 60.796665 
L 139.310936 56.223226 
L 139.957641 53.848469 
L 138.97526 55.277499 
L 139.475275 60.789395 
L 138.245751 60.966034 
L 138.395555 59.444889 
L 141.661066 60.262894 
L 143.016032 59.268337 
L 142.354695 60.256938 
L 141.768633 62.280362 
L 143.3564 62.82478 
L 141.91261 62.725865 
L 141.789864 61.439967 
L 143.651191 58.534318 
L 145.16614 58.966541 
L 141.722916 57.854032 
L 144.415867 56.0478 
L 145.350467 51.399306 
L 144.253096 54.165137 
L 143.204234 53.613909 
L 145.340751 52.882869 
L 145.778997 52.208056 
L 146.737363 50.253466 
L 146.141975 50.776324 
L 149.641047 52.402934 
L 150.091145 47.851917 
L 150.634544 44.68254 
L 146.231417 42.054871 
L 146.041723 42.867747 
L 146.266738 39.908381 
L 146.710451 40.204017 
L 146.677561 41.239228 
L 152.337422 43.307011 
L 148.394886 42.463248 
L 152.830839 43.952143 
L 153.200838 44.378419 
L 151.810981 42.228955 
L 153.086431 43.922064 
L 152.666383 45.650301 
L 150.509001 46.035029 
L 149.067493 45.708264 
L 149.491295 42.891327 
L 150.06433 43.103162 
L 151.852268 44.097903 
L 152.519042 43.007263 
L 153.984818 44.002402 
L 153.687343 44.474077 
L 154.232766 43.320509 
L 153.999052 41.280213 
L 155.371504 40.866731 
L 154.234303 44.257431 
L 157.526971 45.418772 
L 156.64302 44.759301 
L 156.545278 41.121695 
L 156.075574 38.700325 
L 156.148323 41.633664 
L 155.04783 41.015935 
L 154.599892 41.427482 
L 151.950316 42.8169 
L 152.599153 46.025441 
L 153.324088 46.685472 
L 155.159871 45.763203 
L 159.247205 46.261247 
L 161.049241 47.328435 
L 162.635346 48.800053 
L 163.991947 52.736486 
L 164.298876 52.190902 
L 169.130336 51.613716 
L 170.405231 50.300814 
L 170.167438 44.394178 
L 169.817901 43.469387 
L 168.064926 44.621322 
L 167.021153 40.870504 
L 168.245194 42.466443 
L 163.948125 40.778789 
L 162.516595 43.770599 
L 157.442602 45.20536 
L 158.760257 42.074227 
L 156.316119 40.432806 
L 156.757097 40.595665 
L 155.981614 40.837216 
L 155.444455 42.553865 
L 153.342772 43.47986 
L 156.254715 41.921833 
L 157.369049 42.921426 
L 156.770848 43.883372 
L 156.167023 45.981861 
L 158.102657 45.123297 
L 155.59965 46.674778 
L 155.702807 47.075305 
L 156.866868 45.663755 
L 157.46255 42.889501 
L 157.461037 46.286372 
L 155.733336 46.607351 
L 157.069458 46.774857 
L 158.37633 39.234023 
L 157.032813 38.433656 
L 160.862286 40.779039 
L 157.234284 40.003439 
L 158.737469 37.686264 
L 160.595115 36.780221 
L 160.474883 36.983627 
L 161.594527 34.285397 
L 163.737022 35.846663 
L 163.268992 37.103912 
L 162.704829 35.942385 
L 163.081619 34.243265 
L 163.81196 33.00433 
L 163.24733 30.972472 
L 164.824737 29.611144 
L 164.765941 28.692198 
L 166.815916 25.682288 
L 166.993762 25.094057 
L 171.705022 26.52296 
L 171.345508 25.81218 
L 165.372172 28.355907 
L 162.392717 27.756701 
L 160.965226 30.666202 
L 163.506246 28.543702 
L 161.909197 25.243752 
L 162.439243 27.482839 
L 158.403777 25.789492 
L 157.179873 22.389623 
L 159.55996 22.827045 
L 156.7128 26.512391 
L 157.532547 23.03249 
L 158.75036 25.273681 
L 158.610558 22.993082 
L 159.703415 22.38426 
L 158.824203 23.215506 
L 157.151485 21.474733 
L 156.274188 23.116336 
L 157.233785 26.293338 
L 157.127329 29.869468 
L 153.628434 27.984339 
L 155.220389 25.784137 
L 153.822663 27.467076 
L 154.409526 29.29381 
L 154.060295 31.966448 
L 147.715294 32.12116 
L 148.590358 29.656973 
L 146.625954 27.246027 
L 148.140931 25.9601 
L 146.624493 21.367448 
L 148.943708 21.937372 
L 149.51556 23.619606 
L 148.860993 26.860535 
L 148.767182 26.512109 
L 150.336281 27.607875 
L 152.309621 30.337205 
L 153.629263 29.18113 
L 152.832424 34.223213 
L 150.965557 37.339902 
L 149.983124 35.087297 
L 149.736813 32.488483 
L 148.391965 35.430871 
L 146.397507 37.166072 
L 143.918008 37.820119 
L 139.810396 35.644033 
L 135.287693 43.045299 
L 137.940857 35.938474 
L 138.179254 32.386621 
L 138.724834 30.530512 
L 136.785563 28.907316 
L 138.896299 29.628927 
L 141.039414 26.885974 
L 139.226877 29.018432 
L 139.244141 26.89802 
L 137.240727 27.537934 
L 139.528258 28.295075 
L 140.706936 29.422701 
L 139.687243 28.605754 
L 138.848051 27.067703 
L 141.054119 26.192361 
L 141.29855 26.468742 
L 142.405392 26.66532 
L 144.108447 25.268012 
L 142.388205 26.713741 
L 140.728384 22.260335 
L 141.970852 24.940524 
L 143.682057 23.755461 
L 147.94931 26.499033 
L 147.148009 28.175832 
L 143.640324 33.303097 
L 143.102747 32.129798 
L 140.573367 31.715475 
L 136.643315 34.270145 
L 136.643315 34.270145 
" clip-path="url(#pe137f059dd)" style="fill: none; stroke: #1f77b4; stroke-width: 0.8; stroke-linecap: square"/>
   </g>
   <g id="line2d_2">
    <path d="M 82.944543 81.44974 
L 84.473598 76.815889 
L 85.9625 79.60002 
L 85.812914 78.915954 
L 86.241597 80.994286 
L 91.181178 80.815579 
L 88.756795 83.217453 
L 86.900517 83.42003 
L 89.057222 83.508052 
L 86.890973 84.728314 
L 84.634635 80.274212 
L 86.812648 76.125241 
L 85.36356 77.291515 
L 90.35501 76.791612 
L 86.451605 75.576785 
L 87.299741 74.324782 
L 90.2552 77.722105 
L 92.067704 75.156945 
L 85.436132 74.533294 
L 89.771157 74.085911 
L 90.791031 75.342693 
L 93.0353 74.237509 
L 90.497821 73.638737 
L 92.726592 70.854695 
L 91.926503 72.43178 
L 89.549272 75.694764 
L 89.33137 75.741434 
L 88.232317 78.030563 
L 85.540553 74.84975 
L 91.503582 74.746657 
L 91.687937 78.195454 
L 92.471893 76.25521 
L 94.76519 75.796674 
L 91.59067 74.254552 
L 93.220211 74.584889 
L 93.33481 71.182432 
L 100.011307 69.973793 
L 98.769982 71.591457 
L 100.50219 72.842003 
L 100.86798 74.054875 
L 99.63438 75.173103 
L 99.877283 74.585444 
L 97.925379 77.979362 
L 100.339705 74.700325 
L 100.006511 78.630678 
L 100.91807 78.288633 
L 103.388625 78.059651 
L 106.284974 81.372138 
L 106.350256 81.172711 
L 107.152366 80.853229 
L 110.285293 82.203453 
L 108.534321 84.061416 
L 109.365076 80.049342 
L 112.782305 83.712443 
L 113.310878 86.333888 
L 115.27074 85.571948 
L 118.698704 83.697517 
L 118.335641 84.215239 
L 119.478025 86.26404 
L 114.689872 85.49594 
L 118.422754 84.276039 
L 119.065564 87.415774 
L 115.025922 88.166827 
L 112.411623 87.725359 
L 113.905095 87.595285 
L 115.297221 90.504714 
L 116.00607 88.734149 
L 114.343386 89.943323 
L 113.67625 89.527986 
L 112.322394 89.933514 
L 112.799461 88.722111 
L 109.303229 91.289547 
L 109.477511 92.574657 
L 108.553278 94.034298 
L 112.177201 94.802282 
L 111.745115 98.136342 
L 108.603634 97.700224 
L 105.687965 100.486874 
L 109.821447 99.496338 
L 114.992971 102.187499 
L 119.412131 101.818401 
L 117.300028 100.677852 
L 115.390562 100.262756 
L 114.199392 99.495875 
L 112.896527 97.031657 
L 113.088181 97.285945 
L 114.03854 97.279725 
L 108.908487 98.423227 
L 107.52016 100.806332 
L 105.469878 102.370752 
L 105.395359 102.733332 
L 102.33712 103.404776 
L 106.539609 104.517218 
L 107.269009 100.721959 
L 106.047954 98.861493 
L 103.322007 99.420997 
L 103.138352 103.267384 
L 101.822516 102.546828 
L 97.123503 103.627526 
L 95.073278 102.222332 
L 96.016348 105.130751 
L 95.750641 107.441497 
L 96.426805 110.488193 
L 92.907681 107.830639 
L 90.693289 109.772979 
L 91.566667 108.96984 
L 89.606242 106.833106 
L 90.471082 105.368456 
L 90.095057 106.770467 
L 90.485389 107.501199 
L 89.562726 105.250219 
L 92.375447 108.528902 
L 94.085003 112.477381 
L 94.372009 113.55058 
L 93.216324 117.269335 
L 94.45093 120.445513 
L 96.229985 118.888633 
L 96.957437 116.315576 
L 95.368854 113.591086 
L 93.743996 113.572036 
L 94.309913 115.9095 
L 94.959049 114.662994 
L 97.07602 114.994047 
L 98.150579 115.331839 
L 97.716183 115.888217 
L 98.686426 116.294727 
L 98.84043 114.776596 
L 101.753283 113.008866 
L 96.592894 114.323898 
L 96.096982 112.644038 
L 97.076905 114.222623 
L 97.960052 112.780645 
L 99.232251 113.36379 
L 97.918636 110.888833 
L 97.667244 113.313495 
L 97.893056 113.253121 
L 94.301352 115.427879 
L 95.373617 118.748638 
L 97.307601 115.952272 
L 96.846732 114.211861 
L 95.185504 109.243706 
L 90.52728 108.640967 
L 90.36667 107.441775 
L 89.13245 108.218537 
L 88.214832 110.048229 
L 86.791453 109.554852 
L 90.062951 107.808197 
L 85.306614 107.919252 
L 82.721383 109.96617 
L 82.748287 109.45443 
L 88.218887 109.940783 
L 88.401771 109.746989 
L 88.150572 111.524305 
L 86.796361 113.484746 
L 87.813975 117.839936 
L 89.567546 118.828895 
L 89.91532 118.469948 
L 90.056183 117.150596 
L 90.661859 118.452857 
L 89.923745 118.094466 
L 91.375769 120.694358 
L 87.956504 122.424212 
L 89.052274 123.149794 
L 88.190588 122.758556 
L 88.513377 125.742183 
L 90.205577 128.275952 
L 88.091421 127.707971 
L 90.281504 127.768075 
L 91.174814 126.928448 
L 91.132118 131.264411 
L 90.491287 137.217256 
L 91.324054 140.07359 
L 90.035858 139.807408 
L 93.286032 140.649545 
L 92.590806 138.341274 
L 91.25404 138.12414 
L 92.187679 138.194258 
L 92.896045 135.355309 
L 93.028766 131.848388 
L 93.340548 135.545266 
L 97.294622 136.089445 
L 93.528049 137.166466 
L 93.92943 136.961837 
L 90.040654 137.568213 
L 92.563978 132.609504 
L 92.541496 131.399859 
L 94.143727 133.821511 
L 95.232907 136.791977 
L 96.062052 134.241121 
L 94.977137 132.774492 
L 94.169363 131.210716 
L 94.274709 133.199923 
L 98.208265 129.742533 
L 99.904633 130.251887 
L 103.022071 130.642509 
L 104.665138 132.523812 
L 104.621195 134.646191 
L 107.24083 127.937874 
L 103.650011 126.13715 
L 103.125316 122.025789 
L 102.45188 122.085913 
L 103.495042 122.006235 
L 102.754875 120.401884 
L 104.349598 118.933931 
L 104.863189 116.130637 
L 105.681753 115.474369 
L 107.795619 119.263781 
L 106.417526 119.297094 
L 106.821988 120.153611 
L 103.606278 119.193293 
L 98.974655 119.432466 
L 99.390616 117.28048 
L 97.680481 120.252423 
L 96.037695 120.823888 
L 92.981661 123.051348 
L 92.38602 121.717085 
L 90.021953 119.850877 
L 94.753555 118.292698 
L 96.235424 119.561972 
L 96.15532 121.235359 
L 93.549349 116.699624 
L 94.219791 114.836724 
L 91.520866 112.228741 
L 92.040604 110.212887 
L 93.761642 109.423218 
L 95.739013 107.793226 
L 97.067974 106.900066 
L 95.072481 107.415511 
L 96.81033 107.462607 
L 96.260795 107.06282 
L 97.800769 104.346988 
L 96.403461 104.291728 
L 96.818626 105.414442 
L 93.999669 105.740917 
L 94.014185 103.033116 
L 91.163444 104.125944 
L 92.312506 104.542823 
L 92.600228 104.906223 
L 95.266002 106.218096 
L 96.591309 105.872447 
L 98.078989 105.872153 
L 102.898394 103.701313 
L 100.650931 103.184698 
L 101.265997 101.582692 
L 100.917933 103.40268 
L 101.020946 102.414566 
L 100.163138 101.249269 
L 103.953062 100.932185 
L 107.589642 98.004225 
L 106.508911 97.56581 
L 108.779967 97.233019 
L 108.21685 96.439986 
L 109.541956 93.46023 
L 111.089687 92.438984 
L 110.864463 91.73522 
L 105.337069 93.362729 
L 102.026046 92.509565 
L 102.760822 90.341529 
L 101.999404 92.673948 
L 98.003729 92.972385 
L 97.783139 94.594688 
L 98.157676 95.215539 
L 98.768807 94.400765 
L 99.336857 94.025266 
L 98.803874 90.220058 
L 100.174669 90.622907 
L 99.133994 92.38485 
L 96.280348 96.036795 
L 100.085569 96.954369 
L 96.621106 99.306096 
L 98.368763 98.529273 
L 98.651762 98.913772 
L 100.102137 100.477749 
L 100.420814 102.576407 
L 100.118769 107.790611 
L 102.072419 108.640718 
L 101.674008 110.994469 
L 106.195569 108.868469 
L 106.067483 110.522005 
L 105.689365 113.658062 
L 102.621961 115.67569 
L 102.614856 114.19131 
L 99.253406 112.193042 
L 93.903914 113.173987 
L 96.688488 114.016232 
L 96.523855 114.957282 
L 97.720987 114.297751 
L 96.32726 116.025383 
L 95.643508 117.821292 
L 98.390102 118.198561 
L 98.470592 117.000551 
L 100.463839 117.570166 
L 101.753717 115.800059 
L 101.572862 117.639419 
L 107.866743 118.188732 
L 107.421009 115.874232 
L 105.435125 114.942629 
L 105.845051 116.095598 
L 104.164334 117.254489 
L 106.908763 118.697663 
L 103.985112 122.495102 
L 105.29303 122.400145 
L 107.872665 120.790205 
L 110.396376 119.585883 
L 114.221802 122.136675 
L 116.518872 121.474001 
L 118.304099 121.299128 
L 119.825759 119.860759 
L 117.758821 121.144264 
L 117.915094 123.075882 
L 118.915262 126.608817 
L 121.931489 123.926419 
L 123.321073 121.814344 
L 122.380522 126.331403 
L 124.578595 120.26395 
L 120.158743 119.565891 
L 119.320706 117.480707 
L 117.437214 118.886581 
L 115.96624 117.294284 
L 115.759917 115.567021 
L 116.641832 112.27453 
L 116.89707 112.548541 
L 120.996297 111.337495 
L 121.132382 112.022124 
L 121.261417 110.400388 
L 120.273592 110.814495 
L 123.790036 109.021568 
L 125.42896 111.926486 
L 125.641173 111.529012 
L 128.704891 112.639837 
L 128.917957 110.802139 
L 125.075054 109.477081 
L 122.320864 113.396886 
L 129.003516 116.020491 
L 132.180056 116.427154 
L 134.366558 116.128939 
L 130.387403 117.411112 
L 125.538538 115.216789 
L 124.871918 112.644867 
L 122.965526 114.546954 
L 122.387007 117.027016 
L 120.225964 117.746772 
L 120.521757 116.629003 
L 119.862982 117.149928 
L 118.934445 116.692813 
L 119.31179 114.90821 
L 122.123658 115.341137 
L 123.272262 113.769025 
L 123.827413 114.771076 
L 122.815971 115.415624 
L 122.926998 116.983782 
L 123.492014 117.005628 
L 122.697316 113.32383 
L 125.879617 112.538869 
L 123.999143 110.512655 
L 126.014189 109.077817 
L 129.138916 108.774654 
L 126.255007 105.903329 
L 129.091659 104.517745 
L 126.571882 108.251295 
L 127.899813 109.11832 
L 130.00123 107.295315 
L 128.646827 104.165184 
L 127.18373 101.95084 
L 126.832946 103.19165 
L 126.914555 104.358093 
L 128.277439 106.172488 
L 127.245624 106.257505 
L 126.185597 104.038104 
L 125.713069 100.805238 
L 128.961561 99.001758 
L 131.612666 99.553935 
L 134.513264 97.230818 
L 137.488011 96.499631 
L 136.908608 96.364871 
L 138.24629 97.095792 
L 140.430137 98.774976 
L 140.457858 98.027504 
L 139.537625 98.308024 
L 137.969994 102.017313 
L 137.885489 104.622584 
L 139.434306 104.081113 
L 136.966422 105.355811 
L 136.140946 106.285177 
L 133.755274 106.604671 
L 134.276316 102.923927 
L 134.666696 104.525382 
L 133.811866 104.176574 
L 135.01604 100.013774 
L 134.0464 100.806445 
L 134.266507 103.797084 
L 134.118514 104.51303 
L 134.147385 105.907095 
L 136.503091 107.790265 
L 137.407754 106.127854 
L 136.708794 107.059356 
L 139.821629 106.784899 
L 141.147145 104.706277 
L 138.319241 104.640021 
L 138.857582 107.115429 
L 139.882904 110.343491 
L 139.740753 111.330776 
L 140.108064 108.938229 
L 142.773951 108.465954 
L 147.114399 112.420161 
L 147.272144 113.196887 
L 147.915212 114.144728 
L 145.786766 114.554437 
L 141.914324 111.926796 
L 141.528144 110.721005 
L 143.44943 110.438859 
L 141.751872 111.080881 
L 142.030751 111.383454 
L 143.379039 110.436815 
L 144.914877 110.329063 
L 142.376215 105.19619 
L 143.418338 103.907511 
L 146.556431 106.668151 
L 148.572249 107.713625 
L 149.828299 104.60827 
L 149.826263 105.366907 
L 148.456306 103.188556 
L 146.356739 104.325834 
L 144.761155 105.64307 
L 146.777568 108.810147 
L 147.213452 108.828542 
L 147.99946 109.278041 
L 149.165831 112.000913 
L 150.309236 112.987772 
L 148.769681 113.228462 
L 150.1262 114.48722 
L 148.29016 112.777076 
L 146.640309 114.729756 
L 143.753737 114.364034 
L 146.23357 114.935926 
L 146.032212 112.439437 
L 146.009359 114.839584 
L 147.365694 120.791806 
L 148.922751 120.777854 
L 150.303547 120.41453 
L 150.225841 118.869583 
L 145.287901 116.182956 
L 145.69411 114.430165 
L 148.520011 110.110638 
L 147.477582 110.300361 
L 150.394772 109.731841 
L 147.729384 111.975003 
L 146.620852 110.694805 
L 147.853865 108.763115 
L 148.68775 106.567552 
L 145.121996 106.894385 
L 142.906848 108.258239 
L 141.631012 105.535455 
L 138.742588 106.156902 
L 139.436712 108.201084 
L 139.438555 107.91312 
L 141.672983 107.098129 
L 146.113289 109.459809 
L 144.600641 108.613472 
L 143.94741 107.250217 
L 143.849716 105.077479 
L 144.096795 108.249846 
L 146.340943 106.820465 
L 149.329394 108.729086 
L 148.532966 113.937319 
L 149.750464 116.200811 
L 148.791841 115.821909 
L 150.222172 115.975197 
L 148.452307 114.384235 
L 148.478844 114.377561 
L 146.083541 113.465495 
L 148.895288 115.079099 
L 145.507662 116.662702 
L 145.542045 112.38468 
L 147.196377 113.158336 
L 145.769458 116.562365 
L 143.490106 116.980821 
L 143.151529 116.251284 
L 141.810901 111.393822 
L 143.619455 113.122609 
L 145.935322 115.685201 
L 146.984985 115.044732 
L 147.437848 107.536403 
L 148.381159 105.982029 
L 148.212405 108.241735 
L 150.273365 106.843043 
L 150.273027 102.648384 
L 150.176009 102.855334 
L 147.417804 104.532587 
L 147.847669 105.448194 
L 147.582807 108.657926 
L 147.199532 110.163557 
L 147.92585 111.166698 
L 148.030617 109.223219 
L 148.255833 111.516967 
L 149.963715 110.761858 
L 149.023792 106.632468 
L 149.632244 105.307587 
L 147.200417 105.228904 
L 142.916947 103.290108 
L 146.461369 100.707122 
L 144.155487 100.003205 
L 145.469497 102.611345 
L 147.648194 102.669257 
L 145.382046 102.27725 
L 145.043124 103.107885 
L 144.441254 102.106107 
L 147.407786 100.954679 
L 148.787351 103.893378 
L 149.281251 99.264073 
L 149.48932 101.479261 
L 147.44303 101.628228 
L 147.894693 104.144339 
L 149.447397 105.049328 
L 150.142044 103.284105 
L 147.528235 103.412416 
L 146.017808 102.759958 
L 144.105204 101.350886 
L 146.747023 102.468703 
L 147.18166 101.695469 
L 146.946176 99.298621 
L 149.516147 101.187733 
L 146.477253 103.098559 
L 145.564897 100.501591 
L 146.922793 99.031051 
L 150.409899 99.243111 
L 145.366355 96.426878 
L 147.941718 95.969594 
L 146.755907 94.697817 
L 142.494693 95.2786 
L 142.90717 93.672113 
L 144.900425 90.234179 
L 144.848589 92.079196 
L 147.052729 88.108638 
L 146.877893 88.08758 
L 144.275832 90.378519 
L 141.886733 93.331138 
L 144.209287 94.076181 
L 138.238155 97.440416 
L 138.382028 92.957688 
L 135.787588 95.351269 
L 136.629133 93.963171 
L 134.0408 92.788524 
L 134.69082 90.044871 
L 134.150765 89.271444 
L 135.686378 85.788711 
L 133.583318 88.480628 
L 138.144694 86.500204 
L 139.953505 90.242101 
L 137.860906 93.38423 
L 135.350368 96.705061 
L 139.667094 99.053759 
L 139.890275 98.387138 
L 141.769292 98.024072 
L 138.415639 95.6226 
L 135.449606 100.260998 
L 135.717985 97.951858 
L 140.226277 97.836284 
L 139.463837 90.539319 
L 135.424364 91.193608 
L 134.734529 88.57444 
L 131.735015 87.329337 
L 131.399673 89.161371 
L 133.261036 89.026932 
L 134.977778 90.095681 
L 134.595645 89.319603 
L 136.442492 87.510659 
L 140.358555 86.403298 
L 137.866941 87.531987 
L 135.435774 85.37133 
L 133.727465 88.466639 
L 132.0633 90.825685 
L 129.998357 93.471849 
L 132.952417 89.071772 
L 130.142722 90.128982 
L 133.504381 91.277208 
L 135.515001 91.655213 
L 134.693218 92.570019 
L 131.2434 93.943686 
L 133.702923 94.6479 
L 133.749368 93.878033 
L 131.588518 94.199568 
L 134.379916 95.439106 
L 132.458782 94.070194 
L 131.232328 97.040826 
L 134.129924 99.499307 
L 133.730137 99.134635 
L 135.610031 99.541246 
L 133.591429 102.98 
L 135.566499 104.13447 
L 133.588927 106.444487 
L 135.832632 104.74606 
L 133.790824 101.717199 
L 137.148992 101.234194 
L 137.622534 98.932291 
L 135.440345 100.134168 
L 137.659492 101.863518 
L 136.859813 99.684186 
L 139.027599 99.591537 
L 138.115871 97.919993 
L 139.822378 100.810436 
L 138.540619 101.93247 
L 135.677027 103.513924 
L 135.176754 104.653612 
L 132.625371 103.913703 
L 134.295048 102.213521 
L 137.451656 106.185938 
L 138.08708 106.805683 
L 133.306363 105.212996 
L 130.311547 107.39564 
L 131.654565 105.48446 
L 132.148256 105.853533 
L 133.201966 108.942707 
L 131.505236 110.990317 
L 131.635398 110.846601 
L 132.610034 111.399776 
L 133.251726 112.036013 
L 135.547606 108.200175 
L 135.554703 104.566641 
L 135.807736 107.876999 
L 137.096254 107.681386 
L 136.744666 110.502383 
L 137.229023 110.594859 
L 139.426453 112.610668 
L 139.895763 116.213461 
L 140.899069 115.142265 
L 137.0295 116.561585 
L 136.176134 117.488915 
L 134.327886 114.488954 
L 130.811579 120.746866 
L 128.928876 121.830268 
L 128.199564 122.90807 
L 128.286452 124.180805 
L 129.63033 122.471437 
L 132.531081 121.556603 
L 133.061223 116.165716 
L 134.271568 115.919108 
L 132.710697 111.520439 
L 131.760748 110.578951 
L 129.46317 109.707999 
L 127.507468 110.123276 
L 128.279435 103.720601 
L 125.113597 101.865796 
L 123.192255 108.523889 
L 120.44591 109.475054 
L 120.77302 105.680358 
L 122.242667 104.786011 
L 124.084598 104.68888 
L 125.751982 103.147281 
L 124.445126 105.790114 
L 124.836714 103.445327 
L 123.112102 102.793078 
L 125.583036 107.023303 
L 126.905156 105.835106 
L 126.092901 104.544887 
L 125.449269 102.162985 
L 123.087158 102.832285 
L 121.513694 102.090883 
L 121.608209 102.098624 
L 121.514482 99.37718 
L 120.174595 100.185577 
L 120.995766 98.32695 
L 122.453955 99.064469 
L 122.384086 101.273948 
L 123.321225 102.26343 
L 123.438826 101.857475 
L 124.488014 103.962546 
L 124.035224 102.124478 
L 121.699104 103.512267 
L 125.547542 101.83608 
L 125.325979 100.76937 
L 122.783592 101.489396 
L 123.892711 102.423063 
L 122.832193 96.930644 
L 120.297128 99.127691 
L 121.688192 99.676815 
L 123.682188 103.885975 
L 124.369754 103.61997 
L 125.405608 100.577334 
L 124.117469 100.42477 
L 122.3381 98.344459 
L 124.594881 94.55911 
L 125.131155 95.243264 
L 122.895593 95.27475 
L 121.56075 92.740273 
L 118.228951 93.463219 
L 119.927065 94.715342 
L 122.879314 95.466738 
L 125.759635 94.921428 
L 124.242682 93.458641 
L 126.633101 92.526434 
L 123.650862 90.961644 
L 123.327502 90.988134 
L 126.481229 92.498806 
L 126.940859 91.11488 
L 124.01646 89.697045 
L 127.395275 90.430002 
L 127.123477 91.537161 
L 128.240618 91.521032 
L 127.392008 90.232031 
L 129.969333 86.703259 
L 130.077351 85.79706 
L 131.366006 83.759387 
L 133.603435 89.20549 
L 135.993919 87.855649 
L 138.180196 91.165086 
L 138.101339 92.5537 
L 139.349873 91.716005 
L 142.333689 87.655671 
L 140.053637 88.110851 
L 139.678504 90.3268 
L 138.763397 91.336286 
L 139.954117 92.35933 
L 140.427949 91.730493 
L 139.688394 94.827854 
L 140.587545 93.767308 
L 140.246055 94.066119 
L 137.241994 93.361188 
L 139.818885 92.241898 
L 140.677457 88.079791 
L 140.798325 91.994007 
L 138.48801 94.965177 
L 140.569649 94.152728 
L 140.252291 93.138913 
L 139.493602 96.325539 
L 142.749328 90.628712 
L 146.403626 89.644263 
L 144.276122 90.65463 
L 142.507029 89.992263 
L 143.84542 88.796389 
L 142.756892 92.508293 
L 139.083861 91.897194 
L 136.0356 90.265968 
L 136.281761 89.279986 
L 134.370083 88.211478 
L 133.051293 83.03356 
L 136.066314 80.205462 
L 138.482732 80.390823 
L 140.213185 77.881443 
L 139.376202 78.545231 
L 142.28388 78.339061 
L 141.909343 75.065616 
L 143.781578 77.649927 
L 142.122965 83.129077 
L 143.879392 82.73446 
L 145.185395 82.572791 
L 143.872038 83.393203 
L 137.639384 85.440845 
L 133.872835 84.780396 
L 136.400079 86.383797 
L 137.453757 81.732827 
L 135.643199 78.53782 
L 130.282781 75.068127 
L 130.644781 74.473298 
L 128.837201 71.103294 
L 128.067278 70.226102 
L 130.471256 67.923206 
L 130.915967 68.20186 
L 129.572419 72.131038 
L 128.637316 70.200586 
L 131.21728 69.923389 
L 129.978571 70.241906 
L 130.110213 67.643369 
L 126.208635 66.642751 
L 126.271841 65.962346 
L 124.9849 67.526838 
L 123.062857 64.104491 
L 122.109898 66.482816 
L 123.45875 65.494968 
L 128.057172 69.137446 
L 129.209268 66.659584 
L 127.813529 63.749363 
L 126.653676 64.680885 
L 127.34162 65.339226 
L 127.208191 65.674688 
L 126.789253 64.399737 
L 123.378236 64.681207 
L 128.419333 66.688206 
L 129.856866 65.194685 
L 126.545538 65.926145 
L 123.042049 64.439021 
L 119.513197 62.446473 
L 119.796405 61.632367 
L 122.817339 62.490279 
L 118.051596 59.848822 
L 116.547751 57.627237 
L 113.220241 57.687144 
L 113.910567 55.538798 
L 112.641997 60.136536 
L 111.374207 57.682533 
L 113.702007 57.766604 
L 110.832381 59.215957 
L 111.786402 60.796583 
L 109.380421 56.223145 
L 110.027126 53.848393 
L 109.044741 55.277421 
L 109.544756 60.789317 
L 108.315228 60.965956 
L 108.465031 59.44481 
L 111.730542 60.26282 
L 113.085509 59.26826 
L 112.424175 60.256865 
L 111.838117 62.280287 
L 113.42588 62.824704 
L 111.982095 62.725787 
L 111.859352 61.439892 
L 113.720675 58.534241 
L 115.235625 58.966464 
L 111.792397 57.853958 
L 114.485344 56.047722 
L 115.41994 51.399226 
L 114.322569 54.165059 
L 113.273711 53.613835 
L 115.410228 52.882793 
L 115.84847 52.207981 
L 116.806836 50.25339 
L 116.211452 50.77625 
L 119.710523 52.402862 
L 120.160626 47.851842 
L 120.704029 44.682464 
L 116.300898 42.054799 
L 116.111207 42.867674 
L 116.336222 39.908304 
L 116.779936 40.203936 
L 116.74705 41.239147 
L 122.406915 43.30693 
L 118.464379 42.463164 
L 122.900332 43.952058 
L 123.270331 44.378335 
L 121.880474 42.228871 
L 123.155924 43.92198 
L 122.735876 45.650212 
L 120.578486 46.034936 
L 119.136978 45.708172 
L 119.560784 42.891235 
L 120.133815 43.103069 
L 121.921753 44.097814 
L 122.588526 43.007178 
L 124.054311 44.002317 
L 123.756836 44.473993 
L 124.302259 43.320424 
L 124.068537 41.280129 
L 125.440981 40.866646 
L 124.303788 44.257346 
L 127.596456 45.418687 
L 126.712505 44.759212 
L 126.614771 41.121603 
L 126.145067 38.700236 
L 126.217816 41.633575 
L 125.117315 41.015846 
L 124.669377 41.427389 
L 122.019801 42.816812 
L 122.668638 46.025353 
L 123.393572 46.685383 
L 125.229356 45.763114 
L 129.31669 46.261158 
L 131.118726 47.328347 
L 132.704823 48.799965 
L 134.061431 52.736401 
L 134.368361 52.190818 
L 139.199828 51.613627 
L 140.474723 50.300728 
L 140.236922 44.39409 
L 139.887378 43.469294 
L 138.134394 44.621229 
L 137.090622 40.870412 
L 138.31467 42.46635 
L 134.017601 40.778697 
L 132.586071 43.770511 
L 127.512079 45.205268 
L 128.829726 42.074135 
L 126.385588 40.432717 
L 126.826557 40.59558 
L 126.051074 40.837131 
L 125.513916 42.553784 
L 123.41224 43.479779 
L 126.324176 41.921756 
L 127.438517 42.921353 
L 126.840317 43.8833 
L 126.2365 45.981788 
L 128.172134 45.123224 
L 125.669134 46.674705 
L 125.772292 47.075233 
L 126.936353 45.663682 
L 127.532035 42.889424 
L 127.530522 46.286296 
L 125.802821 46.607275 
L 127.138942 46.774781 
L 128.445815 39.233951 
L 127.102298 38.433588 
L 130.931771 40.77897 
L 127.303769 40.003367 
L 128.806954 37.686188 
L 130.664608 36.780141 
L 130.544376 36.983543 
L 131.664028 34.285309 
L 133.806523 35.846574 
L 133.338493 37.103823 
L 132.774329 35.942297 
L 133.15112 34.243177 
L 133.881461 33.004242 
L 133.316831 30.972379 
L 134.894238 29.611056 
L 134.83545 28.69211 
L 136.885425 25.682199 
L 137.063271 25.093969 
L 141.774531 26.522867 
L 141.415009 25.812087 
L 135.441664 28.355818 
L 132.462218 27.756612 
L 131.034735 30.66611 
L 133.575755 28.54361 
L 131.978706 25.243659 
L 132.50876 27.482746 
L 128.473294 25.789404 
L 127.24939 22.389539 
L 129.629477 22.82696 
L 126.782317 26.51231 
L 127.602056 23.032414 
L 128.819877 25.273601 
L 128.680075 22.993002 
L 129.772932 22.38418 
L 128.893712 23.215426 
L 127.220993 21.474657 
L 126.343697 23.116259 
L 127.303294 26.293266 
L 127.196838 29.8694 
L 123.697943 27.984275 
L 125.289898 25.784077 
L 123.892172 27.467015 
L 124.479042 29.293746 
L 124.129812 31.966384 
L 117.784811 32.121096 
L 118.659871 29.656905 
L 116.695471 27.245959 
L 118.210452 25.960032 
L 116.694014 21.367379 
L 119.013229 21.937304 
L 119.585085 23.619542 
L 118.930518 26.860471 
L 118.836703 26.512045 
L 120.405806 27.607807 
L 122.379146 30.337132 
L 123.69878 29.181061 
L 122.901941 34.223141 
L 121.035082 37.33983 
L 120.052649 35.087225 
L 119.806334 32.488407 
L 118.46149 35.43079 
L 116.467028 37.165991 
L 113.987533 37.820035 
L 109.879921 35.643945 
L 105.357218 43.045206 
L 108.010382 35.938386 
L 108.248779 32.386537 
L 108.794355 30.530428 
L 106.855084 28.907236 
L 108.96582 29.628847 
L 111.108935 26.885898 
L 109.296398 29.018359 
L 109.313666 26.897952 
L 107.310248 27.537865 
L 109.597775 28.295002 
L 110.776457 29.422628 
L 109.756768 28.605681 
L 108.91758 27.06763 
L 111.123644 26.192289 
L 111.368075 26.468666 
L 112.474917 26.665244 
L 114.177972 25.267936 
L 112.45773 26.713668 
L 110.797909 22.260262 
L 112.040377 24.940456 
L 113.751582 23.755393 
L 118.018831 26.498969 
L 117.217534 28.175768 
L 113.709845 33.303028 
L 113.172268 32.12973 
L 110.642884 31.715402 
L 106.712828 34.270068 
L 106.712828 34.270068 
" clip-path="url(#pe137f059dd)" style="fill: none; stroke-dasharray: 2.96,1.28; stroke-dashoffset: 0; stroke: #ff7f0e; stroke-width: 0.8"/>
   </g>
   <g id="line2d_3">
    <path d="M 82.944543 81.44974 
L 84.025747 78.173115 
L 85.076534 80.139726 
L 84.967728 79.658258 
L 85.267417 81.128988 
L 88.750555 81.003108 
L 87.046661 82.702047 
L 85.735237 82.84334 
L 87.252186 82.903454 
L 85.72336 83.763532 
L 84.12779 80.616094 
L 85.665395 77.684252 
L 84.639166 78.510692 
L 88.162779 78.162599 
L 85.41961 77.311541 
L 86.014424 76.437367 
L 88.093192 78.827237 
L 89.356074 77.021418 
L 84.720584 76.589839 
L 87.780067 76.283134 
L 88.488537 77.171661 
L 90.051309 76.401227 
L 88.276334 75.988833 
L 89.829749 74.047523 
L 89.262731 75.153465 
L 87.434619 77.478796 
L 86.655961 79.094971 
L 84.755687 76.853421 
L 88.964919 76.787841 
L 89.08489 79.216012 
L 89.623372 77.849644 
L 91.211541 77.532152 
L 89.004971 76.45303 
L 90.134464 76.692085 
L 90.203665 74.311107 
L 94.789421 73.492993 
L 93.93513 74.624705 
L 95.096649 75.505455 
L 95.326233 76.361889 
L 94.480142 77.153397 
L 94.628488 76.746752 
L 93.293068 79.136151 
L 94.926292 76.825063 
L 94.685092 79.591579 
L 95.284662 79.352772 
L 96.928753 79.194227 
L 98.8294 81.535961 
L 98.851265 81.394817 
L 99.352063 81.16899 
L 101.356457 82.124137 
L 100.228151 83.436708 
L 100.738112 80.600457 
L 102.890056 83.19132 
L 103.193429 85.040503 
L 104.377405 84.498667 
L 106.430095 83.172747 
L 106.191348 83.535896 
L 106.838985 84.979422 
L 104.021484 84.433262 
L 106.270937 83.568735 
L 106.623674 85.782413 
L 104.234254 86.303784 
L 102.622078 85.986851 
L 103.526166 85.888773 
L 104.35604 87.926155 
L 104.761093 86.681893 
L 103.734384 87.521507 
L 103.302024 87.222454 
L 102.444818 87.49758 
L 102.71838 86.642376 
L 100.525822 88.4341 
L 100.614943 89.318124 
L 100.003924 90.317989 
L 102.308007 90.834409 
L 102.015111 93.110976 
L 100.024883 92.800004 
L 98.132533 94.672446 
L 100.819759 93.993554 
L 104.084539 95.782683 
L 106.749549 95.519815 
L 105.490508 94.745791 
L 104.327517 94.450988 
L 103.580511 93.920588 
L 102.757641 92.248521 
L 102.85279 92.406394 
L 103.417531 92.386842 
L 100.241432 93.148756 
L 99.331092 94.743032 
L 97.984239 95.768309 
L 97.915577 95.988762 
L 95.888521 96.412078 
L 98.682022 97.122612 
L 99.136565 94.629052 
L 98.324421 93.36924 
L 96.522515 93.730235 
L 96.382059 96.300672 
L 95.487546 95.807554 
L 92.316399 96.502077 
L 90.894773 95.560708 
L 91.536363 97.466923 
L 91.34066 98.946502 
L 91.795695 100.869822 
L 89.358159 99.18997 
L 87.804046 100.404374 
L 88.409639 99.877638 
L 87.028933 98.506013 
L 87.631049 97.544408 
L 87.360133 98.433147 
L 87.627823 98.880962 
L 86.973161 97.420689 
L 88.945466 99.529816 
L 90.320281 102.645231 
L 89.506904 104.882115 
L 90.357994 106.722505 
L 91.582605 105.809804 
L 92.07207 104.295353 
L 90.966217 102.654209 
L 89.829823 102.618094 
L 90.21373 104.015581 
L 90.654237 103.247841 
L 92.836861 103.600638 
L 92.525455 103.909159 
L 93.177405 104.126528 
L 93.268159 103.198503 
L 95.242003 102.107451 
L 91.75441 102.889118 
L 91.399992 101.846562 
L 92.064576 102.793452 
L 92.659102 101.89386 
L 93.517275 102.228214 
L 92.607253 100.689819 
L 92.421166 102.181383 
L 92.562683 102.120167 
L 90.085741 103.428445 
L 90.820902 105.39953 
L 92.149329 103.744815 
L 91.819299 102.678639 
L 90.662077 99.634381 
L 87.421136 99.230199 
L 87.301676 98.444901 
L 86.42793 98.922207 
L 85.776475 100.068833 
L 84.76486 99.712226 
L 87.07291 98.584708 
L 83.722369 98.634237 
L 81.893531 99.924254 
L 81.914125 99.57864 
L 85.782618 99.864339 
L 85.907355 99.719281 
L 85.725823 100.820931 
L 84.766537 102.020262 
L 85.482583 104.668346 
L 86.716126 105.225852 
L 86.955279 104.990415 
L 87.0484 104.191011 
L 87.468212 104.939291 
L 86.943089 104.7033 
L 87.958493 106.209633 
L 85.553241 107.177398 
L 86.322436 107.560806 
L 85.710387 107.314944 
L 85.933928 108.969331 
L 87.122515 110.325917 
L 85.629952 109.997413 
L 87.170891 110.002744 
L 87.792577 109.52698 
L 87.755445 111.841259 
L 87.298635 114.874545 
L 87.877363 116.214302 
L 86.966451 116.065307 
L 89.24648 116.429729 
L 88.752041 115.343764 
L 87.808714 115.214862 
L 88.456572 115.221786 
L 88.944351 113.849599 
L 89.028278 112.102502 
L 89.237135 113.965012 
L 91.987601 114.204653 
L 89.382263 114.701933 
L 89.652805 114.577195 
L 86.933731 114.842934 
L 88.702733 112.442921 
L 88.678537 111.802697 
L 89.790838 113.021811 
L 90.539196 114.481444 
L 91.103425 113.222799 
L 90.341173 112.465693 
L 89.769462 111.646294 
L 89.832853 112.646464 
L 92.561058 110.87454 
L 93.710811 111.115118 
L 95.817183 111.292302 
L 96.8994 112.244321 
L 96.85158 113.298711 
L 98.543678 109.844471 
L 96.181594 108.85168 
L 95.813584 106.575231 
L 95.345293 106.583352 
L 96.029286 106.51167 
L 95.517015 105.568591 
L 96.56993 104.690043 
L 96.893062 103.012444 
L 97.417009 102.59078 
L 98.792113 104.87249 
L 97.875194 104.866459 
L 98.121104 105.344183 
L 95.99487 104.758484 
L 92.881833 104.873721 
L 93.152446 103.583652 
L 91.969728 105.34078 
L 90.826024 105.6482 
L 88.697526 106.914403 
L 88.27245 106.131002 
L 86.608508 105.031283 
L 89.934042 104.092412 
L 90.954943 104.822309 
L 90.887912 105.780794 
L 89.071703 103.129665 
L 89.530957 101.980087 
L 87.627906 100.322204 
L 87.985834 99.033709 
L 89.185193 98.507982 
L 91.467299 96.839546 
L 90.077452 97.156311 
L 91.27546 97.166575 
L 90.883682 96.885749 
L 91.938713 95.09143 
L 90.963841 95.036331 
L 91.239654 95.764763 
L 89.279159 95.961372 
L 89.280008 94.156698 
L 87.28145 94.871843 
L 88.082507 95.131399 
L 88.276606 95.354488 
L 90.136147 96.205852 
L 91.046964 95.958987 
L 92.064668 95.939536 
L 95.367132 94.488632 
L 93.840089 94.125625 
L 94.243012 93.034242 
L 93.991337 94.249193 
L 94.045862 93.569954 
L 93.448031 92.768395 
L 96.017151 92.537732 
L 98.429249 90.534377 
L 97.703394 90.21972 
L 99.177705 89.977723 
L 98.792057 89.418008 
L 99.611921 87.334145 
L 100.588355 86.61156 
L 100.422707 86.110652 
L 96.870763 87.246363 
L 94.656751 86.641202 
L 95.137035 85.114059 
L 94.607724 86.750599 
L 91.89057 86.951857 
L 91.72585 88.079503 
L 91.971436 88.502503 
L 92.379186 87.92547 
L 92.755785 87.654121 
L 92.376797 84.988266 
L 93.304591 85.266681 
L 92.579778 86.500923 
L 90.609209 89.054152 
L 93.237147 89.679687 
L 90.857186 91.29398 
L 92.056255 90.748041 
L 92.237933 90.999007 
L 93.221407 92.058505 
L 93.424518 93.473369 
L 93.203812 96.971475 
L 94.523546 97.50608 
L 94.237988 99.012898 
L 97.287381 97.634497 
L 96.914747 100.672014 
L 94.863051 101.909581 
L 94.841799 100.973291 
L 92.557264 99.706004 
L 88.874672 100.304021 
L 90.812256 100.809846 
L 90.686814 101.373485 
L 91.505523 100.941416 
L 90.531262 101.993747 
L 90.045869 103.071941 
L 91.945625 103.275165 
L 91.988161 102.528538 
L 93.347105 102.851051 
L 94.212486 101.753232 
L 94.074165 102.862045 
L 98.33041 103.170385 
L 98.018965 101.748967 
L 96.697029 101.151193 
L 96.950786 101.843531 
L 95.818486 102.532309 
L 97.63785 103.386896 
L 95.694097 105.645959 
L 96.553046 105.564972 
L 98.250136 104.603896 
L 99.88097 103.867675 
L 102.317939 105.365449 
L 103.727184 104.953416 
L 104.794986 104.82516 
L 105.686517 103.953749 
L 104.43338 104.693833 
L 104.503315 105.806593 
L 105.083563 107.824521 
L 106.867106 106.301069 
L 107.651116 105.063425 
L 107.084171 107.683649 
L 108.334614 104.26227 
L 105.797013 103.822718 
L 105.274698 102.551766 
L 104.123523 103.38338 
L 103.204276 102.400711 
L 103.053159 101.32224 
L 103.573892 99.258734 
L 103.706178 99.410806 
L 106.190296 98.61951 
L 106.244955 99.036613 
L 106.295369 97.980202 
L 105.688677 98.226396 
L 107.752167 97.050667 
L 108.66689 98.92477 
L 108.760386 98.648963 
L 110.461461 99.338964 
L 110.55108 98.148816 
L 108.429948 97.27364 
L 106.841409 99.803372 
L 110.624777 101.407011 
L 112.326767 101.634882 
L 113.44892 101.426996 
L 111.381732 102.196414 
L 108.756033 100.829114 
L 108.353747 99.2018 
L 107.244638 100.390397 
L 106.883692 101.922824 
L 105.598839 102.340951 
L 105.74952 101.633883 
L 105.333235 101.931313 
L 104.753457 101.626383 
L 104.955998 100.501448 
L 106.58476 100.725989 
L 107.231578 99.720926 
L 107.527196 100.33217 
L 106.918278 100.713696 
L 106.957103 101.669819 
L 107.260045 101.659344 
L 106.774031 99.364939 
L 108.605694 98.843942 
L 107.51607 97.526759 
L 108.651515 96.575019 
L 110.390504 96.356478 
L 108.787078 94.450955 
L 110.35934 93.506901 
L 108.95416 96.006243 
L 109.673822 96.558369 
L 110.81215 95.343611 
L 110.051052 93.248946 
L 109.219179 91.737365 
L 108.996562 92.570076 
L 109.015934 93.346298 
L 109.75435 94.554115 
L 109.156645 94.593118 
L 108.536811 93.093272 
L 108.242967 90.891454 
L 110.0655 89.639763 
L 111.497493 90.009848 
L 113.021659 88.394115 
L 114.534692 87.875119 
L 114.218173 87.771709 
L 114.865429 88.272519 
L 115.922541 89.43183 
L 115.909451 88.90275 
L 115.437707 89.086682 
L 114.643783 91.648485 
L 114.574916 93.414034 
L 115.322132 93.032367 
L 114.084126 93.878504 
L 113.640137 94.485848 
L 112.395288 94.681678 
L 112.64185 92.207831 
L 112.818766 93.282624 
L 112.347455 93.030791 
L 112.95312 90.198972 
L 112.4236 90.732933 
L 112.512181 92.775046 
L 112.407877 93.2445 
L 112.396181 94.169575 
L 113.60542 95.414313 
L 114.040862 94.293755 
L 113.660465 94.899885 
L 115.222233 94.698955 
L 115.847832 93.294295 
L 114.450971 93.233198 
L 114.694028 94.888651 
L 115.17824 97.02041 
L 115.081589 97.644175 
L 115.236293 96.072904 
L 116.520976 95.742472 
L 118.56262 98.336187 
L 118.608023 98.814179 
L 118.872076 99.398445 
L 117.894229 99.636286 
L 116.088514 97.949952 
L 115.876033 97.150073 
L 116.779896 96.945858 
L 115.950137 97.344786 
L 116.058442 97.520902 
L 116.68191 96.885892 
L 117.384328 96.795342 
L 116.175445 93.419007 
L 116.649887 92.533466 
L 118.11378 94.392323 
L 119.008796 95.074056 
L 119.542921 92.990989 
L 120.059098 93.488276 
L 119.44167 92.003516 
L 118.492075 92.763784 
L 117.74486 93.640834 
L 118.649274 95.755983 
L 118.819745 95.749084 
L 119.146203 96.027027 
L 121.2323 98.419296 
L 121.962541 98.552383 
L 122.49117 99.338152 
L 121.731431 98.229052 
L 121.029462 99.464847 
L 119.792921 99.210396 
L 120.848035 99.552207 
L 120.738171 97.947349 
L 120.703574 99.476368 
L 121.253736 103.230292 
L 121.878164 103.197037 
L 122.418172 102.953064 
L 122.538356 101.993107 
L 120.538832 100.319883 
L 120.686926 99.196495 
L 121.860792 96.424533 
L 121.375703 96.478711 
L 122.546257 96.097034 
L 121.456181 97.554728 
L 120.972391 96.703549 
L 121.466098 95.419284 
L 121.786848 93.945414 
L 120.300705 94.147755 
L 119.292692 95.025291 
L 118.703202 93.195843 
L 117.379174 93.599399 
L 117.67646 94.959182 
L 117.651254 94.749293 
L 118.658825 94.187831 
L 120.631404 95.753001 
L 119.963661 95.174787 
L 119.655235 94.250757 
L 119.587129 92.778136 
L 119.670029 94.912318 
L 120.625925 93.942372 
L 121.871071 95.206868 
L 123.083919 98.64708 
L 124.083617 100.075657 
L 124.950907 99.814197 
L 125.454399 99.888384 
L 124.780166 98.835257 
L 123.870788 98.230258 
L 124.922607 99.247736 
L 123.652524 100.233008 
L 123.642349 97.52142 
L 124.256526 98.002679 
L 123.695223 100.178659 
L 122.79493 100.4189 
L 122.636721 99.938394 
L 122.078139 96.851456 
L 122.788347 97.961083 
L 123.683294 99.594754 
L 124.063874 99.166516 
L 124.212676 94.362884 
L 124.54595 93.305284 
L 124.460052 94.814112 
L 125.336878 93.863886 
L 125.314348 91.028387 
L 125.256714 91.156736 
L 126.432592 92.292597 
L 126.56036 92.900152 
L 126.292263 96.040409 
L 126.524403 96.681989 
L 126.539068 95.389747 
L 126.595427 96.891731 
L 127.495889 96.378309 
L 127.161879 93.647066 
L 127.894566 92.73849 
L 127.077346 92.669426 
L 125.604705 91.338772 
L 126.854853 89.556393 
L 126.045084 89.057626 
L 126.486959 90.855943 
L 127.221187 90.882312 
L 126.436675 90.599718 
L 126.297167 91.157976 
L 126.065011 90.457551 
L 127.089407 89.652007 
L 127.535378 91.672519 
L 128.452151 88.495823 
L 128.498431 90.026491 
L 127.825088 90.116974 
L 127.952747 91.840106 
L 128.43945 92.44296 
L 128.834896 91.228301 
L 127.99292 91.302336 
L 127.479639 90.841577 
L 126.821218 89.860444 
L 127.704236 90.620513 
L 127.826939 90.075635 
L 127.728867 88.409545 
L 129.168061 89.714032 
L 128.206794 91.02316 
L 127.891456 89.227983 
L 128.315617 88.197446 
L 129.439223 88.335304 
L 127.850177 86.356225 
L 128.674616 86.028174 
L 128.278952 85.128298 
L 126.885519 85.531671 
L 127.004982 84.395867 
L 127.66105 81.967421 
L 127.623066 83.271153 
L 128.332446 80.463883 
L 128.255887 80.450476 
L 127.396208 82.071381 
L 126.576171 84.158 
L 127.357532 84.67951 
L 125.336303 87.045409 
L 125.366063 83.899946 
L 124.403903 85.585459 
L 124.696679 84.603298 
L 123.712886 83.77071 
L 123.939413 81.830621 
L 123.710154 81.283181 
L 124.277226 78.82079 
L 123.461478 80.723862 
L 125.206982 79.324823 
L 125.843585 81.969992 
L 125.077102 84.190834 
L 124.135324 86.529121 
L 125.74746 88.168335 
L 125.804997 87.694112 
L 126.452302 87.431509 
L 125.265509 85.744539 
L 124.164646 88.998138 
L 124.243084 87.384786 
L 125.921335 87.295286 
L 125.628889 82.184751 
L 124.157899 82.646218 
L 123.873649 80.793267 
L 122.703548 79.913956 
L 122.546169 81.210693 
L 123.266613 81.115992 
L 123.913226 81.872185 
L 123.744054 81.322815 
L 124.429986 80.043896 
L 125.875023 79.26349 
L 124.967684 80.063607 
L 124.051305 78.538837 
L 123.379036 80.725798 
L 121.862791 84.26385 
L 123.046442 81.156427 
L 121.917496 81.904406 
L 123.265446 82.715587 
L 124.026824 82.980838 
L 123.691111 83.624911 
L 122.340329 84.591475 
L 123.306573 85.083128 
L 123.301061 84.535703 
L 122.434784 84.757747 
L 123.531238 85.626151 
L 122.764453 84.65753 
L 122.253534 86.746194 
L 123.399438 88.460789 
L 123.220494 88.196855 
L 123.93193 88.470233 
L 123.138471 90.85236 
L 123.860971 91.616943 
L 123.081252 93.181148 
L 123.909319 91.99923 
L 123.106373 89.920046 
L 124.400894 89.574321 
L 124.55561 87.969981 
L 123.718373 88.798466 
L 124.548034 89.989031 
L 124.226637 88.472387 
L 125.022099 88.397695 
L 124.664995 87.224274 
L 125.276489 89.237287 
L 124.788201 90.003693 
L 123.705801 91.082967 
L 123.490015 91.850827 
L 122.477966 91.331365 
L 123.123207 90.153327 
L 124.553868 93.284172 
L 122.746807 92.192628 
L 121.533006 93.663133 
L 122.063458 92.36006 
L 122.239771 92.595691 
L 122.641272 94.676565 
L 121.940791 96.024946 
L 121.969546 95.91092 
L 122.342421 96.256629 
L 122.576654 96.655368 
L 123.469979 94.123665 
L 123.449203 91.670205 
L 123.523835 93.917115 
L 123.998986 93.768655 
L 123.841925 95.648713 
L 124.003999 95.690927 
L 124.817084 97.004548 
L 124.967833 99.334939 
L 125.314026 98.631874 
L 123.887227 99.519729 
L 123.537824 100.085319 
L 122.799408 98.173524 
L 121.341501 102.116461 
L 120.534145 102.756089 
L 120.198312 103.385864 
L 120.210567 104.126445 
L 120.763759 103.084704 
L 121.966532 102.507206 
L 122.158275 99.197938 
L 122.624309 99.01877 
L 121.977641 96.190617 
L 121.566274 95.551744 
L 120.593276 94.956373 
L 119.736285 95.214561 
L 120.047841 90.944466 
L 118.653615 89.657891 
L 117.763061 94.250499 
L 116.470379 94.87008 
L 116.600054 92.324238 
L 117.272513 91.700868 
L 118.107013 91.620069 
L 118.842983 90.552268 
L 118.232194 92.357579 
L 118.384629 90.748275 
L 117.576718 90.28679 
L 118.695956 93.1892 
L 119.264617 92.370231 
L 118.879752 91.47791 
L 118.566213 89.834523 
L 117.474651 90.28486 
L 116.717221 89.761287 
L 116.735712 89.754665 
L 116.664982 87.861662 
L 116.002604 88.416198 
L 116.372517 87.112663 
L 117.043498 87.620348 
L 116.98442 89.154143 
L 117.399375 89.829081 
L 117.428001 89.536539 
L 117.890113 90.981593 
L 117.656001 89.706754 
L 116.549391 90.654329 
L 118.355295 89.488653 
L 118.228891 88.73868 
L 117.045148 89.228371 
L 117.540259 89.86426 
L 117.02211 86.058142 
L 115.803523 87.594029 
L 116.451824 87.968502 
L 117.377155 90.893876 
L 117.671399 90.697793 
L 118.124265 88.593053 
L 117.510016 88.476572 
L 116.657672 87.01909 
L 117.702833 84.361465 
L 117.924516 84.83954 
L 116.871941 84.856669 
L 116.215383 83.066286 
L 114.589173 83.574626 
L 115.410709 84.455518 
L 116.830155 84.980772 
L 118.165351 84.591503 
L 117.447389 83.555827 
L 118.533077 82.894468 
L 117.16046 81.786591 
L 116.982714 81.804816 
L 118.441309 82.872447 
L 118.623597 81.892381 
L 117.280455 80.889221 
L 118.83276 81.408288 
L 118.685355 82.19123 
L 119.162007 82.178716 
L 118.759914 81.266322 
L 119.890836 78.771408 
L 119.912485 78.136139 
L 120.446699 76.705427 
L 121.377738 80.534973 
L 122.345813 79.582126 
L 123.201874 81.922362 
L 123.147338 82.90348 
L 123.613063 82.309374 
L 124.740798 79.437694 
L 123.872844 79.762136 
L 123.706114 81.330107 
L 123.330801 82.044097 
L 123.771058 82.766523 
L 123.929516 82.320149 
L 123.624047 84.508463 
L 123.947376 83.756288 
L 123.793899 83.963761 
L 122.618814 83.46258 
L 123.623001 82.669165 
L 123.930691 79.725722 
L 123.953547 82.493366 
L 123.049468 84.591983 
L 123.844427 84.014674 
L 123.699653 83.295517 
L 123.384423 85.543513 
L 124.626854 81.531347 
L 125.964199 80.835114 
L 125.188873 81.550384 
L 124.521315 81.081869 
L 124.998479 80.236847 
L 124.576153 82.862108 
L 123.1836 82.428162 
L 121.96644 81.273607 
L 122.04244 80.576682 
L 121.240886 79.822631 
L 120.666206 76.166917 
L 121.921097 74.193255 
L 122.883064 74.332626 
L 123.543621 72.597989 
L 123.196443 73.068057 
L 124.310692 72.937683 
L 124.146646 70.689955 
L 124.832469 72.463787 
L 124.196981 76.249044 
L 125.297482 75.87503 
L 124.798098 76.457449 
L 122.469843 77.900888 
L 120.935509 77.441097 
L 121.974675 78.574845 
L 122.379693 75.299342 
L 121.627449 73.077153 
L 119.338879 70.713038 
L 119.473193 70.323223 
L 118.65285 68.051414 
L 118.28055 67.485091 
L 119.347956 65.977418 
L 119.518737 66.179579 
L 118.903252 68.770771 
L 118.459639 67.493849 
L 119.601363 67.3288 
L 119.033253 67.558464 
L 119.066268 65.853584 
L 117.30482 65.22132 
L 117.308159 64.801463 
L 116.681212 65.831461 
L 115.742872 63.620344 
L 115.253353 65.155112 
L 115.889944 64.536622 
L 118.089423 66.899639 
L 118.590183 65.285749 
L 117.935078 63.420086 
L 117.376632 64.033462 
L 117.671057 64.476117 
L 117.583308 64.713162 
L 117.363073 63.913266 
L 115.746865 64.11491 
L 118.169262 65.420655 
L 118.799109 64.471802 
L 117.28902 64.963213 
L 115.587464 64.047155 
L 113.839878 62.795414 
L 113.957032 62.305803 
L 115.422366 62.889751 
L 113.062132 61.247762 
L 112.257528 59.901558 
L 110.479513 59.962519 
L 110.829569 58.686352 
L 110.115248 61.441952 
L 109.391722 59.948242 
L 110.662485 60.02383 
L 109.075227 60.926879 
L 109.583583 61.921499 
L 108.189637 59.139828 
L 108.531802 57.744735 
L 107.949262 58.606264 
L 108.209146 61.900614 
L 107.482735 62.034031 
L 107.543112 61.109274 
L 109.398449 61.636821 
L 110.126952 61.043853 
L 109.736855 61.675897 
L 109.385769 62.954791 
L 110.244209 63.32095 
L 109.425904 63.280751 
L 109.331006 62.488861 
L 110.342995 60.689993 
L 111.145345 60.978762 
L 109.264151 60.319297 
L 110.742024 59.244358 
L 111.222721 56.484954 
L 110.605851 58.094497 
L 110.008106 57.795823 
L 111.158284 57.393592 
L 111.367462 57.027059 
L 111.854476 55.923532 
L 111.511637 56.246207 
L 113.355263 57.199729 
L 113.559719 54.587998 
L 113.810852 52.862103 
L 111.544652 51.484884 
L 111.416506 51.933542 
L 111.510218 50.409699 
L 111.720603 50.586241 
L 111.676274 51.139572 
L 114.66467 52.231284 
L 112.672061 51.813183 
L 114.959059 52.618179 
L 115.115608 52.871626 
L 114.403329 51.749695 
L 115.016492 52.660206 
L 114.782124 53.606621 
L 113.682659 53.842066 
L 112.920578 53.6907 
L 113.113606 52.186815 
L 114.274125 52.877696 
L 114.582905 52.321563 
L 115.288495 52.874169 
L 115.115744 53.153072 
L 115.358168 52.559799 
L 115.216943 51.50326 
L 115.865722 51.315446 
L 115.288394 53.095261 
L 116.87936 53.745565 
L 116.435777 53.413571 
L 116.36272 51.474717 
L 116.111624 50.245329 
L 116.120187 51.752467 
L 115.564061 51.456885 
L 115.318911 51.697155 
L 113.991619 52.448341 
L 114.293477 54.174894 
L 114.631359 54.563637 
L 115.520762 54.080519 
L 117.490841 54.379913 
L 118.30191 54.994305 
L 118.996947 55.840845 
L 119.576077 58.095058 
L 119.685245 57.799701 
L 121.771531 57.487508 
L 122.269978 56.748707 
L 122.14983 53.377772 
L 121.983965 52.905181 
L 121.245565 53.548046 
L 120.785642 51.542527 
L 121.278451 52.398581 
L 119.463799 51.532318 
L 118.808657 53.11329 
L 116.455314 53.94008 
L 117.057781 52.257033 
L 115.883044 51.417831 
L 116.070041 51.529057 
L 115.669863 51.681363 
L 115.381874 52.602838 
L 114.32513 53.121795 
L 115.761979 52.311651 
L 116.276585 52.866499 
L 115.963377 53.407349 
L 115.645126 54.567918 
L 116.56125 54.119968 
L 115.343558 54.996826 
L 115.367563 55.246546 
L 115.911728 54.482775 
L 116.146701 53.009827 
L 116.119521 54.857187 
L 115.261505 55.06214 
L 115.891704 55.182111 
L 116.497798 50.991957 
L 115.830926 50.607951 
L 117.660878 51.82826 
L 115.956942 51.449613 
L 116.656895 50.274947 
L 117.512571 49.844146 
L 117.430636 49.972564 
L 117.925498 48.646166 
L 118.883345 49.431126 
L 118.648368 50.080281 
L 118.368652 49.523072 
L 118.513753 48.706632 
L 118.817975 48.13043 
L 118.539309 47.182442 
L 119.225784 46.571516 
L 119.174206 46.17438 
L 120.109582 44.596566 
L 122.117973 45.24435 
L 121.9479 44.954435 
L 119.487484 46.099591 
L 118.152348 45.853059 
L 117.474961 47.192528 
L 118.629841 46.225106 
L 117.88477 44.745686 
L 118.102443 45.750722 
L 116.232315 45.014072 
L 115.618474 43.540422 
L 116.751805 43.749907 
L 115.376955 45.340281 
L 115.752206 43.817101 
L 116.317204 44.796014 
L 116.223836 43.822122 
L 116.722029 43.587933 
L 116.278959 43.964168 
L 115.450662 43.244987 
L 114.994786 43.956295 
L 115.442887 45.33928 
L 115.364197 46.956445 
L 113.621865 46.105549 
L 114.408189 45.131046 
L 113.680288 45.901133 
L 113.952846 46.752834 
L 113.749024 48.015582 
L 110.49066 48.11596 
L 110.941435 46.961068 
L 109.852343 45.865415 
L 110.662698 45.310388 
L 109.811318 43.293685 
L 111.066994 43.557159 
L 111.348685 44.292405 
L 110.970813 45.716834 
L 110.893342 45.585848 
L 111.715952 46.102616 
L 112.739534 47.36934 
L 113.400023 46.851871 
L 112.964162 49.217203 
L 111.969727 50.779078 
L 111.422712 49.655137 
L 111.263999 48.388237 
L 110.514657 49.834943 
L 109.400165 50.729048 
L 107.99202 51.089598 
L 105.617714 49.997007 
L 102.902902 53.737513 
L 104.520913 49.89906 
L 104.64034 48.147629 
L 104.944876 47.283543 
L 103.754655 46.548072 
L 105.021059 46.90615 
L 106.282325 45.657857 
L 105.190251 46.641187 
L 105.175509 45.689001 
L 103.950857 46.002339 
L 105.321326 46.371449 
L 106.000356 46.913842 
L 105.372186 46.560319 
L 104.846061 45.878313 
L 106.148719 45.5086 
L 106.267338 45.657857 
L 106.893203 45.771849 
L 107.85945 45.16812 
L 106.847643 45.833952 
L 105.85424 43.850015 
L 106.56496 45.016933 
L 107.541519 44.51983 
L 109.97406 45.737602 
L 109.505768 46.518018 
L 107.528556 48.901579 
L 107.192727 48.35461 
L 105.700797 48.181266 
L 103.341432 49.434407 
L 103.341432 49.434407 
" clip-path="url(#pe137f059dd)" style="fill: none; stroke-dasharray: 0.8,1.32; stroke-dashoffset: 0; stroke: #2ca02c; stroke-width: 0.8"/>
   </g>
   <g id="line2d_4">
    <path d="M 15.44478 148.949503 
L 150.444306 148.949503 
" clip-path="url(#pe137f059dd)" style="fill: none; stroke: #000000; stroke-width: 1.5; stroke-linecap: square"/>
   </g>
   <g id="line2d_5">
    <path d="M 15.44478 13.949976 
L 150.444306 13.949976 
" clip-path="url(#pe137f059dd)" style="fill: none; stroke: #000000; stroke-width: 1.5; stroke-linecap: square"/>
   </g>
   <g id="line2d_6">
    <path d="M 15.44478 148.949503 
L 15.44478 13.949976 
" clip-path="url(#pe137f059dd)" style="fill: none; stroke: #000000; stroke-width: 1.5; stroke-linecap: square"/>
   </g>
   <g id="line2d_7">
    <path d="M 150.444306 148.949503 
L 150.444306 13.949976 
" clip-path="url(#pe137f059dd)" style="fill: none; stroke: #000000; stroke-width: 1.5; stroke-linecap: square"/>
   </g>
   <g id="legend_1">
    <g id="patch_2">
     <path d="M 213.023669 101.614933 
L 281.375758 101.614933 
Q 283.175758 101.614933 283.175758 99.814933 
L 283.175758 63.084547 
Q 283.175758 61.284547 281.375758 61.284547 
L 213.023669 61.284547 
Q 211.223669 61.284547 211.223669 63.084547 
L 211.223669 99.814933 
Q 211.223669 101.614933 213.023669 101.614933 
z
" style="fill: #ffffff; opacity: 0.8; stroke: #cccccc; stroke-linejoin: miter"/>
    </g>
    <g id="line2d_8">
     <path d="M 214.823669 68.034547 
L 223.823669 68.034547 
L 232.823669 68.034547 
" style="fill: none; stroke: #1f77b4; stroke-width: 0.8; stroke-linecap: square"/>
    </g>
    <g id="text_1">
     <!-- Euclidean -->
     <g transform="translate(240.023669 71.184547) scale(0.09 -0.09)">
      <defs>
       <path id="CMR17-45" d="M 3885 1615 
L 3770 1615 
C 3629 676 3546 166 2419 166 
L 1530 166 
C 1274 166 1261 197 1261 414 
L 1261 2176 
L 1862 2176 
C 2464 2176 2522 1960 2522 1430 
L 2637 1430 
L 2637 3081 
L 2522 3081 
C 2522 2557 2464 2342 1862 2342 
L 1261 2342 
L 1261 3913 
C 1261 4128 1274 4160 1530 4160 
L 2406 4160 
C 3398 4160 3514 3769 3603 2929 
L 3718 2929 
L 3565 4325 
L 326 4325 
L 326 4160 
C 768 4160 838 4160 838 3874 
L 838 451 
C 838 166 768 166 326 166 
L 326 0 
L 3654 0 
L 3885 1615 
z
" transform="scale(0.015625)"/>
       <path id="CMR17-75" d="M 1882 2693 
L 1882 2528 
C 2259 2528 2317 2489 2317 2186 
L 2317 1032 
C 2317 500 2029 38 1555 38 
C 1030 38 986 348 986 678 
L 986 2763 
L 211 2693 
L 211 2528 
C 467 2528 640 2528 646 2274 
L 646 1058 
C 646 633 646 361 813 183 
C 896 101 1056 -64 1517 -64 
C 2061 -64 2272 377 2323 506 
L 2330 506 
L 2330 -63 
L 3091 -63 
L 3091 128 
C 2714 128 2656 166 2656 473 
L 2656 2763 
L 1882 2693 
z
" transform="scale(0.015625)"/>
       <path id="CMR17-63" d="M 2234 2240 
C 2112 2240 1933 2240 1933 2017 
C 1933 1838 2080 1787 2163 1787 
C 2208 1787 2394 1807 2394 2024 
C 2394 2467 1958 2803 1466 2803 
C 787 2803 211 2178 211 1363 
C 211 516 813 -64 1466 -64 
C 2259 -64 2458 677 2458 748 
C 2458 774 2451 793 2406 793 
C 2362 793 2355 787 2330 703 
C 2163 180 1798 51 1523 51 
C 1114 51 621 427 621 1369 
C 621 2338 1094 2688 1472 2688 
C 1722 2688 2093 2573 2234 2240 
z
" transform="scale(0.015625)"/>
       <path id="CMR17-6c" d="M 979 4396 
L 218 4326 
L 218 4160 
C 595 4160 653 4122 653 3817 
L 653 426 
C 653 184 627 153 218 153 
L 218 -13 
C 371 0 653 0 813 0 
C 979 0 1261 0 1414 -13 
L 1414 153 
C 1005 153 979 178 979 426 
L 979 4396 
z
" transform="scale(0.015625)"/>
       <path id="CMR17-69" d="M 992 3909 
C 992 4049 877 4170 730 4170 
C 589 4170 467 4056 467 3909 
C 467 3769 582 3648 730 3648 
C 870 3648 992 3763 992 3909 
z
M 243 2706 
L 243 2541 
C 602 2541 653 2502 653 2197 
L 653 427 
C 653 184 627 153 218 153 
L 218 -13 
C 371 0 646 0 806 0 
C 960 0 1222 0 1370 -13 
L 1370 153 
C 992 153 979 191 979 420 
L 979 2776 
L 243 2706 
z
" transform="scale(0.015625)"/>
       <path id="CMR17-64" d="M 1869 4326 
L 1869 4160 
C 2246 4160 2304 4122 2304 3820 
L 2304 2345 
C 2278 2377 2016 2790 1498 2790 
C 845 2790 211 2208 211 1364 
C 211 525 806 -64 1434 -64 
C 1978 -64 2259 337 2291 380 
L 2291 -63 
L 3066 -63 
L 3066 128 
C 2688 128 2630 166 2630 473 
L 2630 4396 
L 1869 4326 
z
M 2291 755 
C 2291 563 2176 390 2029 262 
C 1811 70 1594 38 1472 38 
C 1286 38 621 134 621 1356 
C 621 2612 1363 2688 1530 2688 
C 1824 2688 2061 2522 2208 2291 
C 2291 2157 2291 2138 2291 2023 
L 2291 755 
z
" transform="scale(0.015625)"/>
       <path id="CMR17-65" d="M 2438 1472 
C 2464 1498 2464 1511 2464 1576 
C 2464 2238 2118 2816 1389 2816 
C 710 2816 173 2169 173 1383 
C 173 551 781 -64 1459 -64 
C 2176 -64 2458 607 2458 740 
C 2458 784 2419 784 2406 784 
C 2362 784 2355 771 2330 696 
C 2189 265 1837 51 1504 51 
C 1229 51 954 203 781 480 
C 582 803 582 1176 582 1472 
L 2438 1472 
z
M 589 1568 
C 634 2505 1126 2714 1382 2714 
C 1818 2714 2112 2297 2118 1568 
L 589 1568 
z
" transform="scale(0.015625)"/>
       <path id="CMR17-61" d="M 2304 1653 
C 2304 2072 2304 2294 2035 2543 
C 1798 2752 1523 2816 1306 2816 
C 800 2816 435 2407 435 1971 
C 435 1728 627 1728 666 1728 
C 749 1728 896 1778 896 1954 
C 896 2112 774 2181 666 2181 
C 640 2181 608 2174 589 2168 
C 723 2592 1069 2714 1293 2714 
C 1613 2714 1965 2429 1965 1885 
L 1965 1600 
C 1587 1600 1133 1549 774 1357 
C 371 1133 256 813 256 570 
C 256 77 832 -64 1171 -64 
C 1523 -64 1850 139 1990 511 
C 2003 233 2182 -18 2464 -18 
C 2598 -18 2938 70 2938 567 
L 2938 920 
L 2822 920 
L 2822 562 
C 2822 178 2650 128 2566 128 
C 2304 128 2304 458 2304 738 
L 2304 1653 
z
M 1965 870 
C 1965 317 1568 38 1216 38 
C 896 38 646 275 646 570 
C 646 761 730 1100 1101 1305 
C 1408 1478 1760 1504 1965 1504 
L 1965 870 
z
" transform="scale(0.015625)"/>
       <path id="CMR17-6e" d="M 2656 1933 
C 2656 2259 2592 2790 1837 2790 
C 1331 2790 1069 2400 973 2144 
L 966 2144 
L 966 2790 
L 211 2720 
L 211 2554 
C 589 2554 646 2515 646 2208 
L 646 428 
C 646 184 621 153 211 153 
L 211 -13 
C 365 0 646 0 813 0 
C 979 0 1267 0 1421 -13 
L 1421 153 
C 1011 153 986 178 986 428 
L 986 1658 
C 986 2247 1344 2688 1792 2688 
C 2266 2688 2317 2266 2317 1958 
L 2317 428 
C 2317 184 2291 153 1882 153 
L 1882 -13 
C 2035 0 2317 0 2483 0 
C 2650 0 2938 0 3091 -13 
L 3091 153 
C 2682 153 2656 178 2656 428 
L 2656 1933 
z
" transform="scale(0.015625)"/>
      </defs>
      <use xlink:href="#CMR17-45" transform="scale(0.996264)"/>
      <use xlink:href="#CMR17-75" transform="translate(62.586301 0) scale(0.996264)"/>
      <use xlink:href="#CMR17-63" transform="translate(113.48167 0) scale(0.996264)"/>
      <use xlink:href="#CMR17-6c" transform="translate(153.967331 0) scale(0.996264)"/>
      <use xlink:href="#CMR17-69" transform="translate(178.838389 0) scale(0.996264)"/>
      <use xlink:href="#CMR17-64" transform="translate(203.709448 0) scale(0.996264)"/>
      <use xlink:href="#CMR17-65" transform="translate(254.604818 0) scale(0.996264)"/>
      <use xlink:href="#CMR17-61" transform="translate(295.090478 0) scale(0.996264)"/>
      <use xlink:href="#CMR17-6e" transform="translate(340.780955 0) scale(0.996264)"/>
     </g>
    </g>
    <g id="line2d_9">
     <path d="M 214.823669 80.578009 
L 223.823669 80.578009 
L 232.823669 80.578009 
" style="fill: none; stroke-dasharray: 2.96,1.28; stroke-dashoffset: 0; stroke: #ff7f0e; stroke-width: 0.8"/>
    </g>
    <g id="text_2">
     <!-- Reflected -->
     <g transform="translate(240.023669 83.728009) scale(0.09 -0.09)">
      <defs>
       <path id="CMR17-52" d="M 2509 2146 
C 3117 2268 3629 2676 3629 3186 
C 3629 3785 2950 4326 2054 4326 
L 333 4326 
L 333 4160 
C 774 4160 845 4160 845 3873 
L 845 415 
C 845 128 774 128 333 128 
L 333 -26 
C 518 -26 851 -26 1050 -26 
C 1248 -26 1581 -26 1766 -26 
L 1766 128 
C 1325 128 1254 128 1254 417 
L 1254 2112 
L 2003 2112 
C 2368 2112 2573 1964 2662 1881 
C 2918 1632 2918 1459 2918 1024 
C 2918 595 2918 377 3110 160 
C 3354 -102 3680 -128 3821 -128 
C 4294 -128 4365 396 4365 503 
C 4365 540 4365 585 4307 585 
C 4256 585 4250 547 4250 522 
C 4218 112 4032 -26 3834 -26 
C 3482 -26 3443 375 3405 764 
C 3386 898 3373 993 3360 1133 
C 3322 1452 3270 1917 2509 2146 
z
M 1984 2214 
L 1254 2214 
L 1254 3913 
C 1254 4129 1267 4160 1523 4160 
L 1990 4160 
C 2522 4160 3142 3977 3142 3190 
C 3142 2372 2464 2214 1984 2214 
z
" transform="scale(0.015625)"/>
       <path id="CMR17-d" d="M 2554 4409 
C 2483 4396 2426 4384 2342 4365 
C 2157 4460 1914 4460 1850 4460 
C 1306 4460 634 4154 634 3472 
L 634 2725 
L 122 2725 
L 122 2560 
L 634 2560 
L 634 427 
C 634 184 608 153 198 153 
L 198 -13 
C 352 0 634 0 794 0 
C 960 0 1242 0 1395 -13 
L 1395 153 
C 986 153 960 178 960 427 
L 960 2560 
L 2227 2560 
L 2227 427 
C 2227 184 2202 153 1792 153 
L 1792 -13 
C 1946 0 2227 0 2387 0 
C 2554 0 2835 0 2989 -13 
L 2989 153 
C 2579 153 2554 178 2554 427 
L 2554 4409 
z
M 947 2725 
L 947 3469 
C 947 4028 1370 4352 1837 4352 
C 1869 4352 2221 4352 2221 4282 
C 2221 4275 2214 4269 2182 4237 
C 2125 4199 2099 4135 2099 4071 
C 2099 3981 2144 3905 2227 3873 
L 2227 2725 
L 947 2725 
z
" transform="scale(0.015625)"/>
       <path id="CMR17-74" d="M 966 2560 
L 1862 2560 
L 1862 2725 
L 966 2725 
L 966 3904 
L 851 3904 
C 838 3245 614 2668 70 2668 
L 70 2560 
L 627 2560 
L 627 771 
C 627 650 627 -64 1370 -64 
C 1747 -64 1965 306 1965 777 
L 1965 1140 
L 1850 1140 
L 1850 783 
C 1850 344 1677 51 1408 51 
C 1222 51 966 178 966 758 
L 966 2560 
z
" transform="scale(0.015625)"/>
      </defs>
      <use xlink:href="#CMR17-52" transform="scale(0.996264)"/>
      <use xlink:href="#CMR17-65" transform="translate(67.791102 0) scale(0.996264)"/>
      <use xlink:href="#CMR17-d" transform="translate(108.276762 0) scale(0.996264)"/>
      <use xlink:href="#CMR17-65" transform="translate(158.018986 0) scale(0.996264)"/>
      <use xlink:href="#CMR17-63" transform="translate(198.504646 0) scale(0.996264)"/>
      <use xlink:href="#CMR17-74" transform="translate(238.990307 0) scale(0.996264)"/>
      <use xlink:href="#CMR17-65" transform="translate(274.271075 0) scale(0.996264)"/>
      <use xlink:href="#CMR17-64" transform="translate(314.756735 0) scale(0.996264)"/>
     </g>
    </g>
    <g id="line2d_10">
     <path d="M 214.823669 93.121471 
L 223.823669 93.121471 
L 232.823669 93.121471 
" style="fill: none; stroke-dasharray: 0.8,1.32; stroke-dashoffset: 0; stroke: #2ca02c; stroke-width: 0.8"/>
    </g>
    <g id="text_3">
     <!-- Hessian -->
     <g transform="translate(240.023669 96.271471) scale(0.09 -0.09)">
      <defs>
       <path id="CMR17-48" d="M 3590 3905 
C 3590 4192 3661 4192 4102 4192 
L 4102 4352 
C 3917 4352 3578 4352 3379 4352 
C 3181 4352 2842 4352 2656 4352 
L 2656 4192 
C 3098 4192 3168 4192 3168 3904 
L 3168 2341 
L 1261 2341 
L 1261 3904 
C 1261 4192 1331 4192 1773 4192 
L 1773 4352 
C 1587 4352 1248 4352 1050 4352 
C 851 4352 512 4352 326 4352 
L 326 4192 
C 768 4192 838 4192 838 3905 
L 838 447 
C 838 160 768 160 326 160 
L 326 0 
C 512 0 851 0 1050 0 
C 1248 0 1587 0 1773 0 
L 1773 160 
C 1331 160 1261 160 1261 446 
L 1261 2176 
L 3168 2176 
L 3168 446 
C 3168 160 3098 160 2656 160 
L 2656 0 
C 2842 0 3181 0 3379 0 
C 3578 0 3917 0 4102 0 
L 4102 160 
C 3661 160 3590 160 3590 447 
L 3590 3905 
z
" transform="scale(0.015625)"/>
       <path id="CMR17-73" d="M 1978 2697 
C 1978 2813 1971 2819 1933 2819 
C 1907 2819 1901 2813 1824 2717 
C 1805 2691 1747 2626 1728 2601 
C 1523 2819 1235 2819 1126 2819 
C 416 2819 160 2447 160 2076 
C 160 1498 813 1365 998 1325 
C 1402 1243 1542 1217 1677 1101 
C 1760 1025 1901 884 1901 654 
C 1901 384 1747 38 1158 38 
C 602 38 403 460 288 1021 
C 269 1110 269 1117 218 1117 
C 166 1117 160 1110 160 983 
L 160 63 
C 160 -51 166 -58 205 -58 
C 237 -58 243 -51 275 0 
C 314 57 410 211 448 276 
C 576 103 800 -64 1158 -64 
C 1792 -64 2131 283 2131 784 
C 2131 1112 1958 1285 1875 1362 
C 1683 1561 1459 1606 1190 1657 
C 838 1735 390 1825 390 2217 
C 390 2383 480 2737 1126 2737 
C 1811 2737 1850 2094 1862 1888 
C 1869 1856 1901 1849 1920 1849 
C 1978 1849 1978 1869 1978 1978 
L 1978 2697 
z
" transform="scale(0.015625)"/>
      </defs>
      <use xlink:href="#CMR17-48" transform="scale(0.996264)"/>
      <use xlink:href="#CMR17-65" transform="translate(69.07243 0) scale(0.996264)"/>
      <use xlink:href="#CMR17-73" transform="translate(109.55809 0) scale(0.996264)"/>
      <use xlink:href="#CMR17-73" transform="translate(145.359428 0) scale(0.996264)"/>
      <use xlink:href="#CMR17-69" transform="translate(181.160766 0) scale(0.996264)"/>
      <use xlink:href="#CMR17-61" transform="translate(206.031824 0) scale(0.996264)"/>
      <use xlink:href="#CMR17-6e" transform="translate(251.722301 0) scale(0.996264)"/>
     </g>
    </g>
   </g>
  </g>
 </g>
 <defs>
  <clipPath id="pe137f059dd">
   <rect x="7.2" y="7.2" width="181.385154" height="148.499479"/>
  </clipPath>
 </defs>
</svg>
