<?xml version="1.0" encoding="utf-8" standalone="no"?>
<!DOCTYPE svg PUBLIC "-//W3C//DTD SVG 1.1//EN"
  "http://www.w3.org/Graphics/SVG/1.1/DTD/svg11.dtd">
<svg xmlns:xlink="http://www.w3.org/1999/xlink" width="123.523758pt" height="123.523758pt" viewBox="0 0 123.523758 123.523758" xmlns="http://www.w3.org/2000/svg" version="1.1">
 <metadata>
  <rdf:RDF xmlns:dc="http://purl.org/dc/elements/1.1/" xmlns:cc="http://creativecommons.org/ns#" xmlns:rdf="http://www.w3.org/1999/02/22-rdf-syntax-ns#">
   <cc:Work>
    <dc:type rdf:resource="http://purl.org/dc/dcmitype/StillImage"/>
    <dc:date>2025-02-26T20:58:38.551900</dc:date>
    <dc:format>image/svg+xml</dc:format>
    <dc:creator>
     <cc:Agent>
      <dc:title>Matplotlib v3.9.2, https://matplotlib.org/</dc:title>
     </cc:Agent>
    </dc:creator>
   </cc:Work>
  </rdf:RDF>
 </metadata>
 <defs>
  <style type="text/css">*{stroke-linejoin: round; stroke-linecap: butt}</style>
 </defs>
 <g id="figure_1">
  <g id="patch_1">
   <path d="M 0 123.523758 
L 123.523758 123.523758 
L 123.523758 0 
L 0 0 
L 0 123.523758 
z
" style="fill: none"/>
  </g>
  <g id="axes_1">
   <g id="PathCollection_1">
    <defs>
     <path id="mab9a560b5d" d="M 0 3 
C 0.795609 3 1.55874 2.683901 2.12132 2.12132 
C 2.683901 1.55874 3 0.795609 3 0 
C 3 -0.795609 2.683901 -1.55874 2.12132 -2.12132 
C 1.55874 -2.683901 0.795609 -3 0 -3 
C -0.795609 -3 -1.55874 -2.683901 -2.12132 -2.12132 
C -2.683901 -1.55874 -3 -0.795609 -3 0 
C -3 0.795609 -2.683901 1.55874 -2.12132 2.12132 
C -1.55874 2.683901 -0.795609 3 0 3 
z
" style="stroke: #1f77b4"/>
    </defs>
    <g clip-path="url(#p2e31cad99f)">
     <use xlink:href="#mab9a560b5d" x="84.922584" y="62.379498" style="fill: #1f77b4; stroke: #1f77b4"/>
    </g>
   </g>
   <g id="line2d_1">
    <path d="M 84.922584 62.379498 
L 87.106084 60.414349 
L 89.289584 58.449195 
L 91.473085 56.484046 
L 93.656585 54.518897 
L 95.840086 52.553743 
L 98.023586 50.588595 
L 100.207092 48.623446 
L 102.390587 46.658292 
L 104.574092 44.693143 
L 106.320895 42.727994 
L 104.137389 40.76284 
L 101.953894 38.797691 
L 99.770388 36.832542 
L 97.586883 34.867389 
L 95.403388 32.90224 
L 93.219892 30.937086 
L 91.036387 28.971937 
L 88.852881 27.006788 
L 86.669386 25.041639 
L 84.485891 23.07649 
L 82.302385 21.111336 
L 80.11888 19.146182 
L 77.935384 21.111331 
L 75.751879 23.07648 
L 73.568384 25.041629 
L 71.384878 27.006778 
L 69.201372 28.971937 
L 67.017877 30.937086 
L 64.834382 32.902235 
L 62.650876 34.867383 
L 60.467371 36.832542 
L 58.283876 38.797691 
L 56.10038 40.76284 
L 53.916875 42.727989 
L 51.733369 44.693138 
L 49.549874 46.658287 
L 47.366379 48.623435 
L 45.182873 50.588584 
L 42.999368 52.553733 
L 40.815872 54.518882 
L 38.632367 56.484051 
L 36.448871 58.44919 
L 34.265366 60.414349 
L 32.081871 62.379498 
L 29.898365 64.344647 
L 27.71487 66.309795 
L 25.531364 68.274944 
L 23.347859 70.240103 
L 21.164363 72.205242 
L 21.164353 74.170401 
L 23.347859 76.13555 
L 25.531364 78.100699 
L 27.714849 80.065847 
L 29.898375 82.031007 
L 32.08186 83.996145 
L 34.265366 85.961304 
L 36.448871 87.926453 
L 38.632356 89.891602 
L 40.815862 91.856751 
L 42.999368 93.8219 
L 45.182852 95.787048 
L 47.366379 97.752207 
L 49.549864 99.717346 
L 51.733369 101.682505 
L 53.916875 103.647664 
L 56.10036 105.612803 
L 58.283886 103.647664 
L 60.467371 101.682515 
L 62.650876 99.717367 
L 64.834382 97.752218 
L 67.017867 95.787048 
L 69.201372 93.82192 
L 71.384878 91.856751 
L 73.568363 89.891622 
L 75.751889 87.926453 
L 77.935374 85.961325 
L 80.11888 83.996155 
L 82.302385 82.031027 
L 84.48587 80.065858 
L 86.669376 78.10073 
L 88.852881 76.13556 
L 91.036387 74.170391 
L 93.219892 72.205262 
L 95.403377 70.240114 
L 97.586883 68.274965 
L 99.770388 66.309795 
L 101.953894 64.344647 
L 104.137379 62.379498 
L 106.320885 60.414349 
L 104.574092 58.4492 
L 102.390587 56.484051 
L 100.207102 54.518902 
L 98.023596 52.553754 
L 95.840091 50.588605 
L 93.656585 48.623456 
L 91.47308 46.658287 
L 89.289595 44.693158 
L 87.106089 42.72801 
L 84.922584 40.76284 
" clip-path="url(#p2e31cad99f)" style="fill: none; stroke: #1f77b4; stroke-width: 1.5; stroke-linecap: square"/>
   </g>
   <g id="line2d_2">
    <path d="M 20.072611 105.612813 
L 106.539241 105.612813 
" clip-path="url(#p2e31cad99f)" style="fill: none; stroke: #000000; stroke-width: 1.5; stroke-linecap: square"/>
   </g>
   <g id="line2d_3">
    <path d="M 20.072611 19.146182 
L 106.539241 19.146182 
" clip-path="url(#p2e31cad99f)" style="fill: none; stroke: #000000; stroke-width: 1.5; stroke-linecap: square"/>
   </g>
   <g id="line2d_4">
    <path d="M 20.072611 105.612813 
L 20.072611 19.146182 
" clip-path="url(#p2e31cad99f)" style="fill: none; stroke: #000000; stroke-width: 1.5; stroke-linecap: square"/>
   </g>
   <g id="line2d_5">
    <path d="M 106.539241 105.612813 
L 106.539241 19.146182 
" clip-path="url(#p2e31cad99f)" style="fill: none; stroke: #000000; stroke-width: 1.5; stroke-linecap: square"/>
   </g>
  </g>
 </g>
 <defs>
  <clipPath id="p2e31cad99f">
   <rect x="15.749279" y="14.822851" width="95.113294" height="95.113294"/>
  </clipPath>
 </defs>
</svg>
