<?xml version="1.0" encoding="UTF-8"?>
<svg xmlns="http://www.w3.org/2000/svg" xmlns:xlink="http://www.w3.org/1999/xlink" width="116.855993pt" height="79.200002pt" viewBox="0 0 116.855993 79.200002" version="1.1">
<defs>
<clipPath id="clip1">
  <path d="M 9 71 L 17 71 L 17 79.199219 L 9 79.199219 Z M 9 71 "/>
</clipPath>
<clipPath id="clip2">
  <path d="M 66.335938 5.339844 L 70.335938 5.339844 L 70.335938 9.46875 L 66.335938 9.46875 Z M 66.335938 5.339844 "/>
</clipPath>
<clipPath id="clip3">
  <path d="M 70.335938 2.339844 L 73 2.339844 L 73 6 L 70.335938 6 Z M 70.335938 2.339844 "/>
</clipPath>
<clipPath id="clip4">
  <path d="M 97.335938 5.242188 L 101.335938 5.242188 L 101.335938 9.46875 L 97.335938 9.46875 Z M 97.335938 5.242188 "/>
</clipPath>
<clipPath id="clip5">
  <path d="M 32.433594 16.574219 L 37.992188 16.574219 L 37.992188 20.800781 L 32.433594 20.800781 Z M 32.433594 16.574219 "/>
</clipPath>
<clipPath id="clip6">
  <path d="M 53.023438 53.5 L 57.796875 53.5 L 57.796875 59.726562 L 53.023438 59.726562 Z M 53.023438 53.5 "/>
</clipPath>
<clipPath id="clip7">
  <path d="M 13 56.320312 L 15.707031 56.320312 L 15.707031 60.175781 L 13 60.175781 Z M 13 56.320312 "/>
</clipPath>
<clipPath id="clip8">
  <path d="M 0 0 L 93 0 L 93 79.199219 L 0 79.199219 Z M 0 0 "/>
</clipPath>
</defs>
<g id="surface1">
<path style="fill:none;stroke-width:0.705827;stroke-linecap:butt;stroke-linejoin:miter;stroke:rgb(0%,0%,0%);stroke-opacity:1;stroke-miterlimit:4;" d="M 84.191406 23.078125 L 8.273438 66.910156 "/>
<path style="fill:none;stroke-width:0.425197;stroke-linecap:butt;stroke-linejoin:miter;stroke:rgb(0%,0%,0%);stroke-opacity:1;stroke-miterlimit:4;" d="M 87.132812 32.34375 L 12.761719 75.28125 "/>
<path style="fill:none;stroke-width:0.368231;stroke-linecap:butt;stroke-linejoin:miter;stroke:rgb(0%,0%,0%);stroke-opacity:1;stroke-miterlimit:4;" d="M -51.34631 -60.515886 L -51.345367 -63.460654 " transform="matrix(-1,0.57735,-0.57735,-1,0,0)"/>
<g clip-path="url(#clip1)" clip-rule="nonzero">
<path style="fill:none;stroke-width:0.368231;stroke-linecap:butt;stroke-linejoin:miter;stroke:rgb(0%,0%,0%);stroke-opacity:1;stroke-miterlimit:4;" d="M 23.027432 -60.513706 L 23.025445 -63.460165 " transform="matrix(-1,0.57735,-0.57735,-1,0,0)"/>
</g>
<path style="fill:none;stroke-width:0.704421;stroke-linecap:butt;stroke-linejoin:miter;stroke:rgb(0%,0%,0%);stroke-opacity:1;stroke-miterlimit:4;" d="M 84.101562 22.707031 L 60.132812 8.867188 "/>
<path style="fill-rule:evenodd;fill:rgb(0%,0%,0%);fill-opacity:1;stroke-width:0.406698;stroke-linecap:butt;stroke-linejoin:miter;stroke:rgb(0%,0%,0%);stroke-opacity:1;stroke-miterlimit:4;" d="M -47.178156 19.386746 L -49.817805 20.910747 L -49.817542 17.859814 Z M -47.178156 19.386746 " transform="matrix(-1,-0.57735,0.57735,-1,0,0)"/>
<path style="fill:none;stroke-width:0.704421;stroke-linecap:butt;stroke-linejoin:miter;stroke:rgb(0%,0%,0%);stroke-opacity:1;stroke-dasharray:2.11326,0.704421;stroke-miterlimit:4;" d="M 84.8125 22.707031 L 108.78125 8.867188 "/>
<path style="fill-rule:evenodd;fill:rgb(0%,0%,0%);fill-opacity:1;stroke-width:0.406698;stroke-linecap:butt;stroke-linejoin:miter;stroke:rgb(0%,0%,0%);stroke-opacity:1;stroke-miterlimit:4;" d="M 79.50742 53.755172 L 76.868034 55.282103 L 76.867771 52.23117 Z M 79.50742 53.755172 " transform="matrix(1,-0.57735,0.57735,1,0,0)"/>
<path style="fill:none;stroke-width:0.399685;stroke-linecap:butt;stroke-linejoin:miter;stroke:rgb(0%,0%,0%);stroke-opacity:1;stroke-dasharray:0.399685,0.399685;stroke-miterlimit:4;" d="M 84.496094 22.917969 L 24.773438 22.917969 "/>
<path style="fill-rule:evenodd;fill:rgb(0%,0%,0%);fill-opacity:1;stroke-width:0.266457;stroke-linecap:butt;stroke-linejoin:miter;stroke:rgb(0%,0%,0%);stroke-opacity:1;stroke-miterlimit:4;" d="M -23.617188 -22.917969 L -25.347656 -21.921875 L -25.347656 -23.917969 Z M -23.617188 -22.917969 " transform="matrix(-1,0,0,-1,0,0)"/>
<path style=" stroke:none;fill-rule:nonzero;fill:rgb(0%,0%,0%);fill-opacity:1;" d="M 69.003906 3.25 L 67.753906 4.453125 L 67.925781 4.640625 L 69.003906 3.734375 L 70.066406 4.640625 L 70.222656 4.453125 Z M 69.003906 3.25 "/>
<g clip-path="url(#clip2)" clip-rule="nonzero">
<path style=" stroke:none;fill-rule:nonzero;fill:rgb(0%,0%,0%);fill-opacity:1;" d="M 69.898438 6.109375 C 69.507812 6.15625 69.476562 6.453125 69.476562 6.515625 C 69.476562 6.671875 69.585938 6.78125 69.757812 6.78125 C 70.007812 6.78125 70.179688 6.578125 70.179688 6.28125 C 70.179688 5.84375 69.742188 5.5 69.085938 5.5 C 67.882812 5.5 67.539062 6.40625 67.539062 6.8125 C 67.539062 7.15625 67.710938 7.328125 67.820312 7.4375 C 68.007812 7.609375 68.242188 7.671875 68.570312 7.734375 C 68.976562 7.8125 69.054688 7.828125 69.226562 7.9375 C 69.367188 8.046875 69.445312 8.1875 69.445312 8.390625 C 69.445312 8.609375 69.226562 9.34375 68.148438 9.34375 C 67.945312 9.34375 67.320312 9.3125 67.117188 8.90625 C 67.570312 8.90625 67.648438 8.546875 67.648438 8.421875 C 67.648438 8.15625 67.414062 8.09375 67.320312 8.09375 C 67.148438 8.09375 66.804688 8.21875 66.804688 8.6875 C 66.804688 9.25 67.382812 9.5625 68.132812 9.5625 C 69.648438 9.5625 69.976562 8.46875 69.976562 8.078125 C 69.976562 7.734375 69.789062 7.515625 69.679688 7.421875 C 69.445312 7.171875 69.164062 7.125 68.851562 7.0625 C 68.742188 7.03125 68.539062 7 68.507812 6.984375 C 68.226562 6.921875 68.054688 6.75 68.054688 6.515625 C 68.054688 6.421875 68.117188 6.125 68.367188 5.9375 C 68.617188 5.734375 68.960938 5.734375 69.085938 5.734375 C 69.398438 5.734375 69.757812 5.828125 69.898438 6.109375 Z M 69.898438 6.109375 "/>
</g>
<g clip-path="url(#clip3)" clip-rule="nonzero">
<path style=" stroke:none;fill-rule:nonzero;fill:rgb(0%,0%,0%);fill-opacity:1;" d="M 72.503906 2.847656 C 72.550781 2.753906 72.566406 2.691406 72.566406 2.660156 C 72.566406 2.472656 72.394531 2.316406 72.191406 2.316406 C 71.957031 2.316406 71.878906 2.519531 71.863281 2.613281 L 71.019531 5.175781 C 71.019531 5.207031 70.988281 5.253906 70.988281 5.269531 C 70.988281 5.378906 71.238281 5.425781 71.238281 5.425781 C 71.300781 5.425781 71.316406 5.378906 71.347656 5.332031 Z M 72.503906 2.847656 "/>
</g>
<path style=" stroke:none;fill-rule:nonzero;fill:rgb(0%,0%,0%);fill-opacity:1;" d="M 100.003906 3.25 L 98.753906 4.453125 L 98.925781 4.640625 L 100.003906 3.734375 L 101.066406 4.640625 L 101.222656 4.453125 Z M 100.003906 3.25 "/>
<g clip-path="url(#clip4)" clip-rule="nonzero">
<path style=" stroke:none;fill-rule:nonzero;fill:rgb(0%,0%,0%);fill-opacity:1;" d="M 100.898438 6.109375 C 100.507812 6.15625 100.476562 6.453125 100.476562 6.515625 C 100.476562 6.671875 100.585938 6.78125 100.757812 6.78125 C 101.007812 6.78125 101.179688 6.578125 101.179688 6.28125 C 101.179688 5.84375 100.742188 5.5 100.085938 5.5 C 98.882812 5.5 98.539062 6.40625 98.539062 6.8125 C 98.539062 7.15625 98.710938 7.328125 98.820312 7.4375 C 99.007812 7.609375 99.242188 7.671875 99.570312 7.734375 C 99.976562 7.8125 100.054688 7.828125 100.226562 7.9375 C 100.367188 8.046875 100.445312 8.1875 100.445312 8.390625 C 100.445312 8.609375 100.226562 9.34375 99.148438 9.34375 C 98.945312 9.34375 98.320312 9.3125 98.117188 8.90625 C 98.570312 8.90625 98.648438 8.546875 98.648438 8.421875 C 98.648438 8.15625 98.414062 8.09375 98.320312 8.09375 C 98.148438 8.09375 97.804688 8.21875 97.804688 8.6875 C 97.804688 9.25 98.382812 9.5625 99.132812 9.5625 C 100.648438 9.5625 100.976562 8.46875 100.976562 8.078125 C 100.976562 7.734375 100.789062 7.515625 100.679688 7.421875 C 100.445312 7.171875 100.164062 7.125 99.851562 7.0625 C 99.742188 7.03125 99.539062 7 99.507812 6.984375 C 99.226562 6.921875 99.054688 6.75 99.054688 6.515625 C 99.054688 6.421875 99.117188 6.125 99.367188 5.9375 C 99.617188 5.734375 99.960938 5.734375 100.085938 5.734375 C 100.398438 5.734375 100.757812 5.828125 100.898438 6.109375 Z M 100.898438 6.109375 "/>
</g>
<path style=" stroke:none;fill-rule:nonzero;fill:rgb(0%,0%,0%);fill-opacity:1;" d="M 35.21875 14.582031 L 33.96875 15.785156 L 34.140625 15.972656 L 35.21875 15.066406 L 36.28125 15.972656 L 36.4375 15.785156 Z M 35.21875 14.582031 "/>
<g clip-path="url(#clip5)" clip-rule="nonzero">
<path style=" stroke:none;fill-rule:nonzero;fill:rgb(0%,0%,0%);fill-opacity:1;" d="M 34.121094 19.394531 C 34.230469 18.972656 34.402344 18.316406 34.402344 18.238281 C 34.417969 18.191406 34.652344 17.753906 34.964844 17.441406 C 35.230469 17.207031 35.574219 17.066406 35.917969 17.066406 C 36.402344 17.066406 36.402344 17.535156 36.402344 17.691406 C 36.402344 18.238281 35.980469 19.332031 35.886719 19.613281 C 35.777344 19.878906 35.746094 19.972656 35.746094 20.144531 C 35.746094 20.628906 36.105469 20.894531 36.511719 20.894531 C 37.371094 20.894531 37.730469 19.613281 37.730469 19.519531 C 37.730469 19.472656 37.699219 19.410156 37.605469 19.410156 C 37.511719 19.410156 37.496094 19.457031 37.464844 19.566406 C 37.246094 20.332031 36.871094 20.675781 36.542969 20.675781 C 36.480469 20.675781 36.324219 20.675781 36.324219 20.394531 C 36.324219 20.160156 36.402344 19.925781 36.480469 19.738281 C 36.652344 19.269531 37.011719 18.332031 37.011719 17.816406 C 37.011719 17.019531 36.417969 16.832031 35.949219 16.832031 C 35.121094 16.832031 34.683594 17.425781 34.527344 17.613281 C 34.480469 17.128906 34.105469 16.832031 33.667969 16.832031 C 33.292969 16.832031 33.089844 17.113281 32.964844 17.363281 C 32.824219 17.675781 32.699219 18.175781 32.699219 18.222656 C 32.699219 18.300781 32.761719 18.332031 32.824219 18.332031 C 32.917969 18.332031 32.933594 18.285156 32.980469 18.097656 C 33.152344 17.394531 33.339844 17.066406 33.636719 17.066406 C 33.917969 17.066406 33.917969 17.347656 33.917969 17.488281 C 33.917969 17.675781 33.839844 17.941406 33.792969 18.175781 C 33.730469 18.410156 33.636719 18.800781 33.605469 18.910156 L 33.246094 20.378906 C 33.183594 20.597656 33.183594 20.613281 33.183594 20.644531 C 33.183594 20.753906 33.261719 20.894531 33.449219 20.894531 C 33.574219 20.894531 33.714844 20.816406 33.777344 20.707031 C 33.808594 20.660156 33.871094 20.363281 33.917969 20.191406 Z M 34.121094 19.394531 "/>
</g>
<g clip-path="url(#clip6)" clip-rule="nonzero">
<path style=" stroke:none;fill-rule:nonzero;fill:rgb(0%,0%,0%);fill-opacity:1;" d="M 57.726562 53.804688 C 57.757812 53.679688 57.757812 53.664062 57.757812 53.632812 C 57.757812 53.554688 57.710938 53.507812 57.617188 53.507812 C 57.492188 53.507812 56.710938 53.570312 56.523438 53.585938 C 56.445312 53.601562 56.335938 53.617188 56.335938 53.757812 C 56.335938 53.882812 56.445312 53.882812 56.585938 53.882812 C 57.007812 53.882812 57.007812 53.945312 57.007812 54.023438 C 57.007812 54.085938 56.929688 54.398438 56.882812 54.585938 L 56.710938 55.273438 C 56.617188 55.617188 56.523438 55.960938 56.445312 56.320312 C 56.273438 55.992188 56.007812 55.757812 55.601562 55.757812 C 54.554688 55.757812 53.398438 57.007812 53.398438 58.367188 C 53.398438 59.351562 54.023438 59.820312 54.632812 59.820312 C 55.210938 59.820312 55.679688 59.335938 55.835938 59.164062 C 55.929688 59.664062 56.382812 59.820312 56.664062 59.820312 C 56.929688 59.820312 57.148438 59.710938 57.351562 59.335938 C 57.507812 59.039062 57.632812 58.476562 57.632812 58.445312 C 57.632812 58.398438 57.601562 58.335938 57.523438 58.335938 C 57.414062 58.335938 57.398438 58.382812 57.367188 58.554688 C 57.164062 59.335938 56.976562 59.601562 56.695312 59.601562 C 56.460938 59.601562 56.414062 59.382812 56.414062 59.195312 C 56.414062 59.070312 56.460938 58.820312 56.460938 58.789062 Z M 55.867188 58.648438 C 55.835938 58.789062 55.820312 58.804688 55.679688 58.976562 C 55.351562 59.367188 54.992188 59.601562 54.648438 59.601562 C 54.210938 59.601562 54.070312 59.148438 54.070312 58.757812 C 54.070312 58.320312 54.320312 57.289062 54.539062 56.851562 C 54.820312 56.320312 55.242188 55.992188 55.601562 55.992188 C 56.195312 55.992188 56.335938 56.710938 56.335938 56.757812 C 56.335938 56.804688 56.320312 56.851562 56.304688 56.898438 Z M 55.867188 58.648438 "/>
</g>
<path style=" stroke:none;fill-rule:nonzero;fill:rgb(0%,0%,0%);fill-opacity:1;" d="M 12.113281 55.554688 C 11.785156 55.617188 11.691406 55.898438 11.691406 56.039062 C 11.691406 56.210938 11.816406 56.367188 12.035156 56.367188 C 12.285156 56.367188 12.535156 56.148438 12.535156 55.835938 C 12.535156 55.414062 12.082031 55.210938 11.660156 55.210938 C 11.128906 55.210938 10.816406 55.695312 10.707031 55.882812 C 10.535156 55.445312 10.144531 55.210938 9.707031 55.210938 C 8.753906 55.210938 8.222656 56.367188 8.222656 56.601562 C 8.222656 56.679688 8.285156 56.710938 8.347656 56.710938 C 8.425781 56.710938 8.457031 56.664062 8.472656 56.601562 C 8.753906 55.710938 9.347656 55.445312 9.691406 55.445312 C 9.957031 55.445312 10.175781 55.617188 10.175781 56.039062 C 10.175781 56.351562 9.800781 57.789062 9.675781 58.226562 C 9.613281 58.492188 9.332031 59.054688 8.847656 59.054688 C 8.660156 59.054688 8.472656 58.992188 8.394531 58.945312 C 8.628906 58.898438 8.816406 58.679688 8.816406 58.460938 C 8.816406 58.226562 8.644531 58.132812 8.472656 58.132812 C 8.207031 58.132812 7.972656 58.351562 7.972656 58.664062 C 7.972656 59.101562 8.457031 59.273438 8.832031 59.273438 C 9.363281 59.273438 9.660156 58.851562 9.800781 58.601562 C 10.019531 59.195312 10.550781 59.273438 10.785156 59.273438 C 11.753906 59.273438 12.269531 58.117188 12.269531 57.898438 C 12.269531 57.851562 12.238281 57.789062 12.160156 57.789062 C 12.050781 57.789062 12.050781 57.820312 12.003906 57.960938 C 11.800781 58.601562 11.285156 59.054688 10.816406 59.054688 C 10.566406 59.054688 10.316406 58.898438 10.316406 58.460938 C 10.316406 58.257812 10.441406 57.773438 10.519531 57.429688 C 10.566406 57.273438 10.800781 56.304688 10.816406 56.242188 C 10.925781 55.914062 11.191406 55.445312 11.660156 55.445312 C 11.816406 55.445312 11.988281 55.460938 12.113281 55.554688 Z M 12.113281 55.554688 "/>
<g clip-path="url(#clip7)" clip-rule="nonzero">
<path style=" stroke:none;fill-rule:nonzero;fill:rgb(0%,0%,0%);fill-opacity:1;" d="M 14.539062 57.832031 L 15.195312 57.832031 C 15.304688 57.832031 15.398438 57.832031 15.398438 57.691406 C 15.398438 57.597656 15.320312 57.597656 15.210938 57.597656 L 14.601562 57.597656 L 14.804688 56.769531 C 14.835938 56.675781 14.835938 56.644531 14.835938 56.644531 C 14.835938 56.488281 14.726562 56.441406 14.617188 56.441406 C 14.554688 56.441406 14.398438 56.472656 14.335938 56.675781 L 14.101562 57.597656 L 13.460938 57.597656 C 13.335938 57.597656 13.335938 57.597656 13.304688 57.613281 C 13.273438 57.644531 13.257812 57.722656 13.257812 57.753906 C 13.273438 57.832031 13.320312 57.832031 13.445312 57.832031 L 14.054688 57.832031 L 13.695312 59.253906 C 13.664062 59.378906 13.617188 59.582031 13.617188 59.660156 C 13.617188 60.003906 13.929688 60.238281 14.289062 60.238281 C 14.976562 60.238281 15.382812 59.410156 15.382812 59.316406 C 15.382812 59.300781 15.367188 59.222656 15.273438 59.222656 C 15.195312 59.222656 15.179688 59.253906 15.148438 59.332031 C 14.945312 59.785156 14.601562 60.035156 14.304688 60.035156 C 14.085938 60.035156 14.085938 59.816406 14.085938 59.738281 C 14.085938 59.660156 14.085938 59.644531 14.117188 59.535156 Z M 14.539062 57.832031 "/>
</g>
<path style="fill-rule:nonzero;fill:rgb(100%,3.529358%,0%);fill-opacity:1;stroke-width:1.417323;stroke-linecap:round;stroke-linejoin:miter;stroke:rgb(100%,3.529358%,0%);stroke-opacity:1;stroke-miterlimit:4;" d="M 10.226562 66.652344 C 10.226562 67.648438 9.417969 68.457031 8.421875 68.457031 C 7.425781 68.457031 6.617188 67.648438 6.617188 66.652344 C 6.617188 65.65625 7.425781 64.847656 8.421875 64.847656 C 9.417969 64.847656 10.226562 65.65625 10.226562 66.652344 Z M 10.226562 66.652344 "/>
<g clip-path="url(#clip8)" clip-rule="nonzero">
<path style="fill:none;stroke-width:1.417323;stroke-linecap:round;stroke-linejoin:miter;stroke:rgb(0%,7.450867%,1.568604%);stroke-opacity:1;stroke-miterlimit:4;" d="M 84.445312 22.933594 C 84.445312 42.65625 76.609375 61.574219 62.664062 75.519531 C 48.71875 89.464844 29.800781 97.300781 10.078125 97.300781 C -9.644531 97.300781 -28.558594 89.464844 -42.507812 75.519531 C -56.453125 61.574219 -64.289062 42.65625 -64.289062 22.933594 C -64.289062 3.210938 -56.453125 -15.703125 -42.507812 -29.652344 C -28.558594 -43.597656 -9.644531 -51.433594 10.078125 -51.433594 C 51.148438 -51.433594 84.445312 -18.136719 84.445312 22.933594 Z M 84.445312 22.933594 "/>
</g>
</g>
</svg>
