<?xml version="1.0" encoding="utf-8" standalone="no"?>
<!DOCTYPE svg PUBLIC "-//W3C//DTD SVG 1.1//EN"
  "http://www.w3.org/Graphics/SVG/1.1/DTD/svg11.dtd">
<svg xmlns:xlink="http://www.w3.org/1999/xlink" width="110.130912pt" height="90.98473pt" viewBox="0 0 110.130912 90.98473" xmlns="http://www.w3.org/2000/svg" version="1.1">
 <metadata>
  <rdf:RDF xmlns:dc="http://purl.org/dc/elements/1.1/" xmlns:cc="http://creativecommons.org/ns#" xmlns:rdf="http://www.w3.org/1999/02/22-rdf-syntax-ns#">
   <cc:Work>
    <dc:type rdf:resource="http://purl.org/dc/dcmitype/StillImage"/>
    <dc:date>2025-02-26T21:23:01.886596</dc:date>
    <dc:format>image/svg+xml</dc:format>
    <dc:creator>
     <cc:Agent>
      <dc:title>Matplotlib v3.9.2, https://matplotlib.org/</dc:title>
     </cc:Agent>
    </dc:creator>
   </cc:Work>
  </rdf:RDF>
 </metadata>
 <defs>
  <style type="text/css">*{stroke-linejoin: round; stroke-linecap: butt}</style>
 </defs>
 <g id="figure_1">
  <g id="patch_1">
   <path d="M 0 90.98473 
L 110.130912 90.98473 
L 110.130912 0 
L 0 0 
L 0 90.98473 
z
" style="fill: none"/>
  </g>
  <g id="axes_1">
   <g id="PathCollection_1">
    <defs>
     <path id="mc06e844fc9" d="M 0 3 
C 0.795609 3 1.55874 2.683901 2.12132 2.12132 
C 2.683901 1.55874 3 0.795609 3 0 
C 3 -0.795609 2.683901 -1.55874 2.12132 -2.12132 
C 1.55874 -2.683901 0.795609 -3 0 -3 
C -0.795609 -3 -1.55874 -2.683901 -2.12132 -2.12132 
C -2.683901 -1.55874 -3 -0.795609 -3 0 
C -3 0.795609 -2.683901 1.55874 -2.12132 2.12132 
C -1.55874 2.683901 -0.795609 3 0 3 
z
" style="stroke: #1f77b4"/>
    </defs>
    <g clip-path="url(#p8c5bcdc6c4)">
     <use xlink:href="#mc06e844fc9" x="28.957026" y="52.454613" style="fill: #1f77b4; stroke: #1f77b4"/>
    </g>
   </g>
   <g id="PathCollection_2">
    <defs>
     <path id="m9cdd84c109" d="M -3 3 
L 3 -3 
M -3 -3 
L 3 3 
" style="stroke: #000000; stroke-opacity: 0; stroke-width: 1.5"/>
    </defs>
    <g clip-path="url(#p8c5bcdc6c4)">
     <use xlink:href="#m9cdd84c109" x="98.579507" y="45.492365" style="fill-opacity: 0; stroke: #000000; stroke-opacity: 0; stroke-width: 1.5"/>
    </g>
   </g>
   <g id="line2d_1">
    <path d="M 28.957026 52.454613 
L 29.308655 52.313962 
L 29.660283 52.17331 
L 30.011912 52.032659 
L 30.363541 51.892007 
L 30.715169 51.751356 
L 31.066798 51.610704 
L 31.418427 51.470053 
L 31.770055 51.329402 
L 32.121684 51.18875 
L 32.473312 51.048099 
L 32.824941 50.907447 
L 33.17657 50.766796 
L 33.528199 50.626144 
L 33.879827 50.485493 
L 34.231456 50.344841 
L 34.583084 50.204189 
L 34.934713 50.063538 
L 35.286342 49.922886 
L 35.637971 49.782235 
L 35.989599 49.641584 
L 36.341228 49.500932 
L 36.692856 49.360281 
L 37.044485 49.219629 
L 37.396115 49.078978 
L 37.747743 48.938326 
L 38.099372 48.797675 
L 38.451001 48.657023 
L 38.802629 48.516372 
L 39.154258 48.37572 
L 39.505887 48.235069 
L 39.857515 48.094417 
L 40.209144 47.953766 
L 40.560773 47.813114 
L 40.912401 47.672463 
L 41.26403 47.531811 
L 41.615659 47.39116 
L 41.967287 47.250509 
L 42.318916 47.109857 
L 42.670545 46.969205 
L 43.022173 46.828554 
L 43.373802 46.687903 
L 43.725431 46.547251 
L 44.077059 46.4066 
L 44.428688 46.265948 
L 44.780317 46.125297 
L 45.131945 45.984645 
L 45.483574 45.843994 
L 45.835203 45.703342 
L 46.186831 45.562691 
L 46.538459 45.422039 
L 46.890089 45.281388 
L 47.241718 45.140736 
L 47.593347 45.000085 
L 47.944976 44.859433 
L 48.296605 44.718781 
L 48.648232 44.578131 
L 48.999861 44.437479 
L 49.35149 44.296827 
L 49.703119 44.156176 
L 50.054748 44.015524 
L 50.406377 43.874873 
L 50.758004 43.734221 
L 51.109633 43.59357 
L 51.461262 43.452918 
L 51.812891 43.312267 
L 52.16452 43.171615 
L 52.516147 43.030964 
L 52.867776 42.890313 
L 53.219405 42.749661 
L 53.571034 42.609009 
L 53.922663 42.468358 
L 54.274292 42.327706 
L 54.625919 42.187055 
L 54.977548 42.046404 
L 55.329177 41.905752 
L 55.680807 41.765101 
L 56.032436 41.624449 
L 56.384065 41.483797 
L 56.735692 41.343147 
L 57.087321 41.202495 
L 57.43895 41.061843 
L 57.790579 40.921192 
L 58.142208 40.78054 
L 58.493837 40.639889 
L 58.845464 40.499238 
L 59.197093 40.358586 
L 59.548722 40.217935 
L 59.900351 40.077283 
L 60.25198 39.936631 
L 60.603609 39.79598 
L 60.955236 39.655329 
L 61.306865 39.514677 
L 61.658494 39.374026 
L 62.010123 39.233374 
L 62.361752 39.092723 
L 62.713381 38.952071 
L 63.065008 38.81142 
L 63.416637 38.670769 
L 63.768266 38.530117 
" clip-path="url(#p8c5bcdc6c4)" style="fill: none; stroke: #1f77b4; stroke-width: 1.5; stroke-linecap: square"/>
   </g>
   <g id="line2d_2">
    <path d="M 11.551405 80.303606 
L 81.173887 80.303606 
" clip-path="url(#p8c5bcdc6c4)" style="fill: none; stroke: #000000; stroke-width: 1.5; stroke-linecap: square"/>
   </g>
   <g id="line2d_3">
    <path d="M 11.551405 10.681124 
L 81.173887 10.681124 
" clip-path="url(#p8c5bcdc6c4)" style="fill: none; stroke: #000000; stroke-width: 1.5; stroke-linecap: square"/>
   </g>
   <g id="line2d_4">
    <path d="M 11.551405 80.303606 
L 11.551405 10.681124 
" clip-path="url(#p8c5bcdc6c4)" style="fill: none; stroke: #000000; stroke-width: 1.5; stroke-linecap: square"/>
   </g>
   <g id="line2d_5">
    <path d="M 81.173887 80.303606 
L 81.173887 10.681124 
" clip-path="url(#p8c5bcdc6c4)" style="fill: none; stroke: #000000; stroke-width: 1.5; stroke-linecap: square"/>
   </g>
   <g id="PathCollection_3">
    <defs>
     <path id="m29f19c93f8" d="M -3 3 
L 3 -3 
M -3 -3 
L 3 3 
" style="stroke: #2ca02c; stroke-width: 1.5"/>
    </defs>
    <g clip-path="url(#p8c5bcdc6c4)">
     <use xlink:href="#m29f19c93f8" x="63.768266" y="38.530117" style="fill: #2ca02c; stroke: #2ca02c; stroke-width: 1.5"/>
    </g>
   </g>
  </g>
 </g>
 <defs>
  <clipPath id="p8c5bcdc6c4">
   <rect x="7.2" y="7.2" width="95.730912" height="76.58473"/>
  </clipPath>
 </defs>
</svg>
