<?xml version="1.0" encoding="utf-8" standalone="no"?>
<!DOCTYPE svg PUBLIC "-//W3C//DTD SVG 1.1//EN"
  "http://www.w3.org/Graphics/SVG/1.1/DTD/svg11.dtd">
<svg xmlns:xlink="http://www.w3.org/1999/xlink" width="123.523758pt" height="53.31015pt" viewBox="0 0 123.523758 53.31015" xmlns="http://www.w3.org/2000/svg" version="1.1">
 <metadata>
  <rdf:RDF xmlns:dc="http://purl.org/dc/elements/1.1/" xmlns:cc="http://creativecommons.org/ns#" xmlns:rdf="http://www.w3.org/1999/02/22-rdf-syntax-ns#">
   <cc:Work>
    <dc:type rdf:resource="http://purl.org/dc/dcmitype/StillImage"/>
    <dc:date>2025-02-27T10:12:36.222671</dc:date>
    <dc:format>image/svg+xml</dc:format>
    <dc:creator>
     <cc:Agent>
      <dc:title>Matplotlib v3.9.2, https://matplotlib.org/</dc:title>
     </cc:Agent>
    </dc:creator>
   </cc:Work>
  </rdf:RDF>
 </metadata>
 <defs>
  <style type="text/css">*{stroke-linejoin: round; stroke-linecap: butt}</style>
 </defs>
 <g id="figure_1">
  <g id="patch_1">
   <path d="M 0 53.31015 
L 123.523758 53.31015 
L 123.523758 0 
L 0 0 
L 0 53.31015 
z
" style="fill: none"/>
  </g>
  <g id="axes_1">
   <g id="line2d_1">
    <path d="M 19.791875 32.117718 
L 20.670947 31.008487 
L 21.55002 29.859272 
L 22.429088 28.674717 
L 23.30816 27.460157 
L 24.187233 26.221647 
L 25.066305 24.965898 
L 25.945378 23.700246 
L 26.824451 22.432588 
L 27.703518 21.171317 
L 28.582591 19.925213 
L 29.461663 18.703389 
L 30.340736 17.515157 
L 31.219809 16.36992 
L 32.098881 15.277051 
L 32.977949 14.245772 
L 33.857021 13.285006 
L 34.736094 12.40328 
L 35.615167 11.608577 
L 36.494239 10.908227 
L 37.373312 10.308789 
L 38.252379 9.81595 
L 39.131452 9.434429 
L 40.010525 9.167916 
L 40.889597 9.019007 
L 41.768669 8.989153 
L 42.647741 9.078644 
L 43.526811 9.286607 
L 44.405883 9.611018 
L 45.284955 10.048727 
L 46.164028 10.595519 
L 47.043099 11.246181 
L 47.922169 11.994574 
L 48.801242 12.833747 
L 49.680313 13.756027 
L 50.559386 14.753147 
L 51.438458 15.816362 
L 52.31753 16.936578 
L 53.1966 18.104487 
L 54.075672 19.310685 
L 54.954744 20.545802 
L 55.833816 21.800613 
L 56.712889 23.066158 
L 57.59196 24.333831 
L 58.47103 25.59548 
L 59.350103 26.84349 
L 60.229174 28.070821 
L 61.108247 29.271096 
L 61.98732 30.438608 
L 62.866391 31.568363 
L 63.745461 32.656088 
L 64.624532 33.698234 
L 65.503605 34.691954 
L 66.382678 35.63509 
L 67.261749 36.526142 
L 68.140822 37.364227 
L 69.019892 38.149031 
L 69.898963 38.880784 
L 70.778036 39.560166 
L 71.657108 40.188287 
L 72.536179 40.766611 
L 73.415252 41.296913 
L 74.294322 41.781215 
L 75.173393 42.221742 
L 76.052466 42.620864 
L 76.931539 42.981053 
L 77.81061 43.304844 
L 78.68968 43.594789 
L 79.568753 43.853435 
L 80.447824 44.083281 
L 81.326897 44.286762 
L 82.205969 44.466226 
L 83.085041 44.623916 
L 83.964111 44.761959 
L 84.843183 44.882357 
L 85.722255 44.986979 
L 86.601327 45.077559 
L 87.4804 45.155696 
L 88.359473 45.222854 
L 89.23854 45.280368 
L 90.117613 45.329444 
L 90.996685 45.37117 
L 91.875758 45.406521 
L 92.754831 45.436363 
L 93.633903 45.461465 
L 94.512971 45.482504 
L 95.392043 45.500077 
L 96.271116 45.514703 
L 97.150189 45.526832 
L 98.029261 45.536857 
L 98.908334 45.545112 
L 99.787401 45.551886 
L 100.666474 45.557427 
L 101.545546 45.561942 
L 102.424619 45.565608 
L 103.303692 45.568576 
L 104.182764 45.570969 
L 105.061832 45.572892 
L 105.940904 45.574433 
L 106.819977 45.575662 
" clip-path="url(#pb92702268e)" style="fill: none; stroke: #d62728; stroke-width: 1.5; stroke-linecap: square"/>
   </g>
   <g id="line2d_2">
    <path d="M 41.5489 45.580178 
L 41.5489 26.921626 
" clip-path="url(#pb92702268e)" style="fill: none; stroke: #d62728; stroke-width: 1.5; stroke-linecap: square"/>
   </g>
   <g id="line2d_3">
    <path d="M 19.791875 45.580178 
L 19.791875 8.263073 
" clip-path="url(#pb92702268e)" style="fill: none; stroke: #000000; stroke-width: 1.5; stroke-linecap: square"/>
   </g>
   <g id="line2d_4">
    <path d="M 106.819977 45.580178 
L 106.819977 8.263073 
" clip-path="url(#pb92702268e)" style="fill: none; stroke: #000000; stroke-width: 1.5; stroke-linecap: square"/>
   </g>
   <g id="line2d_5">
    <path d="M 106.819977 45.580178 
L 19.791875 45.580178 
" clip-path="url(#pb92702268e)" style="fill: none; stroke: #000000; stroke-width: 1.5; stroke-linecap: square"/>
   </g>
  </g>
 </g>
 <defs>
  <clipPath id="pb92702268e">
   <rect x="15.44047" y="6.397218" width="95.730912" height="41.048815"/>
  </clipPath>
 </defs>
</svg>
