<?xml version="1.0" encoding="utf-8" standalone="no"?>
<!DOCTYPE svg PUBLIC "-//W3C//DTD SVG 1.1//EN"
  "http://www.w3.org/Graphics/SVG/1.1/DTD/svg11.dtd">
<svg xmlns:xlink="http://www.w3.org/1999/xlink" width="123.523758pt" height="53.31015pt" viewBox="0 0 123.523758 53.31015" xmlns="http://www.w3.org/2000/svg" version="1.1">
 <metadata>
  <rdf:RDF xmlns:dc="http://purl.org/dc/elements/1.1/" xmlns:cc="http://creativecommons.org/ns#" xmlns:rdf="http://www.w3.org/1999/02/22-rdf-syntax-ns#">
   <cc:Work>
    <dc:type rdf:resource="http://purl.org/dc/dcmitype/StillImage"/>
    <dc:date>2025-02-27T09:46:06.569008</dc:date>
    <dc:format>image/svg+xml</dc:format>
    <dc:creator>
     <cc:Agent>
      <dc:title>Matplotlib v3.9.2, https://matplotlib.org/</dc:title>
     </cc:Agent>
    </dc:creator>
   </cc:Work>
  </rdf:RDF>
 </metadata>
 <defs>
  <style type="text/css">*{stroke-linejoin: round; stroke-linecap: butt}</style>
 </defs>
 <g id="figure_1">
  <g id="patch_1">
   <path d="M 0 53.31015 
L 123.523758 53.31015 
L 123.523758 0 
L 0 0 
L 0 53.31015 
z
" style="fill: none"/>
  </g>
  <g id="axes_1">
   <g id="line2d_1">
    <path d="M 19.791875 18.655258 
L 20.670947 18.611363 
L 21.55002 18.480394 
L 22.429088 18.264488 
L 23.30816 17.967171 
L 24.187233 17.593302 
L 25.066305 17.149005 
L 25.945378 16.641577 
L 26.824451 16.079373 
L 27.703518 15.471688 
L 28.582591 14.828602 
L 29.461663 14.160852 
L 30.340736 13.479658 
L 31.219809 12.796549 
L 32.098881 12.1232 
L 32.977949 11.471261 
L 33.857021 10.852166 
L 34.736094 10.276989 
L 35.615167 9.756265 
L 36.494239 9.299854 
L 37.373312 8.91678 
L 38.252379 8.615126 
L 39.131452 8.401908 
L 40.010525 8.283005 
L 40.889597 8.263073 
L 41.768669 8.345501 
L 42.647741 8.532388 
L 43.526811 8.824519 
L 44.405883 9.2214 
L 45.284955 9.721287 
L 46.164028 10.321231 
L 47.043099 11.017166 
L 47.922169 11.803981 
L 48.801242 12.675648 
L 49.680313 13.625311 
L 50.559386 14.645421 
L 51.438458 15.727874 
L 52.31753 16.864129 
L 53.1966 18.045363 
L 54.075672 19.262592 
L 54.954744 20.506811 
L 55.833816 21.769103 
L 56.712889 23.040777 
L 57.59196 24.313454 
L 58.47103 25.579174 
L 59.350103 26.830484 
L 60.229174 28.06048 
L 61.108247 29.262901 
L 61.98732 30.432135 
L 62.866391 31.563267 
L 63.745461 32.652089 
L 64.624532 33.695106 
L 65.503605 34.689515 
L 66.382678 35.633195 
L 67.261749 36.524674 
L 68.140822 37.363093 
L 69.019892 38.148159 
L 69.898963 38.880115 
L 70.778036 39.559654 
L 71.657108 40.187897 
L 72.536179 40.766315 
L 73.415252 41.296689 
L 74.294322 41.781046 
L 75.173393 42.221615 
L 76.052466 42.620768 
L 76.931539 42.980982 
L 77.81061 43.304791 
L 78.68968 43.594749 
L 79.568753 43.853406 
L 80.447824 44.083259 
L 81.326897 44.286746 
L 82.205969 44.466214 
L 83.085041 44.623908 
L 83.964111 44.761953 
L 84.843183 44.882353 
L 85.722255 44.986976 
L 86.601327 45.077557 
L 87.4804 45.155694 
L 88.359473 45.222853 
L 89.23854 45.280367 
L 90.117613 45.329443 
L 90.996685 45.37117 
L 91.875758 45.406521 
L 92.754831 45.436362 
L 93.633903 45.461464 
L 94.512971 45.482504 
L 95.392043 45.500077 
L 96.271116 45.514703 
L 97.150189 45.526832 
L 98.029261 45.536856 
L 98.908334 45.545112 
L 99.787401 45.551886 
L 100.666474 45.557427 
L 101.545546 45.561942 
L 102.424619 45.565608 
L 103.303692 45.568576 
L 104.182764 45.570969 
L 105.061832 45.572892 
L 105.940904 45.574433 
L 106.819977 45.575662 
" clip-path="url(#pea8fb8f97e)" style="fill: none; stroke: #2ca02c; stroke-width: 1.5; stroke-linecap: square"/>
   </g>
   <g id="line2d_2">
    <path d="M 19.791875 32.117718 
L 20.670947 31.008487 
L 21.55002 29.859272 
L 22.429088 28.674717 
L 23.30816 27.460157 
L 24.187233 26.221647 
L 25.066305 24.965898 
L 25.945378 23.700246 
L 26.824451 22.432588 
L 27.703518 21.171317 
L 28.582591 19.925213 
L 29.461663 18.703389 
L 30.340736 17.515157 
L 31.219809 16.36992 
L 32.098881 15.277051 
L 32.977949 14.245772 
L 33.857021 13.285006 
L 34.736094 12.40328 
L 35.615167 11.608577 
L 36.494239 10.908227 
L 37.373312 10.308789 
L 38.252379 9.81595 
L 39.131452 9.434429 
L 40.010525 9.167916 
L 40.889597 9.019007 
L 41.768669 8.989153 
L 42.647741 9.078644 
L 43.526811 9.286607 
L 44.405883 9.611018 
L 45.284955 10.048727 
L 46.164028 10.595519 
L 47.043099 11.246181 
L 47.922169 11.994574 
L 48.801242 12.833747 
L 49.680313 13.756027 
L 50.559386 14.753147 
L 51.438458 15.816362 
L 52.31753 16.936578 
L 53.1966 18.104487 
L 54.075672 19.310685 
L 54.954744 20.545802 
L 55.833816 21.800613 
L 56.712889 23.066158 
L 57.59196 24.333831 
L 58.47103 25.59548 
L 59.350103 26.84349 
L 60.229174 28.070821 
L 61.108247 29.271096 
L 61.98732 30.438608 
L 62.866391 31.568363 
L 63.745461 32.656088 
L 64.624532 33.698234 
L 65.503605 34.691954 
L 66.382678 35.63509 
L 67.261749 36.526142 
L 68.140822 37.364227 
L 69.019892 38.149031 
L 69.898963 38.880784 
L 70.778036 39.560166 
L 71.657108 40.188287 
L 72.536179 40.766611 
L 73.415252 41.296913 
L 74.294322 41.781215 
L 75.173393 42.221742 
L 76.052466 42.620864 
L 76.931539 42.981053 
L 77.81061 43.304844 
L 78.68968 43.594789 
L 79.568753 43.853435 
L 80.447824 44.083281 
L 81.326897 44.286762 
L 82.205969 44.466226 
L 83.085041 44.623916 
L 83.964111 44.761959 
L 84.843183 44.882357 
L 85.722255 44.986979 
L 86.601327 45.077559 
L 87.4804 45.155696 
L 88.359473 45.222854 
L 89.23854 45.280368 
L 90.117613 45.329444 
L 90.996685 45.37117 
L 91.875758 45.406521 
L 92.754831 45.436363 
L 93.633903 45.461465 
L 94.512971 45.482504 
L 95.392043 45.500077 
L 96.271116 45.514703 
L 97.150189 45.526832 
L 98.029261 45.536857 
L 98.908334 45.545112 
L 99.787401 45.551886 
L 100.666474 45.557427 
L 101.545546 45.561942 
L 102.424619 45.565608 
L 103.303692 45.568576 
L 104.182764 45.570969 
L 105.061832 45.572892 
L 105.940904 45.574433 
L 106.819977 45.575662 
" clip-path="url(#pea8fb8f97e)" style="fill: none; stroke-dasharray: 5.55,2.4; stroke-dashoffset: 0; stroke: #2ca02c; stroke-width: 1.5"/>
   </g>
   <g id="line2d_3">
    <path d="M 19.791875 32.117718 
L 20.670947 33.183055 
L 21.55002 34.2013 
L 22.429088 35.16995 
L 23.30816 36.087193 
L 24.187233 36.951834 
L 25.066305 37.763286 
L 25.945378 38.521509 
L 26.824451 39.226963 
L 27.703518 39.880549 
L 28.582591 40.483567 
L 29.461663 41.037642 
L 30.340736 41.544679 
L 31.219809 42.006807 
L 32.098881 42.426327 
L 32.977949 42.805667 
L 33.857021 43.147338 
L 34.736094 43.453887 
L 35.615167 43.727867 
L 36.494239 43.971804 
L 37.373312 44.188169 
L 38.252379 44.379353 
L 39.131452 44.547657 
L 40.010525 44.695265 
L 40.889597 44.824244 
L 41.768669 44.936529 
L 42.647741 45.033921 
L 43.526811 45.118088 
L 44.405883 45.190561 
L 45.284955 45.252738 
L 46.164028 45.30589 
L 47.043099 45.351163 
L 47.922169 45.389586 
L 48.801242 45.42208 
L 49.680313 45.449462 
L 50.559386 45.472453 
L 51.438458 45.49169 
L 52.31753 45.507729 
L 53.1966 45.521054 
L 54.075672 45.532085 
L 54.954744 45.541186 
L 55.833816 45.548668 
L 56.712889 45.554797 
L 57.59196 45.5598 
L 58.47103 45.563871 
L 59.350103 45.567171 
L 60.229174 45.569837 
L 61.108247 45.571983 
L 61.98732 45.573705 
L 62.866391 45.575082 
L 63.745461 45.576179 
L 64.624532 45.57705 
L 65.503605 45.57774 
L 66.382678 45.578283 
L 67.261749 45.578711 
L 68.140822 45.579045 
L 69.019892 45.579306 
L 69.898963 45.579509 
L 70.778036 45.579667 
L 71.657108 45.579789 
L 72.536179 45.579882 
L 73.415252 45.579954 
L 74.294322 45.580009 
L 75.173393 45.580051 
L 76.052466 45.580083 
L 76.931539 45.580107 
L 77.81061 45.580125 
L 78.68968 45.580139 
L 79.568753 45.580149 
L 80.447824 45.580157 
L 81.326897 45.580162 
L 82.205969 45.580167 
L 83.085041 45.58017 
L 83.964111 45.580172 
L 84.843183 45.580174 
L 85.722255 45.580175 
L 86.601327 45.580176 
L 87.4804 45.580177 
L 88.359473 45.580177 
L 89.23854 45.580177 
L 90.117613 45.580178 
L 90.996685 45.580178 
L 91.875758 45.580178 
L 92.754831 45.580178 
L 93.633903 45.580178 
L 94.512971 45.580178 
L 95.392043 45.580178 
L 96.271116 45.580178 
L 97.150189 45.580178 
L 98.029261 45.580178 
L 98.908334 45.580178 
L 99.787401 45.580178 
L 100.666474 45.580178 
L 101.545546 45.580178 
L 102.424619 45.580178 
L 103.303692 45.580178 
L 104.182764 45.580178 
L 105.061832 45.580178 
L 105.940904 45.580178 
L 106.819977 45.580178 
" clip-path="url(#pea8fb8f97e)" style="fill: none; stroke-dasharray: 5.55,2.4; stroke-dashoffset: 0; stroke: #2ca02c; stroke-width: 1.5"/>
   </g>
   <g id="line2d_4">
    <path d="M 19.791875 45.580178 
L 19.791875 8.263073 
" clip-path="url(#pea8fb8f97e)" style="fill: none; stroke: #000000; stroke-width: 1.5; stroke-linecap: square"/>
   </g>
   <g id="line2d_5">
    <path d="M 106.819977 45.580178 
L 106.819977 8.263073 
" clip-path="url(#pea8fb8f97e)" style="fill: none; stroke: #000000; stroke-width: 1.5; stroke-linecap: square"/>
   </g>
   <g id="line2d_6">
    <path d="M 106.819977 45.580178 
L 19.791875 45.580178 
" clip-path="url(#pea8fb8f97e)" style="fill: none; stroke: #000000; stroke-width: 1.5; stroke-linecap: square"/>
   </g>
  </g>
 </g>
 <defs>
  <clipPath id="pea8fb8f97e">
   <rect x="15.44047" y="6.397218" width="95.730912" height="41.048815"/>
  </clipPath>
 </defs>
</svg>
