<?xml version="1.0" encoding="utf-8" standalone="no"?>
<!DOCTYPE svg PUBLIC "-//W3C//DTD SVG 1.1//EN"
  "http://www.w3.org/Graphics/SVG/1.1/DTD/svg11.dtd">
<svg xmlns:xlink="http://www.w3.org/1999/xlink" width="123.523758pt" height="53.31015pt" viewBox="0 0 123.523758 53.31015" xmlns="http://www.w3.org/2000/svg" version="1.1">
 <metadata>
  <rdf:RDF xmlns:dc="http://purl.org/dc/elements/1.1/" xmlns:cc="http://creativecommons.org/ns#" xmlns:rdf="http://www.w3.org/1999/02/22-rdf-syntax-ns#">
   <cc:Work>
    <dc:type rdf:resource="http://purl.org/dc/dcmitype/StillImage"/>
    <dc:date>2025-02-27T09:46:06.600946</dc:date>
    <dc:format>image/svg+xml</dc:format>
    <dc:creator>
     <cc:Agent>
      <dc:title>Matplotlib v3.9.2, https://matplotlib.org/</dc:title>
     </cc:Agent>
    </dc:creator>
   </cc:Work>
  </rdf:RDF>
 </metadata>
 <defs>
  <style type="text/css">*{stroke-linejoin: round; stroke-linecap: butt}</style>
 </defs>
 <g id="figure_1">
  <g id="patch_1">
   <path d="M 0 53.31015 
L 123.523758 53.31015 
L 123.523758 0 
L 0 0 
L 0 53.31015 
z
" style="fill: none"/>
  </g>
  <g id="axes_1">
   <g id="line2d_1">
    <path d="M 19.791875 45.436008 
L 20.670947 45.418881 
L 21.55002 45.364955 
L 22.429088 45.266509 
L 23.30816 45.110412 
L 24.187233 44.877846 
L 25.066305 44.544131 
L 25.945378 44.07886 
L 26.824451 43.446582 
L 27.703518 42.608254 
L 28.582591 41.523636 
L 29.461663 40.154777 
L 30.340736 38.470455 
L 31.219809 36.451375 
L 32.098881 34.095636 
L 32.977949 31.423836 
L 33.857021 28.482904 
L 34.736094 25.348103 
L 35.615167 22.122132 
L 36.494239 18.931177 
L 37.373312 15.917678 
L 38.252379 13.23034 
L 39.131452 11.012159 
L 40.010525 9.388013 
L 40.889597 8.452962 
L 41.768669 8.263073 
L 42.647741 8.829845 
L 43.526811 10.119069 
L 44.405883 12.05422 
L 45.284955 14.524019 
L 46.164028 17.392975 
L 47.043099 20.513656 
L 47.922169 23.7391 
L 48.801242 26.933926 
L 49.680313 29.982969 
L 50.559386 32.796969 
L 51.438458 35.314902 
L 52.31753 37.50338 
L 53.1966 39.353653 
L 54.075672 40.877018 
L 54.954744 42.099438 
L 55.833816 43.056168 
L 56.712889 43.786897 
L 57.59196 44.331808 
L 58.47103 44.728694 
L 59.350103 45.011133 
L 60.229174 45.207567 
L 61.108247 45.341121 
L 61.98732 45.429904 
L 62.866391 45.487622 
L 63.745461 45.524323 
L 64.624532 45.547152 
L 65.503605 45.561045 
L 66.382678 45.569317 
L 67.261749 45.574138 
L 68.140822 45.576886 
L 69.019892 45.578421 
L 69.898963 45.579259 
L 70.778036 45.579707 
L 71.657108 45.579942 
L 72.536179 45.580062 
L 73.415252 45.580122 
L 74.294322 45.580152 
L 75.173393 45.580166 
L 76.052466 45.580173 
L 76.931539 45.580176 
L 77.81061 45.580177 
L 78.68968 45.580178 
L 79.568753 45.580178 
L 80.447824 45.580178 
L 81.326897 45.580178 
L 82.205969 45.580178 
L 83.085041 45.580178 
L 83.964111 45.580178 
L 84.843183 45.580178 
L 85.722255 45.580178 
L 86.601327 45.580178 
L 87.4804 45.580178 
L 88.359473 45.580178 
L 89.23854 45.580178 
L 90.117613 45.580178 
L 90.996685 45.580178 
L 91.875758 45.580178 
L 92.754831 45.580178 
L 93.633903 45.580178 
L 94.512971 45.580178 
L 95.392043 45.580178 
L 96.271116 45.580178 
L 97.150189 45.580178 
L 98.029261 45.580178 
L 98.908334 45.580178 
L 99.787401 45.580178 
L 100.666474 45.580178 
L 101.545546 45.580178 
L 102.424619 45.580178 
L 103.303692 45.580178 
L 104.182764 45.580178 
L 105.061832 45.580178 
L 105.940904 45.580178 
L 106.819977 45.580178 
" clip-path="url(#pb5f80fff19)" style="fill: none; stroke: #2ca02c; stroke-width: 1.5; stroke-linecap: square"/>
   </g>
   <g id="line2d_2">
    <path d="M 19.791875 45.508093 
L 20.670947 45.461941 
L 21.55002 45.390157 
L 22.429088 45.280962 
L 23.30816 45.118533 
L 24.187233 44.882316 
L 25.066305 44.546542 
L 25.945378 44.080134 
L 26.824451 43.447242 
L 27.703518 42.608589 
L 28.582591 41.523802 
L 29.461663 40.154858 
L 30.340736 38.470494 
L 31.219809 36.451393 
L 32.098881 34.095644 
L 32.977949 31.42384 
L 33.857021 28.482906 
L 34.736094 25.348103 
L 35.615167 22.122132 
L 36.494239 18.931177 
L 37.373312 15.917678 
L 38.252379 13.23034 
L 39.131452 11.012159 
L 40.010525 9.388013 
L 40.889597 8.452962 
L 41.768669 8.263073 
L 42.647741 8.829845 
L 43.526811 10.119069 
L 44.405883 12.05422 
L 45.284955 14.524019 
L 46.164028 17.392975 
L 47.043099 20.513656 
L 47.922169 23.7391 
L 48.801242 26.933926 
L 49.680313 29.982969 
L 50.559386 32.796969 
L 51.438458 35.314902 
L 52.31753 37.50338 
L 53.1966 39.353653 
L 54.075672 40.877018 
L 54.954744 42.099438 
L 55.833816 43.056168 
L 56.712889 43.786897 
L 57.59196 44.331808 
L 58.47103 44.728694 
L 59.350103 45.011133 
L 60.229174 45.207567 
L 61.108247 45.341121 
L 61.98732 45.429904 
L 62.866391 45.487622 
L 63.745461 45.524323 
L 64.624532 45.547152 
L 65.503605 45.561045 
L 66.382678 45.569317 
L 67.261749 45.574138 
L 68.140822 45.576886 
L 69.019892 45.578421 
L 69.898963 45.579259 
L 70.778036 45.579707 
L 71.657108 45.579942 
L 72.536179 45.580062 
L 73.415252 45.580122 
L 74.294322 45.580152 
L 75.173393 45.580166 
L 76.052466 45.580173 
L 76.931539 45.580176 
L 77.81061 45.580177 
L 78.68968 45.580178 
L 79.568753 45.580178 
L 80.447824 45.580178 
L 81.326897 45.580178 
L 82.205969 45.580178 
L 83.085041 45.580178 
L 83.964111 45.580178 
L 84.843183 45.580178 
L 85.722255 45.580178 
L 86.601327 45.580178 
L 87.4804 45.580178 
L 88.359473 45.580178 
L 89.23854 45.580178 
L 90.117613 45.580178 
L 90.996685 45.580178 
L 91.875758 45.580178 
L 92.754831 45.580178 
L 93.633903 45.580178 
L 94.512971 45.580178 
L 95.392043 45.580178 
L 96.271116 45.580178 
L 97.150189 45.580178 
L 98.029261 45.580178 
L 98.908334 45.580178 
L 99.787401 45.580178 
L 100.666474 45.580178 
L 101.545546 45.580178 
L 102.424619 45.580178 
L 103.303692 45.580178 
L 104.182764 45.580178 
L 105.061832 45.580178 
L 105.940904 45.580178 
L 106.819977 45.580178 
" clip-path="url(#pb5f80fff19)" style="fill: none; stroke-dasharray: 5.55,2.4; stroke-dashoffset: 0; stroke: #2ca02c; stroke-width: 1.5"/>
   </g>
   <g id="line2d_3">
    <path d="M 19.791875 45.508093 
L 20.670947 45.537118 
L 21.55002 45.554976 
L 22.429088 45.565726 
L 23.30816 45.572058 
L 24.187233 45.575708 
L 25.066305 45.577767 
L 25.945378 45.578904 
L 26.824451 45.579518 
L 27.703518 45.579843 
L 28.582591 45.580012 
L 29.461663 45.580097 
L 30.340736 45.58014 
L 31.219809 45.58016 
L 32.098881 45.58017 
L 32.977949 45.580174 
L 33.857021 45.580177 
L 34.736094 45.580178 
L 35.615167 45.580178 
L 36.494239 45.580178 
L 37.373312 45.580178 
L 38.252379 45.580178 
L 39.131452 45.580178 
L 40.010525 45.580178 
L 40.889597 45.580178 
L 41.768669 45.580178 
L 42.647741 45.580178 
L 43.526811 45.580178 
L 44.405883 45.580178 
L 45.284955 45.580178 
L 46.164028 45.580178 
L 47.043099 45.580178 
L 47.922169 45.580178 
L 48.801242 45.580178 
L 49.680313 45.580178 
L 50.559386 45.580178 
L 51.438458 45.580178 
L 52.31753 45.580178 
L 53.1966 45.580178 
L 54.075672 45.580178 
L 54.954744 45.580178 
L 55.833816 45.580178 
L 56.712889 45.580178 
L 57.59196 45.580178 
L 58.47103 45.580178 
L 59.350103 45.580178 
L 60.229174 45.580178 
L 61.108247 45.580178 
L 61.98732 45.580178 
L 62.866391 45.580178 
L 63.745461 45.580178 
L 64.624532 45.580178 
L 65.503605 45.580178 
L 66.382678 45.580178 
L 67.261749 45.580178 
L 68.140822 45.580178 
L 69.019892 45.580178 
L 69.898963 45.580178 
L 70.778036 45.580178 
L 71.657108 45.580178 
L 72.536179 45.580178 
L 73.415252 45.580178 
L 74.294322 45.580178 
L 75.173393 45.580178 
L 76.052466 45.580178 
L 76.931539 45.580178 
L 77.81061 45.580178 
L 78.68968 45.580178 
L 79.568753 45.580178 
L 80.447824 45.580178 
L 81.326897 45.580178 
L 82.205969 45.580178 
L 83.085041 45.580178 
L 83.964111 45.580178 
L 84.843183 45.580178 
L 85.722255 45.580178 
L 86.601327 45.580178 
L 87.4804 45.580178 
L 88.359473 45.580178 
L 89.23854 45.580178 
L 90.117613 45.580178 
L 90.996685 45.580178 
L 91.875758 45.580178 
L 92.754831 45.580178 
L 93.633903 45.580178 
L 94.512971 45.580178 
L 95.392043 45.580178 
L 96.271116 45.580178 
L 97.150189 45.580178 
L 98.029261 45.580178 
L 98.908334 45.580178 
L 99.787401 45.580178 
L 100.666474 45.580178 
L 101.545546 45.580178 
L 102.424619 45.580178 
L 103.303692 45.580178 
L 104.182764 45.580178 
L 105.061832 45.580178 
L 105.940904 45.580178 
L 106.819977 45.580178 
" clip-path="url(#pb5f80fff19)" style="fill: none; stroke-dasharray: 5.55,2.4; stroke-dashoffset: 0; stroke: #2ca02c; stroke-width: 1.5"/>
   </g>
   <g id="line2d_4">
    <path d="M 19.791875 45.580178 
L 19.791875 8.263073 
" clip-path="url(#pb5f80fff19)" style="fill: none; stroke: #000000; stroke-width: 1.5; stroke-linecap: square"/>
   </g>
   <g id="line2d_5">
    <path d="M 106.819977 45.580178 
L 106.819977 8.263073 
" clip-path="url(#pb5f80fff19)" style="fill: none; stroke: #000000; stroke-width: 1.5; stroke-linecap: square"/>
   </g>
   <g id="line2d_6">
    <path d="M 106.819977 45.580178 
L 19.791875 45.580178 
" clip-path="url(#pb5f80fff19)" style="fill: none; stroke: #000000; stroke-width: 1.5; stroke-linecap: square"/>
   </g>
  </g>
 </g>
 <defs>
  <clipPath id="pb5f80fff19">
   <rect x="15.44047" y="6.397218" width="95.730912" height="41.048815"/>
  </clipPath>
 </defs>
</svg>
