<?xml version="1.0" encoding="utf-8" standalone="no"?>
<!DOCTYPE svg PUBLIC "-//W3C//DTD SVG 1.1//EN"
  "http://www.w3.org/Graphics/SVG/1.1/DTD/svg11.dtd">
<svg xmlns:xlink="http://www.w3.org/1999/xlink" width="123.523758pt" height="53.31015pt" viewBox="0 0 123.523758 53.31015" xmlns="http://www.w3.org/2000/svg" version="1.1">
 <metadata>
  <rdf:RDF xmlns:dc="http://purl.org/dc/elements/1.1/" xmlns:cc="http://creativecommons.org/ns#" xmlns:rdf="http://www.w3.org/1999/02/22-rdf-syntax-ns#">
   <cc:Work>
    <dc:type rdf:resource="http://purl.org/dc/dcmitype/StillImage"/>
    <dc:date>2025-02-27T09:46:06.536014</dc:date>
    <dc:format>image/svg+xml</dc:format>
    <dc:creator>
     <cc:Agent>
      <dc:title>Matplotlib v3.9.2, https://matplotlib.org/</dc:title>
     </cc:Agent>
    </dc:creator>
   </cc:Work>
  </rdf:RDF>
 </metadata>
 <defs>
  <style type="text/css">*{stroke-linejoin: round; stroke-linecap: butt}</style>
 </defs>
 <g id="figure_1">
  <g id="patch_1">
   <path d="M 0 53.31015 
L 123.523758 53.31015 
L 123.523758 0 
L 0 0 
L 0 53.31015 
z
" style="fill: none"/>
  </g>
  <g id="axes_1">
   <g id="line2d_1">
    <path d="M 19.791875 8.263073 
L 20.670947 8.27069 
L 21.55002 8.293527 
L 22.429088 8.331586 
L 23.30816 8.384845 
L 24.187233 8.453282 
L 25.066305 8.536872 
L 25.945378 8.63557 
L 26.824451 8.749343 
L 27.703518 8.878126 
L 28.582591 9.02187 
L 29.461663 9.180502 
L 30.340736 9.35394 
L 31.219809 9.542094 
L 32.098881 9.744866 
L 32.977949 9.962141 
L 33.857021 10.193793 
L 34.736094 10.439685 
L 35.615167 10.699663 
L 36.494239 10.973559 
L 37.373312 11.261192 
L 38.252379 11.562359 
L 39.131452 11.876856 
L 40.010525 12.204439 
L 40.889597 12.544863 
L 41.768669 12.897858 
L 42.647741 13.263144 
L 43.526811 13.640407 
L 44.405883 14.029332 
L 45.284955 14.429572 
L 46.164028 14.840771 
L 47.043099 15.262542 
L 47.922169 15.69449 
L 48.801242 16.136203 
L 49.680313 16.58724 
L 50.559386 17.047154 
L 51.438458 17.515476 
L 52.31753 17.991724 
L 53.1966 18.475397 
L 54.075672 18.965981 
L 54.954744 19.462955 
L 55.833816 19.965781 
L 56.712889 20.47391 
L 57.59196 20.986778 
L 58.47103 21.503826 
L 59.350103 22.024479 
L 60.229174 22.548159 
L 61.108247 23.074287 
L 61.98732 23.602275 
L 62.866391 24.131537 
L 63.745461 24.661492 
L 64.624532 25.19156 
L 65.503605 25.721161 
L 66.382678 26.249722 
L 67.261749 26.776681 
L 68.140822 27.301478 
L 69.019892 27.823566 
L 69.898963 28.342417 
L 70.778036 28.857505 
L 71.657108 29.368322 
L 72.536179 29.874379 
L 73.415252 30.375198 
L 74.294322 30.87032 
L 75.173393 31.359311 
L 76.052466 31.841753 
L 76.931539 32.317247 
L 77.81061 32.785416 
L 78.68968 33.245904 
L 79.568753 33.698386 
L 80.447824 34.14255 
L 81.326897 34.578112 
L 82.205969 35.004813 
L 83.085041 35.422416 
L 83.964111 35.830705 
L 84.843183 36.2295 
L 85.722255 36.618631 
L 86.601327 36.997962 
L 87.4804 37.367373 
L 88.359473 37.726772 
L 89.23854 38.076087 
L 90.117613 38.415274 
L 90.996685 38.744302 
L 91.875758 39.063169 
L 92.754831 39.371887 
L 93.633903 39.670492 
L 94.512971 39.959033 
L 95.392043 40.237588 
L 96.271116 40.506239 
L 97.150189 40.765093 
L 98.029261 41.014269 
L 98.908334 41.253898 
L 99.787401 41.484128 
L 100.666474 41.705118 
L 101.545546 41.917038 
L 102.424619 42.120068 
L 103.303692 42.314398 
L 104.182764 42.500224 
L 105.061832 42.677752 
L 105.940904 42.847195 
L 106.819977 43.008768 
" clip-path="url(#p10421caef3)" style="fill: none; stroke: #2ca02c; stroke-width: 1.5; stroke-linecap: square"/>
   </g>
   <g id="line2d_2">
    <path d="M 19.791875 26.921626 
L 20.670947 26.548621 
L 21.55002 26.183996 
L 22.429088 25.828519 
L 23.30816 25.482934 
L 24.187233 25.147987 
L 25.066305 24.824407 
L 25.945378 24.512905 
L 26.824451 24.214175 
L 27.703518 23.928891 
L 28.582591 23.657697 
L 29.461663 23.401218 
L 30.340736 23.160045 
L 31.219809 22.934742 
L 32.098881 22.725837 
L 32.977949 22.533825 
L 33.857021 22.359161 
L 34.736094 22.202262 
L 35.615167 22.063507 
L 36.494239 21.94323 
L 37.373312 21.841721 
L 38.252379 21.759229 
L 39.131452 21.695954 
L 40.010525 21.652048 
L 40.889597 21.627622 
L 41.768669 21.622734 
L 42.647741 21.637395 
L 43.526811 21.671572 
L 44.405883 21.725178 
L 45.284955 21.798085 
L 46.164028 21.890113 
L 47.043099 22.00104 
L 47.922169 22.130595 
L 48.801242 22.278467 
L 49.680313 22.444297 
L 50.559386 22.62769 
L 51.438458 22.828208 
L 52.31753 23.045376 
L 53.1966 23.278682 
L 54.075672 23.52758 
L 54.954744 23.791492 
L 55.833816 24.069811 
L 56.712889 24.361902 
L 57.59196 24.667103 
L 58.47103 24.984731 
L 59.350103 25.314085 
L 60.229174 25.654441 
L 61.108247 26.005068 
L 61.98732 26.365214 
L 62.866391 26.734124 
L 63.745461 27.111031 
L 64.624532 27.495169 
L 65.503605 27.885768 
L 66.382678 28.282054 
L 67.261749 28.683265 
L 68.140822 29.088634 
L 69.019892 29.49741 
L 69.898963 29.908853 
L 70.778036 30.322228 
L 71.657108 30.736821 
L 72.536179 31.151931 
L 73.415252 31.566874 
L 74.294322 31.980986 
L 75.173393 32.39363 
L 76.052466 32.804186 
L 76.931539 33.21206 
L 77.81061 33.616681 
L 78.68968 34.017504 
L 79.568753 34.41402 
L 80.447824 34.805734 
L 81.326897 35.192191 
L 82.205969 35.572957 
L 83.085041 35.947633 
L 83.964111 36.315843 
L 84.843183 36.67725 
L 85.722255 37.031539 
L 86.601327 37.378428 
L 87.4804 37.71766 
L 88.359473 38.04901 
L 89.23854 38.372281 
L 90.117613 38.687306 
L 90.996685 38.99394 
L 91.875758 39.292069 
L 92.754831 39.5816 
L 93.633903 39.862471 
L 94.512971 40.134633 
L 95.392043 40.398076 
L 96.271116 40.652796 
L 97.150189 40.898819 
L 98.029261 41.136187 
L 98.908334 41.364961 
L 99.787401 41.585219 
L 100.666474 41.797058 
L 101.545546 42.000587 
L 102.424619 42.19593 
L 103.303692 42.383223 
L 104.182764 42.562615 
L 105.061832 42.734264 
L 105.940904 42.898339 
L 106.819977 43.055018 
" clip-path="url(#p10421caef3)" style="fill: none; stroke-dasharray: 5.55,2.4; stroke-dashoffset: 0; stroke: #2ca02c; stroke-width: 1.5"/>
   </g>
   <g id="line2d_3">
    <path d="M 19.791875 26.921626 
L 20.670947 27.302246 
L 21.55002 27.68971 
L 22.429088 28.083246 
L 23.30816 28.482089 
L 24.187233 28.885474 
L 25.066305 29.292643 
L 25.945378 29.702845 
L 26.824451 30.115345 
L 27.703518 30.529415 
L 28.582591 30.944352 
L 29.461663 31.359462 
L 30.340736 31.774074 
L 31.219809 32.187532 
L 32.098881 32.599209 
L 32.977949 33.008494 
L 33.857021 33.414811 
L 34.736094 33.817601 
L 35.615167 34.216333 
L 36.494239 34.610507 
L 37.373312 34.999649 
L 38.252379 35.38331 
L 39.131452 35.76108 
L 40.010525 36.132568 
L 40.889597 36.497419 
L 41.768669 36.855304 
L 42.647741 37.205926 
L 43.526811 37.549014 
L 44.405883 37.884331 
L 45.284955 38.211667 
L 46.164028 38.530834 
L 47.043099 38.84168 
L 47.922169 39.144073 
L 48.801242 39.437914 
L 49.680313 39.72312 
L 50.559386 39.999642 
L 51.438458 40.267446 
L 52.31753 40.526526 
L 53.1966 40.776892 
L 54.075672 41.01858 
L 54.954744 41.251643 
L 55.833816 41.476148 
L 56.712889 41.692185 
L 57.59196 41.899854 
L 58.47103 42.099273 
L 59.350103 42.290573 
L 60.229174 42.473896 
L 61.108247 42.649397 
L 61.98732 42.817239 
L 62.866391 42.977592 
L 63.745461 43.130639 
L 64.624532 43.276569 
L 65.503605 43.415571 
L 66.382678 43.547846 
L 67.261749 43.673595 
L 68.140822 43.793023 
L 69.019892 43.906335 
L 69.898963 44.013743 
L 70.778036 44.115455 
L 71.657108 44.21168 
L 72.536179 44.302626 
L 73.415252 44.388502 
L 74.294322 44.469512 
L 75.173393 44.54586 
L 76.052466 44.617745 
L 76.931539 44.685365 
L 77.81061 44.748913 
L 78.68968 44.808578 
L 79.568753 44.864545 
L 80.447824 44.916993 
L 81.326897 44.9661 
L 82.205969 45.012034 
L 83.085041 45.054961 
L 83.964111 45.095041 
L 84.843183 45.132428 
L 85.722255 45.16727 
L 86.601327 45.199713 
L 87.4804 45.229892 
L 88.359473 45.25794 
L 89.23854 45.283985 
L 90.117613 45.308146 
L 90.996685 45.330541 
L 91.875758 45.351278 
L 92.754831 45.370465 
L 93.633903 45.3882 
L 94.512971 45.404578 
L 95.392043 45.41969 
L 96.271116 45.433622 
L 97.150189 45.446453 
L 98.029261 45.45826 
L 98.908334 45.469116 
L 99.787401 45.479087 
L 100.666474 45.488239 
L 101.545546 45.49663 
L 102.424619 45.504317 
L 103.303692 45.511353 
L 104.182764 45.517787 
L 105.061832 45.523667 
L 105.940904 45.529033 
L 106.819977 45.533928 
" clip-path="url(#p10421caef3)" style="fill: none; stroke-dasharray: 5.55,2.4; stroke-dashoffset: 0; stroke: #2ca02c; stroke-width: 1.5"/>
   </g>
   <g id="line2d_4">
    <path d="M 19.791875 45.580178 
L 19.791875 8.263073 
" clip-path="url(#p10421caef3)" style="fill: none; stroke: #000000; stroke-width: 1.5; stroke-linecap: square"/>
   </g>
   <g id="line2d_5">
    <path d="M 106.819977 45.580178 
L 106.819977 8.263073 
" clip-path="url(#p10421caef3)" style="fill: none; stroke: #000000; stroke-width: 1.5; stroke-linecap: square"/>
   </g>
   <g id="line2d_6">
    <path d="M 106.819977 45.580178 
L 19.791875 45.580178 
" clip-path="url(#p10421caef3)" style="fill: none; stroke: #000000; stroke-width: 1.5; stroke-linecap: square"/>
   </g>
  </g>
 </g>
 <defs>
  <clipPath id="p10421caef3">
   <rect x="15.44047" y="6.397218" width="95.730912" height="41.048815"/>
  </clipPath>
 </defs>
</svg>
