<?xml version="1.0" encoding="utf-8" standalone="no"?>
<!DOCTYPE svg PUBLIC "-//W3C//DTD SVG 1.1//EN"
  "http://www.w3.org/Graphics/SVG/1.1/DTD/svg11.dtd">
<svg xmlns:xlink="http://www.w3.org/1999/xlink" width="123.523758pt" height="53.31015pt" viewBox="0 0 123.523758 53.31015" xmlns="http://www.w3.org/2000/svg" version="1.1">
 <metadata>
  <rdf:RDF xmlns:dc="http://purl.org/dc/elements/1.1/" xmlns:cc="http://creativecommons.org/ns#" xmlns:rdf="http://www.w3.org/1999/02/22-rdf-syntax-ns#">
   <cc:Work>
    <dc:type rdf:resource="http://purl.org/dc/dcmitype/StillImage"/>
    <dc:date>2025-02-27T10:12:34.530587</dc:date>
    <dc:format>image/svg+xml</dc:format>
    <dc:creator>
     <cc:Agent>
      <dc:title>Matplotlib v3.9.2, https://matplotlib.org/</dc:title>
     </cc:Agent>
    </dc:creator>
   </cc:Work>
  </rdf:RDF>
 </metadata>
 <defs>
  <style type="text/css">*{stroke-linejoin: round; stroke-linecap: butt}</style>
 </defs>
 <g id="figure_1">
  <g id="patch_1">
   <path d="M 0 53.31015 
L 123.523758 53.31015 
L 123.523758 0 
L 0 0 
L 0 53.31015 
z
" style="fill: none"/>
  </g>
  <g id="axes_1">
   <g id="line2d_1">
    <path d="M 19.791875 26.921626 
L 20.670947 26.548621 
L 21.55002 26.183996 
L 22.429088 25.828519 
L 23.30816 25.482934 
L 24.187233 25.147987 
L 25.066305 24.824407 
L 25.945378 24.512905 
L 26.824451 24.214175 
L 27.703518 23.928891 
L 28.582591 23.657697 
L 29.461663 23.401218 
L 30.340736 23.160045 
L 31.219809 22.934742 
L 32.098881 22.725837 
L 32.977949 22.533825 
L 33.857021 22.359161 
L 34.736094 22.202262 
L 35.615167 22.063507 
L 36.494239 21.94323 
L 37.373312 21.841721 
L 38.252379 21.759229 
L 39.131452 21.695954 
L 40.010525 21.652048 
L 40.889597 21.627622 
L 41.768669 21.622734 
L 42.647741 21.637395 
L 43.526811 21.671572 
L 44.405883 21.725178 
L 45.284955 21.798085 
L 46.164028 21.890113 
L 47.043099 22.00104 
L 47.922169 22.130595 
L 48.801242 22.278467 
L 49.680313 22.444297 
L 50.559386 22.62769 
L 51.438458 22.828208 
L 52.31753 23.045376 
L 53.1966 23.278682 
L 54.075672 23.52758 
L 54.954744 23.791492 
L 55.833816 24.069811 
L 56.712889 24.361902 
L 57.59196 24.667103 
L 58.47103 24.984731 
L 59.350103 25.314085 
L 60.229174 25.654441 
L 61.108247 26.005068 
L 61.98732 26.365214 
L 62.866391 26.734124 
L 63.745461 27.111031 
L 64.624532 27.495169 
L 65.503605 27.885768 
L 66.382678 28.282054 
L 67.261749 28.683265 
L 68.140822 29.088634 
L 69.019892 29.49741 
L 69.898963 29.908853 
L 70.778036 30.322228 
L 71.657108 30.736821 
L 72.536179 31.151931 
L 73.415252 31.566874 
L 74.294322 31.980986 
L 75.173393 32.39363 
L 76.052466 32.804186 
L 76.931539 33.21206 
L 77.81061 33.616681 
L 78.68968 34.017504 
L 79.568753 34.41402 
L 80.447824 34.805734 
L 81.326897 35.192191 
L 82.205969 35.572957 
L 83.085041 35.947633 
L 83.964111 36.315843 
L 84.843183 36.67725 
L 85.722255 37.031539 
L 86.601327 37.378428 
L 87.4804 37.71766 
L 88.359473 38.04901 
L 89.23854 38.372281 
L 90.117613 38.687306 
L 90.996685 38.99394 
L 91.875758 39.292069 
L 92.754831 39.5816 
L 93.633903 39.862471 
L 94.512971 40.134633 
L 95.392043 40.398076 
L 96.271116 40.652796 
L 97.150189 40.898819 
L 98.029261 41.136187 
L 98.908334 41.364961 
L 99.787401 41.585219 
L 100.666474 41.797058 
L 101.545546 42.000587 
L 102.424619 42.19593 
L 103.303692 42.383223 
L 104.182764 42.562615 
L 105.061832 42.734264 
L 105.940904 42.898339 
L 106.819977 43.055018 
" clip-path="url(#pf413e4b443)" style="fill: none; stroke: #1f77b4; stroke-width: 1.5; stroke-linecap: square"/>
   </g>
   <g id="line2d_2">
    <path d="M 19.791875 45.580178 
L 19.791875 8.263073 
" clip-path="url(#pf413e4b443)" style="fill: none; stroke: #000000; stroke-width: 1.5; stroke-linecap: square"/>
   </g>
   <g id="line2d_3">
    <path d="M 106.819977 45.580178 
L 106.819977 8.263073 
" clip-path="url(#pf413e4b443)" style="fill: none; stroke: #000000; stroke-width: 1.5; stroke-linecap: square"/>
   </g>
   <g id="line2d_4">
    <path d="M 106.819977 45.580178 
L 19.791875 45.580178 
" clip-path="url(#pf413e4b443)" style="fill: none; stroke: #000000; stroke-width: 1.5; stroke-linecap: square"/>
   </g>
  </g>
 </g>
 <defs>
  <clipPath id="pf413e4b443">
   <rect x="15.44047" y="6.397218" width="95.730912" height="41.048815"/>
  </clipPath>
 </defs>
</svg>
